<svg id="Layer_1" data-name="Layer 1" xmlns="http://www.w3.org/2000/svg" width="285.47" height="309.38" viewBox="0 0 285.47 309.38"><defs><style>.cls-1,.cls-3{fill:#fff;stroke-linecap:round;stroke-linejoin:round;}.cls-1,.cls-5{stroke:#000;}.cls-1{stroke-width:0.75px;}.cls-2{isolation:isolate;}.cls-3{stroke:#7f7f7f;}.cls-4,.cls-5{fill:none;}.cls-5{stroke-miterlimit:10;}</style></defs><title>repository</title><g id="shape1001-1"><rect class="cls-1" x="0.38" y="137.47" width="171.46" height="68.55"/><g class="cls-2"><path d="M30.46,176.27V165.91h2.79c3.62,0,5.43,1.65,5.43,5.1a4.74,4.74,0,0,1-1.48,3.78,5.46,5.46,0,0,1-4.11,1.48Zm1.15-9.37v8.22h1.48a4,4,0,0,0,4.27-4.28c0-2.63-1.48-3.94-4.27-3.94Z"/><path d="M44.43,170a1.25,1.25,0,0,0-.82-.16,1.51,1.51,0,0,0-1.32.65,3.63,3.63,0,0,0-.49,2v3.78H40.65v-7.4H41.8v1.48h0a2.11,2.11,0,0,1,.82-1.15,1.49,1.49,0,0,1,1.15-.49c.33,0,.5,0,.66.16Z"/><path d="M48.87,176.43a3.5,3.5,0,0,1-2.63-1,3.88,3.88,0,0,1-1-2.8,4.29,4.29,0,0,1,1-3,3.89,3.89,0,0,1,2.79-1,3.47,3.47,0,0,1,2.63,1,4.44,4.44,0,0,1,0,5.59A3.6,3.6,0,0,1,48.87,176.43Zm0-6.74a2.38,2.38,0,0,0-1.81.82,2.83,2.83,0,0,0-.66,2.14,3.05,3.05,0,0,0,.66,2.14,2.41,2.41,0,0,0,3.62,0,2.8,2.8,0,0,0,.66-2.14,2.83,2.83,0,0,0-.66-2.14A1.8,1.8,0,0,0,48.87,169.69Z"/><path d="M60.54,176.27H59.39V172c0-1.64-.49-2.3-1.64-2.3a1.61,1.61,0,0,0-1.48.66,2.92,2.92,0,0,0-.66,1.64v4.28H54.46v-7.4h1.15V170h0a2.56,2.56,0,0,1,2.47-1.48,2.1,2.1,0,0,1,1.8.82,3.21,3.21,0,0,1,.66,2.31Z"/><path d="M68.76,172.82H63.5a2.63,2.63,0,0,0,.66,2,2.26,2.26,0,0,0,1.81.66,3.9,3.9,0,0,0,2.3-.83v1.16a4.2,4.2,0,0,1-2.63.65,3.38,3.38,0,0,1-2.47-1,4.77,4.77,0,0,1,.17-5.59,3.47,3.47,0,0,1,2.46-1.15,3,3,0,0,1,2.3,1,3.39,3.39,0,0,1,.83,2.63v.5Zm-1.31-1a2.75,2.75,0,0,0-.5-1.64,1.86,1.86,0,0,0-1.31-.5,2,2,0,0,0-1.48.66A2.51,2.51,0,0,0,63.5,172h4Z"/><path d="M82.24,176.27H80.76l-1.81-3a2.17,2.17,0,0,0-.49-.66l-.49-.49c-.17-.17-.33-.17-.5-.33-.16,0-.32-.16-.65-.16H76v4.43H74.84V165.75H78a3.68,3.68,0,0,1,1.31.16l1,.5a1.64,1.64,0,0,1,.66.82,2.86,2.86,0,0,1,.16,1.15,2.09,2.09,0,0,1-.16,1c-.17.33-.33.5-.5.83l-.65.65a2.28,2.28,0,0,1-1,.33h0c.16,0,.33.17.49.33s.33.17.33.33.17.33.33.49.16.33.33.66ZM76,166.9v3.78h1.65c.33,0,.66,0,.82-.17s.49-.16.66-.32a2.35,2.35,0,0,0,.49-.66,1.43,1.43,0,0,0,.17-.82,1.87,1.87,0,0,0-.5-1.32,2,2,0,0,0-1.48-.49Z"/><path d="M89,172.82H83.72a2.63,2.63,0,0,0,.66,2,2.26,2.26,0,0,0,1.81.66,3.9,3.9,0,0,0,2.3-.83v1.16a4.2,4.2,0,0,1-2.63.65,3.38,3.38,0,0,1-2.47-1,4.77,4.77,0,0,1,.17-5.59A3.47,3.47,0,0,1,86,168.71a3,3,0,0,1,2.3,1,3.39,3.39,0,0,1,.83,2.63v.5Zm-1.31-1a2.75,2.75,0,0,0-.5-1.64,1.86,1.86,0,0,0-1.31-.5,2,2,0,0,0-1.48.66,2.51,2.51,0,0,0-.66,1.64h4Z"/><path d="M91.94,175.12h0v4.44H90.79V168.71h1.15V170h0a3.12,3.12,0,0,1,4.93-.49,4.15,4.15,0,0,1,.82,2.63,4.86,4.86,0,0,1-.82,3,3,3,0,0,1-2.46,1.15A2.33,2.33,0,0,1,91.94,175.12Zm0-3v1a2.27,2.27,0,0,0,2.14,2.13,2,2,0,0,0,1.64-.82,4.22,4.22,0,0,0,.66-2.3,3.57,3.57,0,0,0-.49-2,1.6,1.6,0,0,0-1.48-.66,1.9,1.9,0,0,0-1.65.66A2.61,2.61,0,0,0,91.94,172.16Z"/><path d="M102.46,176.43a3.5,3.5,0,0,1-2.63-1,3.87,3.87,0,0,1-1-2.8,4.28,4.28,0,0,1,1-3,3.91,3.91,0,0,1,2.8-1,3.5,3.5,0,0,1,2.63,1,4.48,4.48,0,0,1,0,5.59A3.41,3.41,0,0,1,102.46,176.43Zm.17-6.74a2.35,2.35,0,0,0-1.81.82,2.79,2.79,0,0,0-.66,2.14,3,3,0,0,0,.66,2.14,2.4,2.4,0,0,0,3.61,0,3.8,3.8,0,0,0,0-4.28A1.93,1.93,0,0,0,102.63,169.69Z"/><path d="M107.72,175.94v-1.32a3.28,3.28,0,0,0,2.14.66c1,0,1.48-.33,1.48-1a.6.6,0,0,0-.17-.5c-.16-.16-.16-.33-.32-.33-.17-.16-.33-.16-.5-.32s-.49-.17-.65-.33a2.62,2.62,0,0,0-.83-.33,2.15,2.15,0,0,1-.65-.5c-.17-.16-.33-.32-.33-.49-.17-.16-.17-.49-.17-.82a2,2,0,0,1,.17-1,1.25,1.25,0,0,1,.65-.65,1.74,1.74,0,0,1,1-.33,2,2,0,0,1,1-.17,5,5,0,0,1,1.64.33V170a3.29,3.29,0,0,0-1.81-.49h-.65c-.17,0-.33.16-.5.16l-.33.33c0,.17-.16.33-.16.49a.63.63,0,0,0,.16.5.36.36,0,0,0,.33.33c.17.16.33.16.5.33s.49.16.65.32a2.69,2.69,0,0,0,.82.33,2.21,2.21,0,0,1,.66.5l.5.49a1.25,1.25,0,0,1,.16.82,2.15,2.15,0,0,1-.16,1,1.33,1.33,0,0,1-.66.66,2.4,2.4,0,0,1-1,.32c-.33,0-.66.17-1.15.17A2.3,2.3,0,0,1,107.72,175.94Z"/><path d="M115,166.9a.6.6,0,0,1-.5-.17.6.6,0,0,1-.16-.49.58.58,0,0,1,.66-.66.59.59,0,0,1,.49.17.61.61,0,0,1,.16.49.6.6,0,0,1-.16.49C115.45,166.9,115.12,166.9,115,166.9Zm.65,9.37h-1.15v-7.4h1.15Z"/><path d="M121.37,176.1a2.37,2.37,0,0,1-1.15.17c-1.32,0-2-.66-2-2.14v-4.27h-1.15v-1h1.32v-1.81l1.15-.33v2.14h1.81v1h-1.81V174a1.34,1.34,0,0,0,.33,1,1.21,1.21,0,0,0,.82.33,1.51,1.51,0,0,0,.82-.16v1Z"/><path d="M126.13,176.43a3.5,3.5,0,0,1-2.63-1,3.91,3.91,0,0,1-1-2.8,4.33,4.33,0,0,1,1-3,3.91,3.91,0,0,1,2.8-1,3.5,3.5,0,0,1,2.63,1,3.95,3.95,0,0,1-2.8,6.74Zm0-6.74a2.34,2.34,0,0,0-1.8.82,2.79,2.79,0,0,0-.66,2.14,3,3,0,0,0,.66,2.14,2.4,2.4,0,0,0,3.61,0,3.8,3.8,0,0,0,0-4.28A1.93,1.93,0,0,0,126.13,169.69Z"/><path d="M135.5,170a1.25,1.25,0,0,0-.82-.16,1.49,1.49,0,0,0-1.31.65,3.54,3.54,0,0,0-.5,2v3.78h-1.15v-7.4h1.15v1.48h0a2.12,2.12,0,0,1,.83-1.15,1.46,1.46,0,0,1,1.15-.49c.33,0,.49,0,.65.16Z"/><path d="M142.74,168.87l-3.45,8.55c-.66,1.48-1.48,2.3-2.63,2.3a1.54,1.54,0,0,1-.83-.16v-1a1.29,1.29,0,0,0,.66.16c.66,0,1-.32,1.32-1.15l.65-1.48-3-7.39h1.32l2,5.75a.78.78,0,0,0,.17.49h0a.61.61,0,0,1,.16-.49l2.14-5.75h1.48Z"/></g></g><g id="shape1002-4"><path class="cls-3" d="M61.72.5h48.82a14.74,14.74,0,0,1,14.8,14.8V40a14.74,14.74,0,0,1-14.8,14.8H61.72A14.74,14.74,0,0,1,46.92,40V15.3A14.74,14.74,0,0,1,61.72.5Z"/><g class="cls-2"><path d="M67.31,23.19V12.83H70.1c3.62,0,5.43,1.64,5.43,5.1a4.75,4.75,0,0,1-1.48,3.78,5.5,5.5,0,0,1-4.11,1.48ZM68.46,14V22.2h1.48a4,4,0,0,0,4.27-4.27c0-2.63-1.48-3.95-4.27-3.95Z"/><path d="M81.45,16.94a1.23,1.23,0,0,0-.83-.17,1.5,1.5,0,0,0-1.31.66,3.52,3.52,0,0,0-.49,2v3.78H77.67v-7.4h1.15v1.48h0a2,2,0,0,1,.82-1.15,1.5,1.5,0,0,1,1.15-.5c.33,0,.49,0,.66.17Z"/><path d="M85.72,23.35a3.47,3.47,0,0,1-2.63-1,3.84,3.84,0,0,1-1-2.79,4.27,4.27,0,0,1,1-3,3.85,3.85,0,0,1,2.79-1,3.44,3.44,0,0,1,2.63,1,3.86,3.86,0,0,1,1,2.8,3.85,3.85,0,0,1-1,2.79A3.37,3.37,0,0,1,85.72,23.35Zm.16-6.74a2.34,2.34,0,0,0-1.8.82,2.78,2.78,0,0,0-.66,2.14,3,3,0,0,0,.66,2.14,2.4,2.4,0,0,0,3.61,0,2.78,2.78,0,0,0,.66-2.14,2.78,2.78,0,0,0-.66-2.14A2.64,2.64,0,0,0,85.88,16.61Z"/><path d="M97.56,23.19H96.24V18.91c0-1.64-.49-2.3-1.64-2.3a1.59,1.59,0,0,0-1.48.66,2.89,2.89,0,0,0-.66,1.64v4.28H91.31v-7.4h1.15v1.15h0a2.55,2.55,0,0,1,2.47-1.48,2.1,2.1,0,0,1,1.8.82,3.18,3.18,0,0,1,.66,2.3v4.61Z"/><path d="M105.61,19.73h-5.26a2.65,2.65,0,0,0,.66,2,2.24,2.24,0,0,0,1.81.65,3.89,3.89,0,0,0,2.3-.82v1.15a4.13,4.13,0,0,1-2.63.66,3.35,3.35,0,0,1-2.47-1,3.77,3.77,0,0,1-.82-2.79,3.88,3.88,0,0,1,1-2.8,3.51,3.51,0,0,1,2.46-1.15,3,3,0,0,1,2.3,1,3.39,3.39,0,0,1,.83,2.63v.49Zm-1.15-1A2.79,2.79,0,0,0,104,17.1a1.86,1.86,0,0,0-1.32-.49,2,2,0,0,0-1.48.66,2.49,2.49,0,0,0-.65,1.64h3.94Z"/></g><g class="cls-2"><path d="M67.47,43.24h-1A9.14,9.14,0,0,1,64.18,37a9.9,9.9,0,0,1,2.31-6.41h1.15A9.89,9.89,0,0,0,65.34,37,8.52,8.52,0,0,0,67.47,43.24Z"/><path d="M74.87,37.49H69.61a2.59,2.59,0,0,0,.66,2,2.25,2.25,0,0,0,1.81.66,4,4,0,0,0,2.3-.82v1.15a4.2,4.2,0,0,1-2.63.65,3.34,3.34,0,0,1-2.47-1,3.81,3.81,0,0,1-.82-2.8,3.85,3.85,0,0,1,1-2.79,3.47,3.47,0,0,1,2.46-1.15,3,3,0,0,1,2.3,1A3.39,3.39,0,0,1,75,37v.5Zm-1.31-1a2.75,2.75,0,0,0-.5-1.64,1.86,1.86,0,0,0-1.31-.5,2,2,0,0,0-1.48.66,2.52,2.52,0,0,0-.66,1.65h4Z"/><path d="M82.76,40.94H81.61V36.67c0-1.65-.49-2.31-1.64-2.31a1.61,1.61,0,0,0-1.48.66,3,3,0,0,0-.66,1.65v4.27H76.68v-7.4h1.15v1.15h0a2.55,2.55,0,0,1,2.47-1.48,2.1,2.1,0,0,1,1.8.83,3.17,3.17,0,0,1,.66,2.3Z"/><path d="M88.35,40.94a2.5,2.5,0,0,1-1.15.16c-1.32,0-2-.65-2-2.13V34.53H83.91v-1h1.32V31.73l1.15-.32v2.13h1.81v1H86.38v4.11a1.34,1.34,0,0,0,.33,1,1.21,1.21,0,0,0,.82.33,1.51,1.51,0,0,0,.82-.16Z"/><path d="M90.65,31.73a.61.61,0,0,1-.49-.16.59.59,0,0,1-.17-.49.58.58,0,0,1,.66-.66.57.57,0,0,1,.66.66.61.61,0,0,1-.16.49C91,31.57,90.82,31.73,90.65,31.73Zm.5,9.21H90v-7.4h1.16Z"/><path d="M97.06,40.94a2.48,2.48,0,0,1-1.15.16c-1.31,0-2-.65-2-2.13V34.53H92.62v-1h1.32V31.73l1.15-.32v2.13H96.9v1H95.09v4.11a1.34,1.34,0,0,0,.33,1,1.21,1.21,0,0,0,.82.33,1.51,1.51,0,0,0,.82-.16Z"/><path d="M104.46,33.54,101,42.09c-.66,1.48-1.48,2.3-2.63,2.3a1.51,1.51,0,0,1-.82-.16v-1a1.2,1.2,0,0,0,.65.17c.66,0,1-.33,1.32-1.15l.66-1.48-3-7.4h1.31l2,5.75a.81.81,0,0,0,.16.49h0a.62.62,0,0,1,.16-.49L103,33.38h1.48Z"/><path d="M105.78,43.24h-1a9.76,9.76,0,0,0,2.3-6.25,9.89,9.89,0,0,0-2.3-6.41h1.15a9.89,9.89,0,0,1,2.3,6.41A10.09,10.09,0,0,1,105.78,43.24Z"/></g></g><g id="shape1003-8"><path class="cls-3" d="M171.37.5h98.8A14.74,14.74,0,0,1,285,15.3V40a14.74,14.74,0,0,1-14.8,14.8h-98.8A14.73,14.73,0,0,1,156.58,40V15.3A14.73,14.73,0,0,1,171.37.5Z"/><g class="cls-2"><path d="M199.65,23.19h-5.26V12.83h1.15V22h4.11Z"/><path d="M204.25,23.35a3.47,3.47,0,0,1-2.63-1,3.84,3.84,0,0,1-1-2.79,4.27,4.27,0,0,1,1-3,3.85,3.85,0,0,1,2.79-1,3.45,3.45,0,0,1,2.63,1,3.86,3.86,0,0,1,1,2.8,3.85,3.85,0,0,1-1,2.79A3.6,3.6,0,0,1,204.25,23.35Zm0-6.74a2.37,2.37,0,0,0-1.81.82,2.81,2.81,0,0,0-.66,2.14,3.07,3.07,0,0,0,.66,2.14,2.41,2.41,0,0,0,3.62,0,2.81,2.81,0,0,0,.66-2.14,2.81,2.81,0,0,0-.66-2.14A2.38,2.38,0,0,0,204.25,16.61Z"/><path d="M214.77,22.86a3.87,3.87,0,0,1-2,.49,3.72,3.72,0,0,1-2.63-1,3.71,3.71,0,0,1-1-2.63,4.6,4.6,0,0,1,1-3A3.39,3.39,0,0,1,213,15.62a5,5,0,0,1,1.65.33V17.1a3.45,3.45,0,0,0-1.81-.65,2.33,2.33,0,0,0-1.81.82,3,3,0,0,0-.66,2.13,2.65,2.65,0,0,0,.66,2,2.37,2.37,0,0,0,1.81.82,2.46,2.46,0,0,0,1.81-.66v1.32Z"/><path d="M222,23.19h-1.31V22h0a2.62,2.62,0,0,1-2.3,1.31,2.44,2.44,0,0,1-1.81-.66,1.79,1.79,0,0,1-.66-1.48c0-1.31.82-2.13,2.47-2.46l2.13-.33c0-1.32-.49-1.81-1.48-1.81a3.93,3.93,0,0,0-2.46,1V16.45a4.22,4.22,0,0,1,2.46-.66c1.81,0,2.63,1,2.63,2.79v4.61Zm-1.31-3.79-1.81.17a3,3,0,0,0-1.31.33,1,1,0,0,0-.5,1,1.31,1.31,0,0,0,.33.83,2.42,2.42,0,0,0,1,.33,1.62,1.62,0,0,0,1.48-.66,2.79,2.79,0,0,0,.49-1.65V19.4Z"/><path d="M227.59,23.19a2.48,2.48,0,0,1-1.15.16c-1.31,0-2-.66-2-2.14V16.77h-1.32v-1h1.32V14l1.15-.33v2.14h1.81v1h-1.81v4.11a1.35,1.35,0,0,0,.33,1,1.21,1.21,0,0,0,.82.33,1.51,1.51,0,0,0,.82-.16Z"/><path d="M229.73,14a.58.58,0,0,1-.66-.66.59.59,0,0,1,.17-.49.83.83,0,0,1,1,0,.59.59,0,0,1,.17.49.6.6,0,0,1-.17.5A.71.71,0,0,1,229.73,14Zm.66,9.21h-1.15v-7.4h1.15Z"/><path d="M235.81,23.35a3.47,3.47,0,0,1-2.63-1,3.83,3.83,0,0,1-1-2.79,4.27,4.27,0,0,1,1-3,3.88,3.88,0,0,1,2.8-1,3.47,3.47,0,0,1,2.63,1,3.9,3.9,0,0,1,1,2.8,3.89,3.89,0,0,1-1,2.79A3.41,3.41,0,0,1,235.81,23.35Zm.17-6.74a2.35,2.35,0,0,0-1.81.82,2.81,2.81,0,0,0-.66,2.14,3.07,3.07,0,0,0,.66,2.14,2.35,2.35,0,0,0,1.81.82,2.38,2.38,0,0,0,1.81-.82,2.81,2.81,0,0,0,.65-2.14,2.81,2.81,0,0,0-.65-2.14A2.68,2.68,0,0,0,236,16.61Z"/><path d="M247.65,23.19H246.5V18.91c0-1.64-.5-2.3-1.65-2.3a1.6,1.6,0,0,0-1.48.66,3,3,0,0,0-.65,1.64v4.28h-1.15v-7.4h1.15v1.15h0a2.53,2.53,0,0,1,2.46-1.48,2.14,2.14,0,0,1,1.81.82,3.23,3.23,0,0,1,.66,2.3Z"/></g><g class="cls-2"><path d="M181.23,43.24h-1A9.13,9.13,0,0,1,178,37a9.89,9.89,0,0,1,2.3-6.41h1a9.94,9.94,0,0,0-2.3,6.41A9.5,9.5,0,0,0,181.23,43.24Z"/><path d="M188.3,33.54l-3,7.4h-1.15l-2.79-7.4h1.31L184.52,39c.17.33.17.82.33,1h0c0-.33.17-.65.17-1l2-5.43Z"/><path d="M194.88,40.94h-1.15V39.79h0a2.62,2.62,0,0,1-2.3,1.31,2.47,2.47,0,0,1-1.81-.65A1.8,1.8,0,0,1,189,39c0-1.32.82-2.14,2.47-2.47l2.13-.33c0-1.31-.49-1.81-1.48-1.81a3.93,3.93,0,0,0-2.46,1V34.2a4.3,4.3,0,0,1,2.46-.66c1.81,0,2.63,1,2.63,2.8v4.6Zm-1.15-3.78-1.81.16a3.2,3.2,0,0,0-1.32.33,1,1,0,0,0-.49,1,1.26,1.26,0,0,0,.33.82,2.42,2.42,0,0,0,1,.33,1.6,1.6,0,0,0,1.48-.66,2.74,2.74,0,0,0,.49-1.64v-.33Z"/><path d="M198.33,40.94h-1.15v-11h1.15Z"/><path d="M206.72,40.94h-1.16V39.79h0a2.61,2.61,0,0,1-2.3,1.31c-1.81,0-2.63-1-2.63-3.12V33.54h1.15v4.28c0,1.48.66,2.3,1.81,2.3a1.79,1.79,0,0,0,1.48-.66,2.76,2.76,0,0,0,.49-1.64V33.54h1.16Z"/><path d="M215.1,37.49h-5.26a2.59,2.59,0,0,0,.66,2,2.24,2.24,0,0,0,1.8.66,4,4,0,0,0,2.31-.82v1.15a4.2,4.2,0,0,1-2.63.65,3.34,3.34,0,0,1-2.47-1,3.81,3.81,0,0,1-.82-2.8,3.89,3.89,0,0,1,1-2.79,3.49,3.49,0,0,1,2.47-1.15,3,3,0,0,1,2.3,1,3.39,3.39,0,0,1,.82,2.63v.5Zm-1.32-1a2.74,2.74,0,0,0-.49-1.64,1.86,1.86,0,0,0-1.31-.5,2,2,0,0,0-1.48.66,2.52,2.52,0,0,0-.66,1.65h3.94Z"/><path d="M224,41.1a3.45,3.45,0,0,1-2.63-1,3.88,3.88,0,0,1-1-2.8,4.31,4.31,0,0,1,1-3,3.87,3.87,0,0,1,2.79-1,3.5,3.5,0,0,1,2.63,1,3.88,3.88,0,0,1,1,2.8,3.84,3.84,0,0,1-1,2.79A3.57,3.57,0,0,1,224,41.1Zm.16-6.74a2.36,2.36,0,0,0-1.81.83,2.79,2.79,0,0,0-.66,2.13,3,3,0,0,0,.66,2.14,2.41,2.41,0,0,0,3.62,0,2.8,2.8,0,0,0,.66-2.14,2.79,2.79,0,0,0-.66-2.13A2.61,2.61,0,0,0,224.14,34.36Z"/><path d="M230.72,39.79h0v1.15h-1.15v-11h1.15v4.93h0a3,3,0,0,1,2.63-1.48,3,3,0,0,1,2.3,1,4.21,4.21,0,0,1,.82,2.63,4.88,4.88,0,0,1-.82,3,2.94,2.94,0,0,1-2.47,1.15A2.41,2.41,0,0,1,230.72,39.79Zm0-3v1A2.23,2.23,0,0,0,232.85,40a2,2,0,0,0,1.65-.82,4.22,4.22,0,0,0,.65-2.3,3.48,3.48,0,0,0-.49-2,1.59,1.59,0,0,0-1.48-.66,1.88,1.88,0,0,0-1.64.66A3.43,3.43,0,0,0,230.72,36.83Z"/><path d="M239.43,40.61a4.75,4.75,0,0,1-.66,2.8,2.45,2.45,0,0,1-2.14,1,2.13,2.13,0,0,1-1-.16V43.08a2.42,2.42,0,0,0,1,.33c1.16,0,1.65-.83,1.65-2.63V33.54h1.15Zm-.49-8.88a.63.63,0,0,1-.5-.16.61.61,0,0,1-.16-.49.57.57,0,0,1,.66-.66.62.62,0,0,1,.49.16.63.63,0,0,1,.16.5.61.61,0,0,1-.16.49C239.26,31.57,239.1,31.73,238.94,31.73Z"/><path d="M247.81,37.49h-5.26a2.63,2.63,0,0,0,.66,2,2.26,2.26,0,0,0,1.81.66,4,4,0,0,0,2.3-.82v1.15a4.2,4.2,0,0,1-2.63.65,3.34,3.34,0,0,1-2.47-1,3.85,3.85,0,0,1-.82-2.8,3.85,3.85,0,0,1,1-2.79,3.49,3.49,0,0,1,2.46-1.15,3,3,0,0,1,2.31,1A3.43,3.43,0,0,1,248,37v.5Zm-1.15-1a2.74,2.74,0,0,0-.49-1.64,1.87,1.87,0,0,0-1.32-.5,2,2,0,0,0-1.48.66,2.57,2.57,0,0,0-.65,1.65h3.94Z"/><path d="M254.55,40.61a3.87,3.87,0,0,1-2,.49A3.39,3.39,0,0,1,249,37.49a4.58,4.58,0,0,1,1-3,3.39,3.39,0,0,1,2.79-1.15,4.74,4.74,0,0,1,1.65.33v1.15a3.43,3.43,0,0,0-1.81-.66,2.38,2.38,0,0,0-1.81.82,3.07,3.07,0,0,0-.66,2.14,2.63,2.63,0,0,0,.66,2,2.35,2.35,0,0,0,1.81.82,2.47,2.47,0,0,0,1.81-.65v1.31Z"/><path d="M259.81,40.94a2.48,2.48,0,0,1-1.15.16c-1.31,0-2-.65-2-2.13V34.53h-1.31v-1h1.47V31.73l1.16-.32v2.13h1.8v1H258v4.11a1.39,1.39,0,0,0,.32,1,1.26,1.26,0,0,0,.83.33,1.53,1.53,0,0,0,.82-.16v1.15Z"/><path d="M261.46,43.24h-1a9.76,9.76,0,0,0,2.3-6.25,9.89,9.89,0,0,0-2.3-6.41h1.15a9.89,9.89,0,0,1,2.3,6.41A10.09,10.09,0,0,1,261.46,43.24Z"/></g></g><g id="shape1005-18"><rect class="cls-1" x="0.38" y="240.45" width="171.46" height="68.55"/><g class="cls-2"><path d="M53.8,279.25V268.89h2.8c3.61,0,5.42,1.65,5.42,5.1a4.71,4.71,0,0,1-1.48,3.78,5.44,5.44,0,0,1-4.11,1.48ZM55,269.88v8.22h1.48a4,4,0,0,0,4.28-4.27c0-2.63-1.48-3.95-4.28-3.95Z"/><path d="M69.25,279.25H68.1V278.1h0a2.62,2.62,0,0,1-2.3,1.32,2.51,2.51,0,0,1-1.81-.66,1.79,1.79,0,0,1-.65-1.48c0-1.32.82-2.14,2.46-2.47l2.14-.33c0-1.31-.49-1.8-1.48-1.8a4,4,0,0,0-2.47,1v-1.15a4.33,4.33,0,0,1,2.47-.66c1.81,0,2.63,1,2.63,2.8v4.6Zm-1.15-3.78-1.8.16A3.16,3.16,0,0,0,65,276a1,1,0,0,0-.49,1,1.21,1.21,0,0,0,.33.82,2.24,2.24,0,0,0,1,.33,1.59,1.59,0,0,0,1.48-.66,2.75,2.75,0,0,0,.5-1.64v-.33Z"/><path d="M75,279.09a2.5,2.5,0,0,1-1.15.16c-1.32,0-2-.66-2-2.14v-4.27H70.57v-1h1.32v-1.8l1.15-.33v2.13h1.8v1H73V277a1.44,1.44,0,0,0,.32,1,1.31,1.31,0,0,0,.83.32,1.51,1.51,0,0,0,.82-.16Z"/><path d="M81.91,279.25H80.76V278.1h0a2.62,2.62,0,0,1-2.3,1.32,2.5,2.5,0,0,1-1.81-.66,1.8,1.8,0,0,1-.66-1.48c0-1.32.83-2.14,2.47-2.47l2.14-.33c0-1.31-.5-1.8-1.48-1.8a3.93,3.93,0,0,0-2.47,1v-1.15a4.33,4.33,0,0,1,2.47-.66c1.81,0,2.63,1,2.63,2.8v4.6Zm-1.31-3.78-1.81.16a3.2,3.2,0,0,0-1.32.33,1,1,0,0,0-.49,1,1.26,1.26,0,0,0,.33.82,2.28,2.28,0,0,0,1,.33,1.6,1.6,0,0,0,1.48-.66,2.81,2.81,0,0,0,.49-1.64v-.33Z"/><path d="M87.67,278.92v-1.31a3.29,3.29,0,0,0,2.13.65c1,0,1.48-.32,1.48-1a.6.6,0,0,0-.16-.49c-.17-.17-.17-.33-.33-.33-.16-.17-.33-.17-.49-.33s-.5-.17-.66-.33a2.69,2.69,0,0,0-.82-.33,2.21,2.21,0,0,1-.66-.49c-.16-.17-.33-.33-.33-.5a1.25,1.25,0,0,1-.16-.82,2.09,2.09,0,0,1,.16-1,1.29,1.29,0,0,1,.66-.66,1.71,1.71,0,0,1,1-.33,2,2,0,0,1,1-.17,5,5,0,0,1,1.65.33V273a3.43,3.43,0,0,0-1.81-.49h-.66c-.17,0-.33.17-.49.17l-.33.32c0,.17-.17.33-.17.5a.59.59,0,0,0,.17.49.35.35,0,0,0,.33.33c.16.16.32.16.49.33s.49.16.66.33a2.86,2.86,0,0,0,.82.33,2.17,2.17,0,0,1,.66.49l.49.49a1.27,1.27,0,0,1,.16.82,2.15,2.15,0,0,1-.16,1,1.29,1.29,0,0,1-.66.66,2.42,2.42,0,0,1-1,.33c-.33,0-.66.16-1.16.16A2.47,2.47,0,0,1,87.67,278.92Z"/><path d="M97.86,279.09a2.5,2.5,0,0,1-1.15.16c-1.32,0-2-.66-2-2.14v-4.27H93.42v-1h1.32v-1.8l1.15-.33v2.13h1.8v1h-1.8V277a1.44,1.44,0,0,0,.32,1,1.31,1.31,0,0,0,.83.32,1.51,1.51,0,0,0,.82-.16Z"/><path d="M102.46,279.42a3.47,3.47,0,0,1-2.63-1,3.86,3.86,0,0,1-1-2.8,4.26,4.26,0,0,1,1-2.95,3.88,3.88,0,0,1,2.8-1,3.47,3.47,0,0,1,2.63,1,4.46,4.46,0,0,1,0,5.58A3.38,3.38,0,0,1,102.46,279.42Zm.17-6.74a2.32,2.32,0,0,0-1.81.82,2.75,2.75,0,0,0-.66,2.13,3,3,0,0,0,.66,2.14,2.4,2.4,0,0,0,3.61,0,3.78,3.78,0,0,0,0-4.27A1.91,1.91,0,0,0,102.63,272.68Z"/><path d="M112,273a1.29,1.29,0,0,0-.83-.16,1.48,1.48,0,0,0-1.31.66,3.48,3.48,0,0,0-.49,2v3.78h-1.15v-7.4h1.15v1.48h0a2.1,2.1,0,0,1,.82-1.15,1.49,1.49,0,0,1,1.15-.49c.33,0,.49,0,.66.16Z"/><path d="M119.23,275.8H114a2.59,2.59,0,0,0,.66,2,2.25,2.25,0,0,0,1.81.66,4,4,0,0,0,2.3-.82v1.15a4.2,4.2,0,0,1-2.63.66,3.35,3.35,0,0,1-2.47-1,3.79,3.79,0,0,1-.82-2.8,3.89,3.89,0,0,1,1-2.79,3.49,3.49,0,0,1,2.47-1.15,3,3,0,0,1,2.3,1,3.38,3.38,0,0,1,.82,2.63v.49Zm-1.32-1a2.76,2.76,0,0,0-.49-1.64,1.85,1.85,0,0,0-1.31-.49,2,2,0,0,0-1.48.65A2.52,2.52,0,0,0,114,275h3.94Z"/></g></g><g id="shape1007-27"><rect class="cls-4" x="4.87" y="208.67" width="62.63" height="29.26"/><g class="cls-2"><path d="M19,225.1a2.37,2.37,0,0,1-.33,1.15,2,2,0,0,1-.82.83,8.25,8.25,0,0,1-1.15.49,4.7,4.7,0,0,1-1.48.16H13.75a1,1,0,0,1-.66-.16c-.16-.16-.33,0-.49-.16v-1.32c.33.16.82.16,1.15.33.49,0,1,.16,1.48.16s.82,0,1-.16a.86.86,0,0,0,.66-.33c.17-.16.33-.33.33-.49.16-.17.16-.33.16-.66s0-.49-.16-.66l-.49-.49a1.25,1.25,0,0,0-.82-.33c-.33-.16-.66-.16-1-.33a2.42,2.42,0,0,0-1-.33c-.33-.16-.49-.33-.82-.49-.16-.16-.49-.49-.49-.66s-.17-.66-.17-1a2,2,0,0,1,.17-1,1.59,1.59,0,0,1,.66-.82,5.94,5.94,0,0,1,1.15-.66,5.16,5.16,0,0,1,1.64-.16h1a.62.62,0,0,1,.49.16.61.61,0,0,1,.49.16v1.15a2.86,2.86,0,0,0-1.15-.16c-.33,0-.66-.16-1.15-.16a4.2,4.2,0,0,0-1.64.32,1.19,1.19,0,0,0-.5,1c0,.33,0,.49.17.66l.49.49a1.23,1.23,0,0,0,.82.33c.33.17.66.17,1,.33l1,.49c.32.17.49.33.82.5.16.16.49.49.49.65C18.84,224.45,19,224.78,19,225.1Z"/><path d="M26.74,227.73H21.31V218.2h5.43v1.15H22.63v3h3.94v1.15H22.63v3.29h4.11Z"/><path d="M35.12,227.73H29.69V218.2H31v8.38h4.11Z"/><path d="M43,227.73H37.58V218.2H43v1.15H38.9v3h4v1.15h-4v3.29H43Z"/><path d="M51.56,227.41a6,6,0,0,1-2.3.49,4.12,4.12,0,0,1-3.13-1.15A5.61,5.61,0,0,1,45,223.13a6.23,6.23,0,0,1,.33-2,3.21,3.21,0,0,1,.82-1.48,2.64,2.64,0,0,1,1.32-1,6,6,0,0,1,1.81-.33,2.37,2.37,0,0,1,1.15.17,4,4,0,0,1,1.15.33v1.31l-1-.49a2.71,2.71,0,0,0-1.15-.17,1.39,1.39,0,0,0-1.15.33,3.56,3.56,0,0,0-1,.66,2.71,2.71,0,0,0-.65,1.15,4.41,4.41,0,0,0-.17,1.48,4.75,4.75,0,0,0,.82,2.8,2.47,2.47,0,0,0,2.14,1,2.86,2.86,0,0,0,1.15-.16,8.81,8.81,0,0,1,1.15-.33v1Z"/><path d="M59.94,219.35H57.15v8.38H55.83v-8.38H53V218.2h6.9Z"/></g></g><g id="shape1009-35"><rect class="cls-4" x="90.63" y="83.36" width="91.4" height="29.26"/><g class="cls-2"><path d="M121.37,98.16c0,3-1.32,4.43-4,4.43-2.46,0-3.78-1.47-3.78-4.27V91.91h1.15v6.25c0,2.13.82,3.12,2.63,3.12s2.63-1,2.63-3.12V91.75h1.15v6.41Z"/><path d="M125,101.28h0v4.44h-1.16V94.87H125v1.31h0a3,3,0,0,1,2.63-1.48,3,3,0,0,1,2.3,1,4.21,4.21,0,0,1,.82,2.63,4.9,4.9,0,0,1-.82,3,3,3,0,0,1-2.47,1.15A2.32,2.32,0,0,1,125,101.28Zm0-3v1a2.23,2.23,0,0,0,2.13,2.13,2,2,0,0,0,1.65-.82,4.31,4.31,0,0,0,.65-2.3,3.48,3.48,0,0,0-.49-2,1.59,1.59,0,0,0-1.48-.66,1.88,1.88,0,0,0-1.64.66A2.59,2.59,0,0,0,125,98.32Z"/><path d="M138.79,102.43h-1.15v-1.31h0a2.54,2.54,0,0,1-2.46,1.47,3,3,0,0,1-2.3-1,4.52,4.52,0,0,1-.83-2.63,4.58,4.58,0,0,1,1-3,3.49,3.49,0,0,1,2.47-1.15A2.08,2.08,0,0,1,137.64,96h0v-4.6h1.15ZM137.64,99V97.83a1.6,1.6,0,0,0-.65-1.48,2.48,2.48,0,0,0-1.48-.66,2,2,0,0,0-1.65.82,4.14,4.14,0,0,0-.66,2.14,2.63,2.63,0,0,0,.66,2,2,2,0,0,0,1.65.82,2.11,2.11,0,0,0,1.64-.65A4.08,4.08,0,0,0,137.64,99Z"/><path d="M146.52,102.43h-1.15v-1.15h0a2.62,2.62,0,0,1-2.3,1.31,2.47,2.47,0,0,1-1.81-.65,1.8,1.8,0,0,1-.66-1.48c0-1.32.82-2.14,2.47-2.47l2.14-.33c0-1.31-.5-1.81-1.48-1.81a3.93,3.93,0,0,0-2.47,1V95.69a4.31,4.31,0,0,1,2.47-.66c1.8,0,2.63,1,2.63,2.8v4.6Zm-1.15-3.78-1.81.16a3.12,3.12,0,0,0-1.31.33,1,1,0,0,0-.5,1,1.26,1.26,0,0,0,.33.82,2.28,2.28,0,0,0,1,.33,1.59,1.59,0,0,0,1.48-.66A2.74,2.74,0,0,0,145,99v-.33Z"/><path d="M152.11,102.27a2.5,2.5,0,0,1-1.15.16c-1.32,0-2-.66-2-2.14V95.85h-1.32v-1H149V93.06l1.15-.33v2.14H152v1h-1.81V100a1.35,1.35,0,0,0,.33,1,1.21,1.21,0,0,0,.82.33,1.51,1.51,0,0,0,.82-.16Z"/><path d="M159.67,99h-5.26a2.63,2.63,0,0,0,.66,2,2.25,2.25,0,0,0,1.81.66,4,4,0,0,0,2.3-.82v1.15a4.2,4.2,0,0,1-2.63.66,3.35,3.35,0,0,1-2.47-1,3.81,3.81,0,0,1-.82-2.8,3.85,3.85,0,0,1,1-2.79,3.47,3.47,0,0,1,2.46-1.15,3,3,0,0,1,2.3,1,3.37,3.37,0,0,1,.83,2.63V99Zm-1.15-1a2.74,2.74,0,0,0-.49-1.64,1.87,1.87,0,0,0-1.32-.5,2,2,0,0,0-1.48.66,2.52,2.52,0,0,0-.65,1.65h3.94Z"/></g></g><g id="shape1011-43"><rect class="cls-4" x="109.19" y="209.29" width="62.63" height="29.26"/><g class="cls-2"><path d="M123.49,225.07a4.7,4.7,0,0,1-.16,1.48,2.62,2.62,0,0,1-.66,1.15,3.67,3.67,0,0,1-1,.66,4.23,4.23,0,0,1-1.48.16,3.74,3.74,0,0,1-1.48-.16c-.33-.17-.83-.33-1-.66a1.42,1.42,0,0,1-.49-1,3.09,3.09,0,0,1-.17-1.31v-6.58h1.32v6.25a2.09,2.09,0,0,0,.16,1,.86.86,0,0,0,.33.66,2.17,2.17,0,0,0,.66.49,1.71,1.71,0,0,0,1,.17,1.6,1.6,0,0,0,1.48-.66,2.44,2.44,0,0,0,.5-1.64v-6.25h1.31v6.25Z"/><path d="M131.55,221.78a2.71,2.71,0,0,1-.17,1.15,3.31,3.31,0,0,1-.65,1,2.61,2.61,0,0,1-1.15.65,4.79,4.79,0,0,1-1.65.33h-1.15v3.46h-1.31v-9.54h2.63a3.09,3.09,0,0,1,1.31.17,6.83,6.83,0,0,1,1.15.49,1.91,1.91,0,0,1,.82.82A4,4,0,0,1,131.55,221.78Zm-1.32,0c0-.66-.16-1.15-.65-1.32a2.52,2.52,0,0,0-1.65-.49h-1.31v3.95h1.15a3,3,0,0,0,1.81-.5A2.1,2.1,0,0,0,130.23,221.78Z"/><path d="M139.93,223.42a3.71,3.71,0,0,1-.16,1.32c-.17.49-.17.82-.33,1.15a3.35,3.35,0,0,1-.66,1c-.16.32-.49.49-.82.82s-.82.33-1.31.49a5,5,0,0,1-1.65.17h-2v-9.54h2.46a4,4,0,0,1,3.29,1.15A4.63,4.63,0,0,1,139.93,223.42Zm-1.31.17a4.47,4.47,0,0,0-.17-1.65c-.16-.32-.33-.82-.49-1.15s-.66-.49-1-.65a3.07,3.07,0,0,0-1.31-.17h-1.15v7.24h1C137.63,227.2,138.62,226.05,138.62,223.59Z"/><path d="M148.65,228.36h-1.48l-.66-2.14h-3.95l-.65,2.14h-1.32l3.12-9.54h1.81Zm-2.47-3.29-1.64-5.1-1.65,5.1Z"/><path d="M156.21,220h-2.8v8.39H152.1V220h-2.8v-1.15h6.91Z"/><path d="M163.61,228.36h-5.43v-9.54h5.43V220H159.5v3h3.94v1.15H159.5v3.29h4.11Z"/></g></g><g id="shape1013-51"><rect class="cls-4" x="10.46" y="83.36" width="78.41" height="29.26"/><g class="cls-2"><path d="M42.35,93.06H38.24v3.62H42v1.15H38.24v4.6H37.09V92.07h5.26Z"/><path d="M44.65,93.06a.61.61,0,0,1-.49-.16.63.63,0,0,1-.16-.5.57.57,0,0,1,.65-.65.63.63,0,0,1,.5.16.61.61,0,0,1,.16.49.63.63,0,0,1-.16.5C45.15,93.06,45,93.06,44.65,93.06Zm.66,9.37H44.16V95h1.15Z"/><path d="M53.86,102.43H52.71V98.16c0-1.65-.49-2.31-1.65-2.31a1.59,1.59,0,0,0-1.47.66,3,3,0,0,0-.66,1.65v4.27H47.78V95h1.15v1.15h0a2.55,2.55,0,0,1,2.46-1.48,2.1,2.1,0,0,1,1.81.83,3.17,3.17,0,0,1,.66,2.3Z"/><path d="M62.41,102.43H61.26v-1.31h0a2.56,2.56,0,0,1-2.47,1.47,3,3,0,0,1-2.3-1A4.8,4.8,0,0,1,56.65,96a3.49,3.49,0,0,1,2.47-1.15A2.09,2.09,0,0,1,61.26,96h0v-4.6h1.15ZM61.26,99V97.83a1.61,1.61,0,0,0-.66-1.48,2.43,2.43,0,0,0-1.48-.66,2,2,0,0,0-1.64.82,4.14,4.14,0,0,0-.66,2.14,2.59,2.59,0,0,0,.66,2,2,2,0,0,0,1.64.82,2.1,2.1,0,0,0,1.64-.65A3.94,3.94,0,0,0,61.26,99Z"/></g></g><line class="cls-5" x1="125.37" y1="27.63" x2="148.39" y2="27.63"/><polygon points="146.74 33.22 156.61 27.63 146.74 22.05 146.74 33.22"/><line class="cls-5" x1="73.75" y1="54.76" x2="73.75" y2="129.39"/><polygon points="68.16 127.75 73.75 137.61 79.34 127.75 68.16 127.75"/><line class="cls-5" x1="102.52" y1="62.81" x2="102.52" y2="137.61"/><polygon points="96.93 64.62 102.52 54.76 108.11 64.62 96.93 64.62"/><line class="cls-5" x1="73.75" y1="208.63" x2="73.75" y2="232.3"/><polygon points="68.16 230.66 73.75 240.52 79.34 230.66 68.16 230.66"/><line class="cls-5" x1="102.52" y1="217.34" x2="102.52" y2="240.52"/><polygon points="96.93 218.99 102.52 209.29 108.11 218.99 96.93 218.99"/></svg>