<svg id="Layer_1" data-name="Layer 1" xmlns="http://www.w3.org/2000/svg" width="173.99" height="188.54" viewBox="0 0 173.99 188.54"><defs><style>.cls-1,.cls-3{fill:#fff;stroke-linecap:round;stroke-linejoin:round;}.cls-1,.cls-5{stroke:#000;}.cls-1{stroke-width:0.75px;}.cls-2{isolation:isolate;}.cls-3{stroke:#7f7f7f;}.cls-4,.cls-5{fill:none;}.cls-5{stroke-miterlimit:10;}</style></defs><title>repository</title><g id="shape1001-1"><rect class="cls-1" x="0.38" y="83.82" width="104.3" height="41.7"/><g class="cls-2"><path d="M18.67,107.42v-6.3h1.71c2.2,0,3.29,1,3.29,3.1a2.84,2.84,0,0,1-.9,2.3,3.31,3.31,0,0,1-2.5.9Zm.71-5.7v5h.89a2.43,2.43,0,0,0,2.61-2.6c0-1.6-.9-2.4-2.61-2.4Z"/><path d="M27.17,103.62a.74.74,0,0,0-.5-.1.89.89,0,0,0-.79.4,2.05,2.05,0,0,0-.3,1.2v2.3h-.7v-4.5h.7v.9h0a1.28,1.28,0,0,1,.5-.7.91.91,0,0,1,.7-.3c.2,0,.3,0,.4.1Z"/><path d="M29.88,107.52a2.12,2.12,0,0,1-1.61-.6,2.4,2.4,0,0,1-.6-1.7,2.66,2.66,0,0,1,.6-1.8,2.36,2.36,0,0,1,1.71-.6,2.11,2.11,0,0,1,1.6.6,2.71,2.71,0,0,1,0,3.4A2.19,2.19,0,0,1,29.88,107.52Zm0-4.1a1.47,1.47,0,0,0-1.11.5,1.74,1.74,0,0,0-.39,1.3,1.89,1.89,0,0,0,.39,1.3,1.47,1.47,0,0,0,2.21,0,2.31,2.31,0,0,0,0-2.6A1.09,1.09,0,0,0,29.88,103.42Z"/><path d="M37,107.42h-.7v-2.6c0-1-.3-1.4-1-1.4a1,1,0,0,0-.9.4,1.78,1.78,0,0,0-.4,1v2.6h-.7v-4.5H34v.7h0a1.55,1.55,0,0,1,1.5-.9,1.29,1.29,0,0,1,1.1.5,2,2,0,0,1,.4,1.4Z"/><path d="M42,105.32h-3.2a1.59,1.59,0,0,0,.4,1.2,1.37,1.37,0,0,0,1.1.4,2.39,2.39,0,0,0,1.4-.5v.7a2.52,2.52,0,0,1-1.59.4,2,2,0,0,1-1.5-.6,2.27,2.27,0,0,1-.5-1.7,2.39,2.39,0,0,1,.59-1.7,2.16,2.16,0,0,1,1.5-.7,1.85,1.85,0,0,1,1.41.6,2.07,2.07,0,0,1,.5,1.6v.3Zm-.8-.6a1.68,1.68,0,0,0-.29-1,1.15,1.15,0,0,0-.8-.3,1.26,1.26,0,0,0-.91.4,1.53,1.53,0,0,0-.4,1h2.4Z"/><path d="M50.17,107.42h-.9l-1.1-1.8a1.38,1.38,0,0,0-.29-.4l-.3-.3c-.1-.1-.2-.1-.3-.2s-.2-.1-.4-.1h-.5v2.7h-.71V101h1.91a2.2,2.2,0,0,1,.8.1l.59.3a1.07,1.07,0,0,1,.41.5,1.88,1.88,0,0,1,.09.7,1.39,1.39,0,0,1-.09.6c-.1.2-.21.3-.3.5l-.41.4a1.43,1.43,0,0,1-.59.2h0c.09,0,.2.1.3.2s.2.1.2.2.09.2.2.3.1.2.2.4Zm-3.79-5.7V104h1a.75.75,0,0,0,.5-.1c.09-.1.29-.1.4-.2a1.38,1.38,0,0,0,.3-.4,1,1,0,0,0,.09-.5,1.13,1.13,0,0,0-.29-.8,1.25,1.25,0,0,0-.91-.3Z"/><path d="M54.28,105.32h-3.2a1.56,1.56,0,0,0,.4,1.2,1.37,1.37,0,0,0,1.1.4,2.39,2.39,0,0,0,1.4-.5v.7a2.54,2.54,0,0,1-1.6.4,2,2,0,0,1-1.5-.6,2.31,2.31,0,0,1-.5-1.7,2.35,2.35,0,0,1,.6-1.7,2.13,2.13,0,0,1,1.5-.7,1.82,1.82,0,0,1,1.4.6,2.07,2.07,0,0,1,.5,1.6v.3Zm-.81-.6a1.62,1.62,0,0,0-.3-1,1.13,1.13,0,0,0-.79-.3,1.26,1.26,0,0,0-.91.4,1.53,1.53,0,0,0-.4,1h2.4Z"/><path d="M56.08,106.72h0v2.7h-.7v-6.6h.7v.8h0a1.8,1.8,0,0,1,1.59-.9,1.85,1.85,0,0,1,1.41.6,2.54,2.54,0,0,1,.5,1.6,3,3,0,0,1-.5,1.8,1.82,1.82,0,0,1-1.5.7A1.41,1.41,0,0,1,56.08,106.72Zm0-1.8v.6a1,1,0,0,0,.4.9,1,1,0,0,0,.9.4,1.23,1.23,0,0,0,1-.5,2.59,2.59,0,0,0,.4-1.4,2.13,2.13,0,0,0-.3-1.2,1,1,0,0,0-.9-.4,1.16,1.16,0,0,0-1,.4A1.55,1.55,0,0,0,56.08,104.92Z"/><path d="M62.47,107.52a2.07,2.07,0,0,1-1.59-.6,2.31,2.31,0,0,1-.6-1.7,2.61,2.61,0,0,1,.6-1.8,2.35,2.35,0,0,1,1.7-.6,2.07,2.07,0,0,1,1.59.6,2.69,2.69,0,0,1,0,3.4A2.08,2.08,0,0,1,62.47,107.52Zm.11-4.1a1.43,1.43,0,0,0-1.1.5,1.7,1.7,0,0,0-.4,1.3,1.8,1.8,0,0,0,.4,1.3,1.43,1.43,0,0,0,1.1.5,1.4,1.4,0,0,0,1.09-.5,1.7,1.7,0,0,0,.41-1.3,1.66,1.66,0,0,0-.41-1.3A1.15,1.15,0,0,0,62.58,103.42Z"/><path d="M65.68,107.22v-.8a2,2,0,0,0,1.3.4q.9,0,.9-.6a.37.37,0,0,0-.1-.3c-.1-.1-.1-.2-.2-.2s-.2-.1-.3-.2-.3-.1-.4-.2a1.69,1.69,0,0,0-.5-.2,1.38,1.38,0,0,1-.4-.3c-.1-.1-.2-.2-.2-.3a.75.75,0,0,1-.1-.5,1.27,1.27,0,0,1,.1-.6.78.78,0,0,1,.4-.4,1.07,1.07,0,0,1,.6-.2,1.27,1.27,0,0,1,.6-.1,3,3,0,0,1,1,.2v.7a2,2,0,0,0-1.1-.3h-.4c-.1,0-.2.1-.3.1l-.2.2c0,.1-.1.2-.1.3a.37.37,0,0,0,.1.3.22.22,0,0,0,.2.2c.1.1.2.1.3.2s.3.1.4.2a1.69,1.69,0,0,0,.5.2,1.38,1.38,0,0,1,.4.3l.3.3a.75.75,0,0,1,.1.5,1.27,1.27,0,0,1-.1.6.78.78,0,0,1-.4.4,1.42,1.42,0,0,1-.6.2c-.2,0-.4.1-.7.1A1.38,1.38,0,0,1,65.68,107.22Z"/><path d="M70.07,101.72a.38.38,0,0,1-.3-.1.4.4,0,0,1,.3-.7.4.4,0,0,1,.31.1.54.54,0,0,1,0,.6C70.38,101.72,70.18,101.72,70.07,101.72Zm.4,5.7h-.69v-4.5h.69Z"/><path d="M74,107.32a1.44,1.44,0,0,1-.69.1c-.81,0-1.2-.4-1.2-1.3v-2.6h-.7v-.6h.8v-1.1l.7-.2v1.3H74v.6H72.88V106a.85.85,0,0,0,.19.6.79.79,0,0,0,.5.2.89.89,0,0,0,.5-.1v.6Z"/><path d="M76.88,107.52a2.11,2.11,0,0,1-1.6-.6,2.35,2.35,0,0,1-.6-1.7,2.61,2.61,0,0,1,.6-1.8,2.34,2.34,0,0,1,1.69-.6,2.11,2.11,0,0,1,1.6.6,2.4,2.4,0,0,1-1.69,4.1Zm0-4.1a1.42,1.42,0,0,0-1.1.5,1.66,1.66,0,0,0-.4,1.3,1.8,1.8,0,0,0,.4,1.3,1.43,1.43,0,0,0,1.1.5,1.4,1.4,0,0,0,1.09-.5,2.27,2.27,0,0,0,0-2.6A1.15,1.15,0,0,0,76.88,103.42Z"/><path d="M82.57,103.62a.75.75,0,0,0-.5-.1.91.91,0,0,0-.8.4,2.13,2.13,0,0,0-.3,1.2v2.3h-.7v-4.5H81v.9h0a1.28,1.28,0,0,1,.5-.7.91.91,0,0,1,.7-.3c.2,0,.3,0,.4.1Z"/><path d="M87,102.92l-2.09,5.2c-.41.9-.91,1.4-1.6,1.4a.89.89,0,0,1-.5-.1v-.6a.74.74,0,0,0,.4.1c.4,0,.6-.2.8-.7l.4-.9-1.8-4.5h.8l1.2,3.5a.49.49,0,0,0,.1.3h0a.37.37,0,0,1,.1-.3l1.3-3.5H87Z"/></g></g><g id="shape1002-4"><path class="cls-3" d="M37.69.5h29.7a9,9,0,0,1,9,9v15a9,9,0,0,1-9,9H37.69a9,9,0,0,1-9-9V9.5A9,9,0,0,1,37.69.5Z"/><g class="cls-2"><path d="M41.09,14.3V8h1.7c2.2,0,3.3,1,3.3,3.1a2.87,2.87,0,0,1-.9,2.3,3.33,3.33,0,0,1-2.5.9Zm.7-5.6v5h.9a2.42,2.42,0,0,0,2.6-2.6c0-1.6-.9-2.4-2.6-2.4Z"/><path d="M49.69,10.5a.75.75,0,0,0-.5-.1.91.91,0,0,0-.8.4,2.13,2.13,0,0,0-.3,1.2v2.3h-.7V9.8h.7v.9h0a1.28,1.28,0,0,1,.5-.7.91.91,0,0,1,.7-.3c.2,0,.3,0,.4.1Z"/><path d="M52.29,14.4a2.11,2.11,0,0,1-1.6-.6,2.35,2.35,0,0,1-.6-1.7,2.61,2.61,0,0,1,.6-1.8,2.35,2.35,0,0,1,1.7-.6,2.11,2.11,0,0,1,1.6.6,2.35,2.35,0,0,1,.6,1.7,2.35,2.35,0,0,1-.6,1.7A2.06,2.06,0,0,1,52.29,14.4Zm.1-4.1a1.43,1.43,0,0,0-1.1.5,1.7,1.7,0,0,0-.4,1.3,1.84,1.84,0,0,0,.4,1.3,1.46,1.46,0,0,0,2.2,0,1.7,1.7,0,0,0,.4-1.3,1.7,1.7,0,0,0-.4-1.3A1.61,1.61,0,0,0,52.39,10.3Z"/><path d="M59.49,14.3h-.8V11.7c0-1-.3-1.4-1-1.4a1,1,0,0,0-.9.4,1.78,1.78,0,0,0-.4,1v2.6h-.7V9.8h.7v.7h0a1.55,1.55,0,0,1,1.5-.9,1.29,1.29,0,0,1,1.1.5,2,2,0,0,1,.4,1.4v2.8Z"/><path d="M64.39,12.2h-3.2a1.59,1.59,0,0,0,.4,1.2,1.37,1.37,0,0,0,1.1.4,2.39,2.39,0,0,0,1.4-.5V14a2.54,2.54,0,0,1-1.6.4,2,2,0,0,1-1.5-.6,2.31,2.31,0,0,1-.5-1.7,2.35,2.35,0,0,1,.6-1.7,2.13,2.13,0,0,1,1.5-.7,1.82,1.82,0,0,1,1.4.6,2.07,2.07,0,0,1,.5,1.6v.3Zm-.7-.6a1.69,1.69,0,0,0-.3-1,1.14,1.14,0,0,0-.8-.3,1.22,1.22,0,0,0-.9.4,1.53,1.53,0,0,0-.4,1h2.4Z"/></g><g class="cls-2"><path d="M41.19,26.5h-.6a5.56,5.56,0,0,1-1.4-3.8,6,6,0,0,1,1.4-3.9h.7a6,6,0,0,0-1.4,3.9A5.2,5.2,0,0,0,41.19,26.5Z"/><path d="M45.69,23h-3.2a1.59,1.59,0,0,0,.4,1.2,1.37,1.37,0,0,0,1.1.4,2.39,2.39,0,0,0,1.4-.5v.7a2.54,2.54,0,0,1-1.6.4,2,2,0,0,1-1.5-.6,2.31,2.31,0,0,1-.5-1.7,2.35,2.35,0,0,1,.6-1.7,2.13,2.13,0,0,1,1.5-.7,1.82,1.82,0,0,1,1.4.6,2.07,2.07,0,0,1,.5,1.6V23Zm-.8-.6a1.69,1.69,0,0,0-.3-1,1.14,1.14,0,0,0-.8-.3,1.22,1.22,0,0,0-.9.4,1.53,1.53,0,0,0-.4,1h2.4Z"/><path d="M50.49,25.1h-.7V22.5c0-1-.3-1.4-1-1.4a1,1,0,0,0-.9.4,1.78,1.78,0,0,0-.4,1v2.6h-.7V20.6h.7v.7h0a1.55,1.55,0,0,1,1.5-.9,1.29,1.29,0,0,1,1.1.5,2,2,0,0,1,.4,1.4Z"/><path d="M53.89,25.1a1.48,1.48,0,0,1-.7.1c-.8,0-1.2-.4-1.2-1.3V21.2h-.8v-.6H52V19.5l.7-.2v1.3h1.1v.6h-1.1v2.5a.85.85,0,0,0,.2.6.76.76,0,0,0,.5.2.9.9,0,0,0,.5-.1Z"/><path d="M55.29,19.5a.35.35,0,1,1,.3-.1C55.49,19.4,55.39,19.5,55.29,19.5Zm.3,5.6h-.7V20.6h.7Z"/><path d="M59.19,25.1a1.48,1.48,0,0,1-.7.1c-.8,0-1.2-.4-1.2-1.3V21.2h-.8v-.6h.8V19.5l.7-.2v1.3h1.1v.6H58v2.5a.85.85,0,0,0,.2.6.76.76,0,0,0,.5.2.9.9,0,0,0,.5-.1Z"/><path d="M63.69,20.6l-2.1,5.2c-.4.9-.9,1.4-1.6,1.4a.9.9,0,0,1-.5-.1v-.6a.76.76,0,0,0,.4.1c.4,0,.6-.2.8-.7l.4-.9-1.8-4.5h.8l1.2,3.5a.49.49,0,0,0,.1.3h0a.37.37,0,0,1,.1-.3l1.3-3.5h.9Z"/><path d="M64.49,26.5h-.6a5.94,5.94,0,0,0,1.4-3.8,6,6,0,0,0-1.4-3.9h.7A6,6,0,0,1,66,22.7,6.17,6.17,0,0,1,64.49,26.5Z"/></g></g><g id="shape1003-8"><path class="cls-3" d="M104.39.5h60.1a9,9,0,0,1,9,9v15a9,9,0,0,1-9,9h-60.1a9,9,0,0,1-9-9V9.5A9,9,0,0,1,104.39.5Z"/><g class="cls-2"><path d="M121.59,14.3h-3.2V8h.7v5.6h2.5Z"/><path d="M124.39,14.4a2.11,2.11,0,0,1-1.6-.6,2.35,2.35,0,0,1-.6-1.7,2.61,2.61,0,0,1,.6-1.8,2.35,2.35,0,0,1,1.7-.6,2.11,2.11,0,0,1,1.6.6,2.35,2.35,0,0,1,.6,1.7,2.35,2.35,0,0,1-.6,1.7A2.19,2.19,0,0,1,124.39,14.4Zm0-4.1a1.43,1.43,0,0,0-1.1.5,1.7,1.7,0,0,0-.4,1.3,1.84,1.84,0,0,0,.4,1.3,1.46,1.46,0,0,0,2.2,0,1.7,1.7,0,0,0,.4-1.3,1.7,1.7,0,0,0-.4-1.3A1.43,1.43,0,0,0,124.39,10.3Z"/><path d="M130.79,14.1a2.38,2.38,0,0,1-1.2.3,2.27,2.27,0,0,1-1.6-.6,2.27,2.27,0,0,1-.6-1.6,2.79,2.79,0,0,1,.6-1.8,2.06,2.06,0,0,1,1.7-.7,3,3,0,0,1,1,.2v.7a2.1,2.1,0,0,0-1.1-.4,1.43,1.43,0,0,0-1.1.5,1.84,1.84,0,0,0-.4,1.3,1.59,1.59,0,0,0,.4,1.2,1.43,1.43,0,0,0,1.1.5,1.5,1.5,0,0,0,1.1-.4v.8Z"/><path d="M135.19,14.3h-.8v-.7h0a1.6,1.6,0,0,1-1.4.8,1.5,1.5,0,0,1-1.1-.4,1.09,1.09,0,0,1-.4-.9q0-1.2,1.5-1.5l1.3-.2c0-.8-.3-1.1-.9-1.1a2.4,2.4,0,0,0-1.5.6v-.7a2.6,2.6,0,0,1,1.5-.4c1.1,0,1.6.6,1.6,1.7v2.8Zm-.8-2.3-1.1.1a1.88,1.88,0,0,0-.8.2.6.6,0,0,0-.3.6.76.76,0,0,0,.2.5,1.42,1.42,0,0,0,.6.2,1,1,0,0,0,.9-.4,1.69,1.69,0,0,0,.3-1V12Z"/><path d="M138.59,14.3a1.48,1.48,0,0,1-.7.1c-.8,0-1.2-.4-1.2-1.3V10.4h-.8V9.8h.8V8.7l.7-.2V9.8h1.1v.6h-1.1v2.5a.85.85,0,0,0,.2.6.76.76,0,0,0,.5.2.9.9,0,0,0,.5-.1Z"/><path d="M139.89,8.7a.35.35,0,1,1,.3-.1A.44.44,0,0,1,139.89,8.7Zm.4,5.6h-.7V9.8h.7Z"/><path d="M143.59,14.4a2.11,2.11,0,0,1-1.6-.6,2.35,2.35,0,0,1-.6-1.7,2.61,2.61,0,0,1,.6-1.8,2.35,2.35,0,0,1,1.7-.6,2.11,2.11,0,0,1,1.6.6,2.35,2.35,0,0,1,.6,1.7,2.35,2.35,0,0,1-.6,1.7A2.06,2.06,0,0,1,143.59,14.4Zm.1-4.1a1.43,1.43,0,0,0-1.1.5,1.7,1.7,0,0,0-.4,1.3,1.84,1.84,0,0,0,.4,1.3,1.46,1.46,0,0,0,2.2,0,1.7,1.7,0,0,0,.4-1.3,1.7,1.7,0,0,0-.4-1.3A1.61,1.61,0,0,0,143.69,10.3Z"/><path d="M150.79,14.3h-.7V11.7c0-1-.3-1.4-1-1.4a1,1,0,0,0-.9.4,1.78,1.78,0,0,0-.4,1v2.6h-.7V9.8h.7v.7h0a1.55,1.55,0,0,1,1.5-.9,1.29,1.29,0,0,1,1.1.5,2,2,0,0,1,.4,1.4Z"/></g><g class="cls-2"><path d="M110.39,26.5h-.6a5.56,5.56,0,0,1-1.4-3.8,6,6,0,0,1,1.4-3.9h.6a6,6,0,0,0-1.4,3.9A5.75,5.75,0,0,0,110.39,26.5Z"/><path d="M114.69,20.6l-1.8,4.5h-.7l-1.7-4.5h.8l1.1,3.3c.1.2.1.5.2.6h0c0-.2.1-.4.1-.6l1.2-3.3Z"/><path d="M118.69,25.1H118v-.7h0a1.6,1.6,0,0,1-1.4.8,1.5,1.5,0,0,1-1.1-.4,1.09,1.09,0,0,1-.4-.9q0-1.2,1.5-1.5l1.3-.2c0-.8-.3-1.1-.9-1.1a2.4,2.4,0,0,0-1.5.6V21a2.6,2.6,0,0,1,1.5-.4c1.1,0,1.6.6,1.6,1.7v2.8Zm-.7-2.3-1.1.1a1.88,1.88,0,0,0-.8.2.6.6,0,0,0-.3.6.76.76,0,0,0,.2.5,1.42,1.42,0,0,0,.6.2,1,1,0,0,0,.9-.4,1.69,1.69,0,0,0,.3-1v-.2Z"/><path d="M120.79,25.1h-.7V18.4h.7Z"/><path d="M125.89,25.1h-.7v-.7h0a1.6,1.6,0,0,1-1.4.8c-1.1,0-1.6-.6-1.6-1.9V20.6h.7v2.6c0,.9.4,1.4,1.1,1.4a1.09,1.09,0,0,0,.9-.4,1.69,1.69,0,0,0,.3-1V20.6h.7Z"/><path d="M131,23h-3.2a1.59,1.59,0,0,0,.4,1.2,1.37,1.37,0,0,0,1.1.4,2.39,2.39,0,0,0,1.4-.5v.7a2.54,2.54,0,0,1-1.6.4,2,2,0,0,1-1.5-.6,2.31,2.31,0,0,1-.5-1.7,2.35,2.35,0,0,1,.6-1.7,2.13,2.13,0,0,1,1.5-.7,1.82,1.82,0,0,1,1.4.6,2.07,2.07,0,0,1,.5,1.6V23Zm-.8-.6a1.69,1.69,0,0,0-.3-1,1.14,1.14,0,0,0-.8-.3,1.22,1.22,0,0,0-.9.4,1.53,1.53,0,0,0-.4,1h2.4Z"/><path d="M136.39,25.2a2.11,2.11,0,0,1-1.6-.6,2.35,2.35,0,0,1-.6-1.7,2.61,2.61,0,0,1,.6-1.8,2.35,2.35,0,0,1,1.7-.6,2.11,2.11,0,0,1,1.6.6,2.35,2.35,0,0,1,.6,1.7,2.35,2.35,0,0,1-.6,1.7A2.19,2.19,0,0,1,136.39,25.2Zm.1-4.1a1.43,1.43,0,0,0-1.1.5,1.7,1.7,0,0,0-.4,1.3,1.84,1.84,0,0,0,.4,1.3,1.46,1.46,0,0,0,2.2,0,1.7,1.7,0,0,0,.4-1.3,1.7,1.7,0,0,0-.4-1.3A1.61,1.61,0,0,0,136.49,21.1Z"/><path d="M140.49,24.4h0v.7h-.7V18.4h.7v3h0a1.9,1.9,0,0,1,3-.3,2.54,2.54,0,0,1,.5,1.6,3,3,0,0,1-.5,1.8,1.8,1.8,0,0,1-1.5.7A1.48,1.48,0,0,1,140.49,24.4Zm0-1.8v.6a1.37,1.37,0,0,0,1.3,1.3,1.23,1.23,0,0,0,1-.5,2.59,2.59,0,0,0,.4-1.4,2.13,2.13,0,0,0-.3-1.2,1,1,0,0,0-.9-.4,1.16,1.16,0,0,0-1,.4A2.08,2.08,0,0,0,140.49,22.6Z"/><path d="M145.79,24.9a2.86,2.86,0,0,1-.4,1.7,1.49,1.49,0,0,1-1.3.6,1.27,1.27,0,0,1-.6-.1v-.7a1.42,1.42,0,0,0,.6.2c.7,0,1-.5,1-1.6V20.6h.7Zm-.3-5.4a.35.35,0,1,1,.3-.1C145.69,19.4,145.59,19.5,145.49,19.5Z"/><path d="M150.89,23h-3.2a1.59,1.59,0,0,0,.4,1.2,1.37,1.37,0,0,0,1.1.4,2.39,2.39,0,0,0,1.4-.5v.7a2.54,2.54,0,0,1-1.6.4,2,2,0,0,1-1.5-.6,2.31,2.31,0,0,1-.5-1.7,2.35,2.35,0,0,1,.6-1.7,2.13,2.13,0,0,1,1.5-.7,1.82,1.82,0,0,1,1.4.6,2.07,2.07,0,0,1,.5,1.6V23Zm-.7-.6a1.69,1.69,0,0,0-.3-1,1.14,1.14,0,0,0-.8-.3,1.22,1.22,0,0,0-.9.4,1.53,1.53,0,0,0-.4,1h2.4Z"/><path d="M155,24.9a2.38,2.38,0,0,1-1.2.3,2.06,2.06,0,0,1-2.2-2.2,2.79,2.79,0,0,1,.6-1.8,2.06,2.06,0,0,1,1.7-.7,3,3,0,0,1,1,.2v.7a2.1,2.1,0,0,0-1.1-.4,1.43,1.43,0,0,0-1.1.5,1.84,1.84,0,0,0-.4,1.3,1.59,1.59,0,0,0,.4,1.2,1.43,1.43,0,0,0,1.1.5,1.5,1.5,0,0,0,1.1-.4v.8Z"/><path d="M158.19,25.1a1.48,1.48,0,0,1-.7.1c-.8,0-1.2-.4-1.2-1.3V21.2h-.8v-.6h.9V19.5l.7-.2v1.3h1.1v.6h-1.1v2.5a.85.85,0,0,0,.2.6.76.76,0,0,0,.5.2.9.9,0,0,0,.5-.1v.7Z"/><path d="M159.19,26.5h-.6a5.94,5.94,0,0,0,1.4-3.8,6,6,0,0,0-1.4-3.9h.7a6,6,0,0,1,1.4,3.9A6.17,6.17,0,0,1,159.19,26.5Z"/></g></g><g id="shape1005-18"><rect class="cls-1" x="0.38" y="146.47" width="104.3" height="41.7"/><g class="cls-2"><path d="M32.88,170.07v-6.3h1.7c2.2,0,3.3,1,3.3,3.1a2.84,2.84,0,0,1-.91,2.3,3.31,3.31,0,0,1-2.5.9Zm.7-5.7v5h.9a2.42,2.42,0,0,0,2.6-2.6c0-1.6-.9-2.4-2.6-2.4Z"/><path d="M42.28,170.07h-.7v-.7h0a1.6,1.6,0,0,1-1.41.8,1.48,1.48,0,0,1-1.09-.4,1.1,1.1,0,0,1-.41-.9q0-1.2,1.5-1.5l1.3-.2c0-.8-.3-1.1-.9-1.1a2.4,2.4,0,0,0-1.5.6V166a2.6,2.6,0,0,1,1.5-.4c1.1,0,1.6.6,1.6,1.7v2.8Zm-.7-2.3-1.1.1a1.88,1.88,0,0,0-.8.2.6.6,0,0,0-.3.6.76.76,0,0,0,.2.5,1.42,1.42,0,0,0,.6.2,1,1,0,0,0,.9-.4,1.69,1.69,0,0,0,.3-1v-.2Z"/><path d="M45.78,170a1.48,1.48,0,0,1-.7.1c-.8,0-1.2-.4-1.2-1.3v-2.6h-.8v-.6h.8v-1.1l.7-.2v1.3h1.09v.6H44.58v2.5a.8.8,0,0,0,.2.6.76.76,0,0,0,.5.2.9.9,0,0,0,.5-.1Z"/><path d="M50,170.07h-.7v-.7h0a1.6,1.6,0,0,1-1.4.8,1.5,1.5,0,0,1-1.1-.4,1.09,1.09,0,0,1-.4-.9q0-1.2,1.5-1.5l1.3-.2c0-.8-.3-1.1-.9-1.1a2.4,2.4,0,0,0-1.5.6V166a2.6,2.6,0,0,1,1.5-.4c1.1,0,1.6.6,1.6,1.7v2.8Zm-.8-2.3-1.09.1a1.88,1.88,0,0,0-.8.2.6.6,0,0,0-.3.6.76.76,0,0,0,.2.5,1.42,1.42,0,0,0,.6.2,1,1,0,0,0,.9-.4,1.69,1.69,0,0,0,.3-1v-.2Z"/><path d="M53.47,169.87v-.8a2,2,0,0,0,1.3.4q.9,0,.9-.6a.39.39,0,0,0-.09-.3c-.1-.1-.1-.2-.2-.2s-.21-.1-.3-.2-.3-.1-.41-.2a1.69,1.69,0,0,0-.5-.2,1.54,1.54,0,0,1-.4-.3c-.1-.1-.2-.2-.2-.3a.75.75,0,0,1-.1-.5,1.27,1.27,0,0,1,.1-.6.78.78,0,0,1,.4-.4,1.07,1.07,0,0,1,.6-.2,1.27,1.27,0,0,1,.6-.1,3,3,0,0,1,1,.2v.7a2,2,0,0,0-1.1-.3h-.4c-.1,0-.2.1-.3.1l-.2.2c0,.1-.1.2-.1.3a.37.37,0,0,0,.1.3.22.22,0,0,0,.2.2c.1.1.2.1.3.2s.3.1.4.2a1.69,1.69,0,0,0,.5.2,1.38,1.38,0,0,1,.4.3l.3.3a.75.75,0,0,1,.1.5,1.27,1.27,0,0,1-.1.6.78.78,0,0,1-.4.4,1.42,1.42,0,0,1-.6.2c-.19,0-.4.1-.7.1A1.55,1.55,0,0,1,53.47,169.87Z"/><path d="M59.67,170a1.48,1.48,0,0,1-.7.1c-.8,0-1.2-.4-1.2-1.3v-2.6H57v-.6h.8v-1.1l.7-.2v1.3h1.1v.6h-1.1v2.5a.85.85,0,0,0,.2.6.79.79,0,0,0,.5.2.89.89,0,0,0,.5-.1Z"/><path d="M62.47,170.17a2.07,2.07,0,0,1-1.59-.6,2.31,2.31,0,0,1-.6-1.7,2.61,2.61,0,0,1,.6-1.8,2.35,2.35,0,0,1,1.7-.6,2.07,2.07,0,0,1,1.59.6,2.69,2.69,0,0,1,0,3.4A2.08,2.08,0,0,1,62.47,170.17Zm.11-4.1a1.43,1.43,0,0,0-1.1.5,1.7,1.7,0,0,0-.4,1.3,1.8,1.8,0,0,0,.4,1.3,1.43,1.43,0,0,0,1.1.5,1.4,1.4,0,0,0,1.09-.5,1.7,1.7,0,0,0,.41-1.3,1.66,1.66,0,0,0-.41-1.3A1.15,1.15,0,0,0,62.58,166.07Z"/><path d="M68.28,166.27a.76.76,0,0,0-.5-.1.93.93,0,0,0-.81.4,2.22,2.22,0,0,0-.3,1.2v2.3H66v-4.5h.7v.9h0a1.28,1.28,0,0,1,.5-.7.91.91,0,0,1,.7-.3c.2,0,.3,0,.4.1Z"/><path d="M72.68,168h-3.2a1.59,1.59,0,0,0,.4,1.2,1.37,1.37,0,0,0,1.1.4,2.39,2.39,0,0,0,1.4-.5v.7a2.54,2.54,0,0,1-1.6.4,2,2,0,0,1-1.5-.6,2.31,2.31,0,0,1-.5-1.7,2.35,2.35,0,0,1,.6-1.7,2.13,2.13,0,0,1,1.5-.7,1.82,1.82,0,0,1,1.4.6,2.07,2.07,0,0,1,.5,1.6v.3Zm-.8-.6a1.63,1.63,0,0,0-.31-1,1.12,1.12,0,0,0-.8-.3,1.22,1.22,0,0,0-.9.4,1.53,1.53,0,0,0-.4,1h2.41Z"/></g></g><g id="shape1007-27"><rect class="cls-4" x="3.11" y="127.13" width="38.1" height="17.8"/><g class="cls-2"><path d="M11.71,137.13a1.45,1.45,0,0,1-.2.7,1.21,1.21,0,0,1-.5.5,4.88,4.88,0,0,1-.7.3,2.77,2.77,0,0,1-.9.1h-.9a.6.6,0,0,1-.4-.1c-.1-.1-.2,0-.3-.1v-.8c.2.1.5.1.7.2s.6.1.9.1.5,0,.6-.1a.52.52,0,0,0,.4-.2c.1-.1.2-.2.2-.3s.1-.2.1-.4,0-.3-.1-.4l-.3-.3a.76.76,0,0,0-.5-.2c-.2-.1-.4-.1-.6-.2a1.42,1.42,0,0,0-.6-.2c-.2-.1-.3-.2-.5-.3s-.3-.3-.3-.4-.1-.4-.1-.6a1.27,1.27,0,0,1,.1-.6,1,1,0,0,1,.4-.5,4.35,4.35,0,0,1,.7-.4,3.08,3.08,0,0,1,1-.1h.6a.37.37,0,0,1,.3.1.37.37,0,0,1,.3.1v.7a1.7,1.7,0,0,0-.7-.1c-.2,0-.4-.1-.7-.1a2.51,2.51,0,0,0-1,.2.71.71,0,0,0-.3.6c0,.2,0,.3.1.4l.3.3a.76.76,0,0,0,.5.2c.2.1.4.1.6.2l.6.3c.2.1.3.2.5.3s.3.3.3.4C11.61,136.73,11.71,136.93,11.71,137.13Z"/><path d="M16.41,138.73h-3.3v-5.8h3.3v.7h-2.5v1.8h2.4v.7h-2.4v2h2.5Z"/><path d="M21.51,138.73h-3.3v-5.8H19V138h2.5Z"/><path d="M26.31,138.73H23v-5.8h3.3v.7h-2.5v1.8h2.4v.7h-2.4v2h2.5Z"/><path d="M31.51,138.53a3.53,3.53,0,0,1-1.4.3,2.49,2.49,0,0,1-1.9-.7,3.39,3.39,0,0,1-.7-2.2,3.73,3.73,0,0,1,.2-1.2,1.93,1.93,0,0,1,.5-.9,1.56,1.56,0,0,1,.8-.6,3.59,3.59,0,0,1,1.1-.2,1.48,1.48,0,0,1,.7.1,2.54,2.54,0,0,1,.7.2v.8l-.6-.3a1.7,1.7,0,0,0-.7-.1.84.84,0,0,0-.7.2,2.09,2.09,0,0,0-.6.4,1.61,1.61,0,0,0-.4.7,2.77,2.77,0,0,0-.1.9,2.86,2.86,0,0,0,.5,1.7,1.49,1.49,0,0,0,1.3.6,1.7,1.7,0,0,0,.7-.1,6.37,6.37,0,0,1,.7-.2v.6Z"/><path d="M36.61,133.63h-1.7v5.1h-.8v-5.1h-1.7v-.7h4.2Z"/></g></g><g id="shape1009-35"><rect class="cls-4" x="55.28" y="50.9" width="55.6" height="17.8"/><g class="cls-2"><path d="M74,59.9q0,2.7-2.4,2.7c-1.5,0-2.3-.9-2.3-2.59V56.1H70v3.8c0,1.3.5,1.9,1.6,1.9s1.6-.59,1.6-1.9V56h.7v3.9Z"/><path d="M76.18,61.8h0v2.7h-.7V57.9h.7v.8h0a1.9,1.9,0,0,1,3-.3,2.54,2.54,0,0,1,.5,1.6,3,3,0,0,1-.5,1.8,1.8,1.8,0,0,1-1.5.7A1.41,1.41,0,0,1,76.18,61.8Zm0-1.8v.6a1.37,1.37,0,0,0,1.3,1.3,1.23,1.23,0,0,0,1-.5,2.59,2.59,0,0,0,.4-1.4,2.13,2.13,0,0,0-.3-1.2,1,1,0,0,0-.9-.4,1.16,1.16,0,0,0-1,.4A1.58,1.58,0,0,0,76.18,60Z"/><path d="M84.58,62.5h-.7v-.8h0a1.55,1.55,0,0,1-1.5.9A1.84,1.84,0,0,1,81,62a2.91,2.91,0,0,1,.1-3.4,2.13,2.13,0,0,1,1.5-.7,1.27,1.27,0,0,1,1.3.7h0v-2.8h.7Zm-.7-2.1v-.7a1,1,0,0,0-.4-.9,1.49,1.49,0,0,0-.9-.4,1.23,1.23,0,0,0-1,.5,2.5,2.5,0,0,0-.4,1.3,1.59,1.59,0,0,0,.4,1.2,1.23,1.23,0,0,0,1,.5,1.28,1.28,0,0,0,1-.4A2.43,2.43,0,0,0,83.88,60.4Z"/><path d="M89.28,62.5h-.7v-.7h0a1.6,1.6,0,0,1-1.4.8,1.5,1.5,0,0,1-1.1-.4,1.09,1.09,0,0,1-.4-.9q0-1.2,1.5-1.5l1.3-.2c0-.8-.3-1.1-.9-1.1a2.4,2.4,0,0,0-1.5.6v-.7a2.6,2.6,0,0,1,1.5-.4c1.1,0,1.6.6,1.6,1.7v2.8Zm-.7-2.3-1.1.1a1.88,1.88,0,0,0-.8.2.6.6,0,0,0-.3.6.76.76,0,0,0,.2.5,1.42,1.42,0,0,0,.6.2,1,1,0,0,0,.9-.4,1.69,1.69,0,0,0,.3-1v-.2Z"/><path d="M92.68,62.4a1.48,1.48,0,0,1-.7.1c-.8,0-1.2-.4-1.2-1.3V58.5H90v-.6h.8V56.8l.7-.2v1.3h1.1v.6h-1.1V61a.85.85,0,0,0,.2.6.76.76,0,0,0,.5.2.9.9,0,0,0,.5-.1Z"/><path d="M97.28,60.4h-3.2a1.59,1.59,0,0,0,.4,1.2,1.37,1.37,0,0,0,1.1.41,2.46,2.46,0,0,0,1.4-.5v.7a2.54,2.54,0,0,1-1.6.4,2,2,0,0,1-1.5-.6,2.31,2.31,0,0,1-.5-1.7,2.35,2.35,0,0,1,.6-1.7,2.13,2.13,0,0,1,1.5-.7,1.82,1.82,0,0,1,1.4.6,2,2,0,0,1,.5,1.59v.3Zm-.7-.6a1.69,1.69,0,0,0-.3-1,1.14,1.14,0,0,0-.8-.3,1.22,1.22,0,0,0-.9.4,1.53,1.53,0,0,0-.4,1h2.4Z"/></g></g><g id="shape1011-43"><rect class="cls-4" x="66.57" y="127.51" width="38.1" height="17.8"/><g class="cls-2"><path d="M75.27,137.11a2.77,2.77,0,0,1-.1.9,1.61,1.61,0,0,1-.4.7,2.09,2.09,0,0,1-.6.4,2.48,2.48,0,0,1-.9.1,2.22,2.22,0,0,1-.9-.1c-.2-.1-.5-.2-.6-.4a.86.86,0,0,1-.3-.6,2,2,0,0,1-.1-.8v-4h.8v3.8a1.27,1.27,0,0,0,.1.6.52.52,0,0,0,.2.4,1.38,1.38,0,0,0,.4.3,1.08,1.08,0,0,0,.6.1,1,1,0,0,0,.9-.4,1.49,1.49,0,0,0,.3-1v-3.8h.8v3.8Z"/><path d="M80.17,135.11a1.7,1.7,0,0,1-.1.7,2.09,2.09,0,0,1-.4.6,1.61,1.61,0,0,1-.7.4,3,3,0,0,1-1,.2h-.7v2.1h-.8v-5.8h1.6a2,2,0,0,1,.8.1,4.88,4.88,0,0,1,.7.3,1.21,1.21,0,0,1,.5.5A2.48,2.48,0,0,1,80.17,135.11Zm-.8,0c0-.4-.1-.7-.4-.8a1.49,1.49,0,0,0-1-.3h-.8v2.4h.7a1.8,1.8,0,0,0,1.1-.3A1.28,1.28,0,0,0,79.37,135.11Z"/><path d="M85.27,136.11a2.2,2.2,0,0,1-.1.8,6.37,6.37,0,0,1-.2.7,2.09,2.09,0,0,1-.4.6c-.1.2-.3.3-.5.5s-.5.2-.8.3a3.08,3.08,0,0,1-1,.1h-1.2v-5.8h1.5a2.44,2.44,0,0,1,2,.7A2.82,2.82,0,0,1,85.27,136.11Zm-.8.1a2.79,2.79,0,0,0-.1-1c-.1-.2-.2-.5-.3-.7s-.4-.3-.6-.4a2,2,0,0,0-.8-.1H82v4.4h.6C83.87,138.41,84.47,137.71,84.47,136.21Z"/><path d="M90.57,139.11h-.9l-.4-1.3h-2.4l-.4,1.3h-.8l1.9-5.8h1.1Zm-1.5-2-1-3.1-1,3.1Z"/><path d="M95.17,134h-1.7v5.1h-.8V134H91v-.7h4.2Z"/><path d="M99.67,139.11h-3.3v-5.8h3.3v.7h-2.5v1.8h2.4v.7h-2.4v2h2.5Z"/></g></g><g id="shape1013-51"><rect class="cls-4" x="6.51" y="50.9" width="47.7" height="17.8"/><g class="cls-2"><path d="M25.91,56.8h-2.5V59h2.3v.7h-2.3v2.8h-.7V56.2h3.2Z"/><path d="M27.31,56.8a.43.43,0,0,1-.3-.7.55.55,0,0,1,.6,0,.5.5,0,0,1,0,.6C27.61,56.8,27.51,56.8,27.31,56.8Zm.4,5.7H27V58h.7Z"/><path d="M32.91,62.5h-.7V59.9c0-1-.3-1.4-1-1.4a1,1,0,0,0-.9.4,1.78,1.78,0,0,0-.4,1v2.6h-.7V58h.7v.7h0a1.55,1.55,0,0,1,1.5-.9,1.29,1.29,0,0,1,1.1.5,2,2,0,0,1,.4,1.4Z"/><path d="M38.11,62.5h-.7v-.8h0a1.55,1.55,0,0,1-1.5.9,1.84,1.84,0,0,1-1.4-.59,2.91,2.91,0,0,1,.1-3.4,2.13,2.13,0,0,1,1.5-.7,1.27,1.27,0,0,1,1.3.7h0v-2.8h.7Zm-.7-2.1v-.7a1,1,0,0,0-.4-.9,1.49,1.49,0,0,0-.9-.4,1.23,1.23,0,0,0-1,.5,2.5,2.5,0,0,0-.4,1.3,1.59,1.59,0,0,0,.4,1.2,1.23,1.23,0,0,0,1,.5,1.28,1.28,0,0,0,1-.4A2.43,2.43,0,0,0,37.41,60.4Z"/></g></g><line class="cls-5" x1="76.41" y1="17.01" x2="90.41" y2="17.01"/><polygon points="89.41 20.41 95.41 17.01 89.41 13.61 89.41 20.41"/><line class="cls-5" x1="45.01" y1="33.51" x2="45.01" y2="78.91"/><polygon points="41.61 77.91 45.01 83.91 48.41 77.91 41.61 77.91"/><line class="cls-5" x1="62.51" y1="38.41" x2="62.51" y2="83.91"/><polygon points="59.11 39.51 62.51 33.51 65.91 39.51 59.11 39.51"/><line class="cls-5" x1="45.01" y1="127.11" x2="45.01" y2="141.51"/><polygon points="41.61 140.51 45.01 146.51 48.41 140.51 41.61 140.51"/><line class="cls-5" x1="62.51" y1="132.41" x2="62.51" y2="146.51"/><polygon points="59.11 133.41 62.51 127.51 65.91 133.41 59.11 133.41"/></svg>