<?xml version="1.0" encoding="utf-8"?>
<!-- Generator: Adobe Illustrator 22.0.1, SVG Export Plug-In . SVG Version: 6.00 Build 0)  -->
<svg version="1.1"
	 id="Layer_1" xmlns:ev="http://www.w3.org/2001/xml-events" xmlns:v="http://schemas.microsoft.com/visio/2003/SVGExtensions/"
	 xmlns="http://www.w3.org/2000/svg" xmlns:xlink="http://www.w3.org/1999/xlink" x="0px" y="0px" viewBox="0 0 612 792"
	 style="enable-background:new 0 0 612 792;" xml:space="preserve">
<style type="text/css">
	.st0{fill:#FFFFFF;stroke:#000000;stroke-width:0.75;stroke-linecap:round;stroke-linejoin:round;stroke-miterlimit:3;}
	.st1{enable-background:new    ;}
	.st2{fill:#FFFFFF;stroke:#7F7F7F;stroke-linecap:round;stroke-linejoin:round;stroke-miterlimit:3;}
	.st3{fill:none;}
	.st4{fill:none;stroke:#000000;stroke-miterlimit:10;}
</style>
<v:documentProperties  v:langID="1033" v:viewMarkup="false">
	<v:userDefs>
		<v:ud  v:nameU="msvNoAutoConnect" v:val="VT0(1):26"></v:ud>
	</v:userDefs>
</v:documentProperties>
<title>Page-5</title>
<v:pageProperties  v:drawingScale="1" v:drawingUnits="19" v:pageScale="1" v:shadowOffsetX="9" v:shadowOffsetY="-9">
	</v:pageProperties>
<g id="shape1001-1" transform="translate(191.364,-553.485)">
	<title>Sheet.1001</title>
	<desc>Drone Repository</desc>
	<v:textBlock  v:margins="rect(4,4,4,4)"></v:textBlock>
	<v:textRect  cx="52.1528" cy="771.17" height="41.6606" width="104.31"></v:textRect>
	<rect x="0" y="750.3" class="st0" width="104.3" height="41.7"/>
	<g class="st1">
		<path d="M18.3,773.9v-6.3H20c2.2,0,3.3,1,3.3,3.1c0,1-0.3,1.8-0.9,2.3c-0.6,0.6-1.4,0.9-2.5,0.9H18.3z M19,768.2v5h0.9
			c0.8,0,1.5-0.2,1.9-0.7c0.5-0.4,0.7-1.1,0.7-1.9c0-1.6-0.9-2.4-2.6-2.4H19z"/>
		<path d="M26.8,770.1c-0.1-0.1-0.3-0.1-0.5-0.1c-0.3,0-0.6,0.1-0.8,0.4c-0.2,0.3-0.3,0.7-0.3,1.2v2.3h-0.7v-4.5h0.7v0.9h0
			c0.1-0.3,0.3-0.6,0.5-0.7c0.2-0.2,0.4-0.3,0.7-0.3c0.2,0,0.3,0,0.4,0.1V770.1z"/>
		<path d="M29.5,774c-0.7,0-1.2-0.2-1.6-0.6c-0.4-0.4-0.6-1-0.6-1.7c0-0.8,0.2-1.3,0.6-1.8c0.4-0.4,1-0.6,1.7-0.6
			c0.7,0,1.2,0.2,1.6,0.6c0.4,0.4,0.6,1,0.6,1.7c0,0.7-0.2,1.3-0.6,1.7C30.7,773.8,30.2,774,29.5,774z M29.5,769.9
			c-0.5,0-0.8,0.2-1.1,0.5c-0.3,0.3-0.4,0.7-0.4,1.3c0,0.5,0.1,1,0.4,1.3c0.3,0.3,0.6,0.5,1.1,0.5c0.5,0,0.8-0.2,1.1-0.5
			c0.3-0.3,0.4-0.7,0.4-1.3c0-0.6-0.1-1-0.4-1.3C30.4,770,30,769.9,29.5,769.9z"/>
		<path d="M36.6,773.9h-0.7v-2.6c0-1-0.3-1.4-1-1.4c-0.4,0-0.7,0.1-0.9,0.4c-0.2,0.3-0.4,0.6-0.4,1v2.6h-0.7v-4.5h0.7v0.7h0
			c0.3-0.6,0.8-0.9,1.5-0.9c0.5,0,0.9,0.2,1.1,0.5c0.3,0.3,0.4,0.8,0.4,1.4V773.9z"/>
		<path d="M41.6,771.8h-3.2c0,0.5,0.1,0.9,0.4,1.2c0.3,0.3,0.6,0.4,1.1,0.4c0.5,0,1-0.2,1.4-0.5v0.7c-0.4,0.3-0.9,0.4-1.6,0.4
			c-0.6,0-1.1-0.2-1.5-0.6c-0.4-0.4-0.5-1-0.5-1.7c0-0.7,0.2-1.3,0.6-1.7c0.4-0.4,0.9-0.7,1.5-0.7s1,0.2,1.4,0.6s0.5,0.9,0.5,1.6
			V771.8z M40.8,771.2c0-0.4-0.1-0.7-0.3-1c-0.2-0.2-0.5-0.3-0.8-0.3c-0.3,0-0.6,0.1-0.9,0.4c-0.2,0.2-0.4,0.6-0.4,1H40.8z"/>
		<path d="M49.8,773.9h-0.9l-1.1-1.8c-0.1-0.2-0.2-0.3-0.3-0.4c-0.1-0.1-0.2-0.2-0.3-0.3s-0.2-0.1-0.3-0.2c-0.1,0-0.2-0.1-0.4-0.1
			H46v2.7h-0.7v-6.3h1.9c0.3,0,0.5,0,0.8,0.1c0.2,0.1,0.4,0.2,0.6,0.3c0.2,0.1,0.3,0.3,0.4,0.5c0.1,0.2,0.1,0.5,0.1,0.7
			c0,0.2,0,0.4-0.1,0.6c-0.1,0.2-0.2,0.3-0.3,0.5c-0.1,0.1-0.3,0.3-0.4,0.4c-0.2,0.1-0.4,0.2-0.6,0.2v0c0.1,0,0.2,0.1,0.3,0.2
			c0.1,0.1,0.2,0.1,0.2,0.2s0.1,0.2,0.2,0.3c0.1,0.1,0.1,0.2,0.2,0.4L49.8,773.9z M46,768.2v2.3h1c0.2,0,0.4,0,0.5-0.1
			s0.3-0.1,0.4-0.2c0.1-0.1,0.2-0.2,0.3-0.4c0.1-0.2,0.1-0.3,0.1-0.5c0-0.3-0.1-0.6-0.3-0.8c-0.2-0.2-0.5-0.3-0.9-0.3H46z"/>
		<path d="M53.9,771.8h-3.2c0,0.5,0.1,0.9,0.4,1.2c0.3,0.3,0.6,0.4,1.1,0.4c0.5,0,1-0.2,1.4-0.5v0.7c-0.4,0.3-0.9,0.4-1.6,0.4
			c-0.6,0-1.1-0.2-1.5-0.6c-0.4-0.4-0.5-1-0.5-1.7c0-0.7,0.2-1.3,0.6-1.7c0.4-0.4,0.9-0.7,1.5-0.7s1,0.2,1.4,0.6s0.5,0.9,0.5,1.6
			V771.8z M53.1,771.2c0-0.4-0.1-0.7-0.3-1c-0.2-0.2-0.5-0.3-0.8-0.3c-0.3,0-0.6,0.1-0.9,0.4c-0.2,0.2-0.4,0.6-0.4,1H53.1z"/>
		<path d="M55.7,773.2L55.7,773.2l0,2.7H55v-6.6h0.7v0.8h0c0.4-0.6,0.9-0.9,1.6-0.9c0.6,0,1,0.2,1.4,0.6c0.3,0.4,0.5,0.9,0.5,1.6
			c0,0.8-0.2,1.4-0.5,1.8c-0.4,0.5-0.9,0.7-1.5,0.7C56.5,774,56,773.7,55.7,773.2z M55.7,771.4v0.6c0,0.4,0.1,0.7,0.4,0.9
			c0.2,0.3,0.5,0.4,0.9,0.4c0.4,0,0.8-0.2,1-0.5c0.2-0.3,0.4-0.8,0.4-1.4c0-0.5-0.1-0.9-0.3-1.2s-0.5-0.4-0.9-0.4
			c-0.4,0-0.8,0.1-1,0.4C55.8,770.6,55.7,771,55.7,771.4z"/>
		<path d="M62.1,774c-0.7,0-1.2-0.2-1.6-0.6c-0.4-0.4-0.6-1-0.6-1.7c0-0.8,0.2-1.3,0.6-1.8c0.4-0.4,1-0.6,1.7-0.6
			c0.7,0,1.2,0.2,1.6,0.6c0.4,0.4,0.6,1,0.6,1.7c0,0.7-0.2,1.3-0.6,1.7C63.4,773.8,62.8,774,62.1,774z M62.2,769.9
			c-0.5,0-0.8,0.2-1.1,0.5c-0.3,0.3-0.4,0.7-0.4,1.3c0,0.5,0.1,1,0.4,1.3c0.3,0.3,0.6,0.5,1.1,0.5c0.5,0,0.8-0.2,1.1-0.5
			c0.3-0.3,0.4-0.7,0.4-1.3c0-0.6-0.1-1-0.4-1.3C63,770,62.7,769.9,62.2,769.9z"/>
		<path d="M65.3,773.7v-0.8c0.4,0.3,0.8,0.4,1.3,0.4c0.6,0,0.9-0.2,0.9-0.6c0-0.1,0-0.2-0.1-0.3c-0.1-0.1-0.1-0.2-0.2-0.2
			c-0.1-0.1-0.2-0.1-0.3-0.2c-0.1-0.1-0.3-0.1-0.4-0.2c-0.2-0.1-0.4-0.2-0.5-0.2c-0.2-0.1-0.3-0.2-0.4-0.3c-0.1-0.1-0.2-0.2-0.2-0.3
			c-0.1-0.1-0.1-0.3-0.1-0.5c0-0.2,0-0.4,0.1-0.6c0.1-0.2,0.2-0.3,0.4-0.4c0.2-0.1,0.3-0.2,0.6-0.2c0.2-0.1,0.4-0.1,0.6-0.1
			c0.4,0,0.7,0.1,1,0.2v0.7c-0.3-0.2-0.7-0.3-1.1-0.3c-0.1,0-0.3,0-0.4,0c-0.1,0-0.2,0.1-0.3,0.1c-0.1,0.1-0.1,0.1-0.2,0.2
			c0,0.1-0.1,0.2-0.1,0.3c0,0.1,0,0.2,0.1,0.3c0,0.1,0.1,0.2,0.2,0.2c0.1,0.1,0.2,0.1,0.3,0.2s0.3,0.1,0.4,0.2
			c0.2,0.1,0.4,0.2,0.5,0.2c0.2,0.1,0.3,0.2,0.4,0.3c0.1,0.1,0.2,0.2,0.3,0.3c0.1,0.1,0.1,0.3,0.1,0.5c0,0.2,0,0.4-0.1,0.6
			c-0.1,0.2-0.2,0.3-0.4,0.4s-0.4,0.2-0.6,0.2s-0.4,0.1-0.7,0.1C66,774,65.6,773.9,65.3,773.7z"/>
		<path d="M69.7,768.2c-0.1,0-0.2,0-0.3-0.1s-0.1-0.2-0.1-0.3s0-0.2,0.1-0.3c0.1-0.1,0.2-0.1,0.3-0.1c0.1,0,0.2,0,0.3,0.1
			c0.1,0.1,0.1,0.2,0.1,0.3c0,0.1,0,0.2-0.1,0.3C70,768.2,69.8,768.2,69.7,768.2z M70.1,773.9h-0.7v-4.5h0.7V773.9z"/>
		<path d="M73.6,773.8c-0.2,0.1-0.4,0.1-0.7,0.1c-0.8,0-1.2-0.4-1.2-1.3V770H71v-0.6h0.8v-1.1l0.7-0.2v1.3h1.1v0.6h-1.1v2.5
			c0,0.3,0.1,0.5,0.2,0.6s0.3,0.2,0.5,0.2c0.2,0,0.3,0,0.5-0.1V773.8z"/>
		<path d="M76.5,774c-0.7,0-1.2-0.2-1.6-0.6c-0.4-0.4-0.6-1-0.6-1.7c0-0.8,0.2-1.3,0.6-1.8c0.4-0.4,1-0.6,1.7-0.6
			c0.7,0,1.2,0.2,1.6,0.6c0.4,0.4,0.6,1,0.6,1.7c0,0.7-0.2,1.3-0.6,1.7C77.7,773.8,77.1,774,76.5,774z M76.5,769.9
			c-0.5,0-0.8,0.2-1.1,0.5c-0.3,0.3-0.4,0.7-0.4,1.3c0,0.5,0.1,1,0.4,1.3c0.3,0.3,0.6,0.5,1.1,0.5c0.5,0,0.8-0.2,1.1-0.5
			c0.3-0.3,0.4-0.7,0.4-1.3c0-0.6-0.1-1-0.4-1.3C77.3,770,77,769.9,76.5,769.9z"/>
		<path d="M82.2,770.1c-0.1-0.1-0.3-0.1-0.5-0.1c-0.3,0-0.6,0.1-0.8,0.4c-0.2,0.3-0.3,0.7-0.3,1.2v2.3h-0.7v-4.5h0.7v0.9h0
			c0.1-0.3,0.3-0.6,0.5-0.7c0.2-0.2,0.4-0.3,0.7-0.3c0.2,0,0.3,0,0.4,0.1V770.1z"/>
		<path d="M86.6,769.4l-2.1,5.2c-0.4,0.9-0.9,1.4-1.6,1.4c-0.2,0-0.3,0-0.5-0.1v-0.6c0.2,0.1,0.3,0.1,0.4,0.1c0.4,0,0.6-0.2,0.8-0.7
			l0.4-0.9l-1.8-4.5h0.8l1.2,3.5c0,0,0,0.2,0.1,0.3h0c0-0.1,0-0.2,0.1-0.3l1.3-3.5H86.6z"/>
		<v:paragraph  v:horizAlign="1"></v:paragraph>
		<v:tabList></v:tabList>
	</g>
</g>
<g id="shape1002-4" transform="translate(219.68,-645.506)">
	<title>Sheet.1002</title>
	<desc>Drone (entity)</desc>
	<v:textBlock  v:margins="rect(4,4,4,4)"></v:textBlock>
	<v:textRect  cx="23.8361" cy="775.498" height="33.0038" width="47.68"></v:textRect>
	<path class="st2" d="M9,759h29.7c5,0,9,4,9,9v15c0,5-4,9-9,9H9c-5,0-9-4-9-9v-15C0,763,4,759,9,759z"/>
	<g class="st1">
		<path d="M12.4,772.8v-6.3h1.7c2.2,0,3.3,1,3.3,3.1c0,1-0.3,1.8-0.9,2.3c-0.6,0.6-1.4,0.9-2.5,0.9H12.4z M13.1,767.2v5h0.9
			c0.8,0,1.5-0.2,1.9-0.7c0.5-0.4,0.7-1.1,0.7-1.9c0-1.6-0.9-2.4-2.6-2.4H13.1z"/>
		<path d="M21,769c-0.1-0.1-0.3-0.1-0.5-0.1c-0.3,0-0.6,0.1-0.8,0.4c-0.2,0.3-0.3,0.7-0.3,1.2v2.3h-0.7v-4.5h0.7v0.9h0
			c0.1-0.3,0.3-0.6,0.5-0.7c0.2-0.2,0.4-0.3,0.7-0.3c0.2,0,0.3,0,0.4,0.1V769z"/>
		<path d="M23.6,772.9c-0.7,0-1.2-0.2-1.6-0.6c-0.4-0.4-0.6-1-0.6-1.7c0-0.8,0.2-1.3,0.6-1.8c0.4-0.4,1-0.6,1.7-0.6
			c0.7,0,1.2,0.2,1.6,0.6c0.4,0.4,0.6,1,0.6,1.7c0,0.7-0.2,1.3-0.6,1.7C24.9,772.7,24.3,772.9,23.6,772.9z M23.7,768.8
			c-0.5,0-0.8,0.2-1.1,0.5c-0.3,0.3-0.4,0.7-0.4,1.3c0,0.5,0.1,1,0.4,1.3c0.3,0.3,0.6,0.5,1.1,0.5c0.5,0,0.8-0.2,1.1-0.5
			c0.3-0.3,0.4-0.7,0.4-1.3c0-0.6-0.1-1-0.4-1.3C24.5,769,24.1,768.8,23.7,768.8z"/>
		<path d="M30.8,772.8H30v-2.6c0-1-0.3-1.4-1-1.4c-0.4,0-0.7,0.1-0.9,0.4c-0.2,0.3-0.4,0.6-0.4,1v2.6H27v-4.5h0.7v0.7h0
			c0.3-0.6,0.8-0.9,1.5-0.9c0.5,0,0.9,0.2,1.1,0.5c0.3,0.3,0.4,0.8,0.4,1.4V772.8z"/>
		<path d="M35.7,770.7h-3.2c0,0.5,0.1,0.9,0.4,1.2c0.3,0.3,0.6,0.4,1.1,0.4c0.5,0,1-0.2,1.4-0.5v0.7c-0.4,0.3-0.9,0.4-1.6,0.4
			c-0.6,0-1.1-0.2-1.5-0.6c-0.4-0.4-0.5-1-0.5-1.7c0-0.7,0.2-1.3,0.6-1.7c0.4-0.4,0.9-0.7,1.5-0.7s1,0.2,1.4,0.6s0.5,0.9,0.5,1.6
			V770.7z M35,770.1c0-0.4-0.1-0.7-0.3-1c-0.2-0.2-0.5-0.3-0.8-0.3c-0.3,0-0.6,0.1-0.9,0.4c-0.2,0.2-0.4,0.6-0.4,1H35z"/>
	</g>
	<g class="st1">
		<path d="M12.5,785h-0.6c-0.9-1-1.4-2.3-1.4-3.8c0-1.5,0.5-2.8,1.4-3.9h0.7c-0.9,1.1-1.4,2.4-1.4,3.9
			C11.1,782.7,11.6,783.9,12.5,785z"/>
		<path d="M17,781.5h-3.2c0,0.5,0.1,0.9,0.4,1.2c0.3,0.3,0.6,0.4,1.1,0.4c0.5,0,1-0.2,1.4-0.5v0.7c-0.4,0.3-0.9,0.4-1.6,0.4
			c-0.6,0-1.1-0.2-1.5-0.6c-0.4-0.4-0.5-1-0.5-1.7c0-0.7,0.2-1.3,0.6-1.7c0.4-0.4,0.9-0.7,1.5-0.7s1,0.2,1.4,0.6s0.5,0.9,0.5,1.6
			V781.5z M16.2,780.9c0-0.4-0.1-0.7-0.3-1c-0.2-0.2-0.5-0.3-0.8-0.3c-0.3,0-0.6,0.1-0.9,0.4c-0.2,0.2-0.4,0.6-0.4,1H16.2z"/>
		<path d="M21.8,783.6h-0.7V781c0-1-0.3-1.4-1-1.4c-0.4,0-0.7,0.1-0.9,0.4c-0.2,0.3-0.4,0.6-0.4,1v2.6h-0.7v-4.5h0.7v0.7h0
			c0.3-0.6,0.8-0.9,1.5-0.9c0.5,0,0.9,0.2,1.1,0.5c0.3,0.3,0.4,0.8,0.4,1.4V783.6z"/>
		<path d="M25.2,783.6c-0.2,0.1-0.4,0.1-0.7,0.1c-0.8,0-1.2-0.4-1.2-1.3v-2.7h-0.8v-0.6h0.8V778l0.7-0.2v1.3h1.1v0.6h-1.1v2.5
			c0,0.3,0.1,0.5,0.2,0.6s0.3,0.2,0.5,0.2c0.2,0,0.3,0,0.5-0.1V783.6z"/>
		<path d="M26.6,778c-0.1,0-0.2,0-0.3-0.1s-0.1-0.2-0.1-0.3s0-0.2,0.1-0.3c0.1-0.1,0.2-0.1,0.3-0.1c0.1,0,0.2,0,0.3,0.1
			c0.1,0.1,0.1,0.2,0.1,0.3c0,0.1,0,0.2-0.1,0.3C26.8,777.9,26.7,778,26.6,778z M26.9,783.6h-0.7v-4.5h0.7V783.6z"/>
		<path d="M30.5,783.6c-0.2,0.1-0.4,0.1-0.7,0.1c-0.8,0-1.2-0.4-1.2-1.3v-2.7h-0.8v-0.6h0.8V778l0.7-0.2v1.3h1.1v0.6h-1.1v2.5
			c0,0.3,0.1,0.5,0.2,0.6s0.3,0.2,0.5,0.2c0.2,0,0.3,0,0.5-0.1V783.6z"/>
		<path d="M35,779.1l-2.1,5.2c-0.4,0.9-0.9,1.4-1.6,1.4c-0.2,0-0.3,0-0.5-0.1V785c0.2,0.1,0.3,0.1,0.4,0.1c0.4,0,0.6-0.2,0.8-0.7
			l0.4-0.9l-1.8-4.5h0.8l1.2,3.5c0,0,0,0.2,0.1,0.3h0c0-0.1,0-0.2,0.1-0.3l1.3-3.5H35z"/>
		<path d="M35.8,785h-0.6c0.9-1.1,1.4-2.4,1.4-3.8c0-1.5-0.5-2.8-1.4-3.9h0.7c0.9,1.1,1.4,2.4,1.4,3.9C37.2,782.7,36.7,784,35.8,785
			z"/>
	</g>
	<v:paragraph  v:horizAlign="1"></v:paragraph>
	<v:tabList></v:tabList>
	<v:newlineChar></v:newlineChar>
</g>
<g id="shape1003-8" transform="translate(286.382,-645.506)">
	<title>Sheet.1003</title>
	<desc>Location (value object)</desc>
	<v:textBlock  v:margins="rect(4,4,4,4)"></v:textBlock>
	<v:textRect  cx="39.0588" cy="775.498" height="33.0038" width="78.12"></v:textRect>
	<path class="st2" d="M9,759h60.1c5,0,9,4,9,9v15c0,5-4,9-9,9H9c-5,0-9-4-9-9v-15C0,763,4,759,9,759z"/>
	<g class="st1">
		<path d="M26.2,772.8H23v-6.3h0.7v5.6h2.5V772.8z"/>
		<path d="M29,772.9c-0.7,0-1.2-0.2-1.6-0.6c-0.4-0.4-0.6-1-0.6-1.7c0-0.8,0.2-1.3,0.6-1.8c0.4-0.4,1-0.6,1.7-0.6
			c0.7,0,1.2,0.2,1.6,0.6c0.4,0.4,0.6,1,0.6,1.7c0,0.7-0.2,1.3-0.6,1.7C30.2,772.7,29.7,772.9,29,772.9z M29,768.8
			c-0.5,0-0.8,0.2-1.1,0.5c-0.3,0.3-0.4,0.7-0.4,1.3c0,0.5,0.1,1,0.4,1.3c0.3,0.3,0.6,0.5,1.1,0.5c0.5,0,0.8-0.2,1.1-0.5
			s0.4-0.7,0.4-1.3c0-0.6-0.1-1-0.4-1.3S29.5,768.8,29,768.8z"/>
		<path d="M35.4,772.6c-0.3,0.2-0.8,0.3-1.2,0.3c-0.6,0-1.2-0.2-1.6-0.6c-0.4-0.4-0.6-1-0.6-1.6c0-0.7,0.2-1.3,0.6-1.8
			c0.4-0.5,1-0.7,1.7-0.7c0.4,0,0.7,0.1,1,0.2v0.7c-0.3-0.2-0.7-0.4-1.1-0.4c-0.5,0-0.8,0.2-1.1,0.5c-0.3,0.3-0.4,0.8-0.4,1.3
			c0,0.5,0.1,0.9,0.4,1.2s0.6,0.5,1.1,0.5c0.4,0,0.8-0.1,1.1-0.4V772.6z"/>
		<path d="M39.8,772.8H39v-0.7h0c-0.3,0.5-0.8,0.8-1.4,0.8c-0.4,0-0.8-0.1-1.1-0.4c-0.3-0.2-0.4-0.6-0.4-0.9c0-0.8,0.5-1.3,1.5-1.5
			l1.3-0.2c0-0.8-0.3-1.1-0.9-1.1c-0.5,0-1,0.2-1.5,0.6v-0.7c0.4-0.3,1-0.4,1.5-0.4c1.1,0,1.6,0.6,1.6,1.7V772.8z M39,770.5
			l-1.1,0.1c-0.3,0-0.6,0.1-0.8,0.2c-0.2,0.1-0.3,0.3-0.3,0.6c0,0.2,0.1,0.4,0.2,0.5c0.2,0.1,0.4,0.2,0.6,0.2c0.4,0,0.7-0.1,0.9-0.4
			c0.2-0.3,0.3-0.6,0.3-1V770.5z"/>
		<path d="M43.2,772.8c-0.2,0.1-0.4,0.1-0.7,0.1c-0.8,0-1.2-0.4-1.2-1.3v-2.7h-0.8v-0.6h0.8v-1.1l0.7-0.2v1.3h1.1v0.6h-1.1v2.5
			c0,0.3,0.1,0.5,0.2,0.6c0.1,0.1,0.3,0.2,0.5,0.2c0.2,0,0.3,0,0.5-0.1V772.8z"/>
		<path d="M44.5,767.2c-0.1,0-0.2,0-0.3-0.1s-0.1-0.2-0.1-0.3s0-0.2,0.1-0.3c0.1-0.1,0.2-0.1,0.3-0.1c0.1,0,0.2,0,0.3,0.1
			c0.1,0.1,0.1,0.2,0.1,0.3c0,0.1,0,0.2-0.1,0.3C44.8,767.1,44.7,767.2,44.5,767.2z M44.9,772.8h-0.7v-4.5h0.7V772.8z"/>
		<path d="M48.2,772.9c-0.7,0-1.2-0.2-1.6-0.6c-0.4-0.4-0.6-1-0.6-1.7c0-0.8,0.2-1.3,0.6-1.8c0.4-0.4,1-0.6,1.7-0.6
			c0.7,0,1.2,0.2,1.6,0.6c0.4,0.4,0.6,1,0.6,1.7c0,0.7-0.2,1.3-0.6,1.7C49.5,772.7,48.9,772.9,48.2,772.9z M48.3,768.8
			c-0.5,0-0.8,0.2-1.1,0.5c-0.3,0.3-0.4,0.7-0.4,1.3c0,0.5,0.1,1,0.4,1.3c0.3,0.3,0.6,0.5,1.1,0.5c0.5,0,0.8-0.2,1.1-0.5
			c0.3-0.3,0.4-0.7,0.4-1.3c0-0.6-0.1-1-0.4-1.3C49.1,769,48.7,768.8,48.3,768.8z"/>
		<path d="M55.4,772.8h-0.7v-2.6c0-1-0.3-1.4-1-1.4c-0.4,0-0.7,0.1-0.9,0.4c-0.2,0.3-0.4,0.6-0.4,1v2.6h-0.7v-4.5h0.7v0.7h0
			c0.3-0.6,0.8-0.9,1.5-0.9c0.5,0,0.9,0.2,1.1,0.5c0.3,0.3,0.4,0.8,0.4,1.4V772.8z"/>
	</g>
	<g class="st1">
		<path d="M15,785h-0.6c-0.9-1-1.4-2.3-1.4-3.8c0-1.5,0.5-2.8,1.4-3.9H15c-0.9,1.1-1.4,2.4-1.4,3.9C13.6,782.7,14.1,783.9,15,785z"
			/>
		<path d="M19.3,779.1l-1.8,4.5h-0.7l-1.7-4.5h0.8l1.1,3.3c0.1,0.2,0.1,0.5,0.2,0.6h0c0-0.2,0.1-0.4,0.1-0.6l1.2-3.3H19.3z"/>
		<path d="M23.3,783.6h-0.7v-0.7h0c-0.3,0.5-0.8,0.8-1.4,0.8c-0.4,0-0.8-0.1-1.1-0.4c-0.3-0.2-0.4-0.6-0.4-0.9
			c0-0.8,0.5-1.3,1.5-1.5l1.3-0.2c0-0.8-0.3-1.1-0.9-1.1c-0.5,0-1,0.2-1.5,0.6v-0.7c0.4-0.3,1-0.4,1.5-0.4c1.1,0,1.6,0.6,1.6,1.7
			V783.6z M22.6,781.3l-1.1,0.1c-0.3,0-0.6,0.1-0.8,0.2c-0.2,0.1-0.3,0.3-0.3,0.6c0,0.2,0.1,0.4,0.2,0.5c0.2,0.1,0.4,0.2,0.6,0.2
			c0.4,0,0.7-0.1,0.9-0.4c0.2-0.3,0.3-0.6,0.3-1V781.3z"/>
		<path d="M25.4,783.6h-0.7v-6.7h0.7V783.6z"/>
		<path d="M30.5,783.6h-0.7v-0.7h0c-0.3,0.5-0.8,0.8-1.4,0.8c-1.1,0-1.6-0.6-1.6-1.9v-2.7h0.7v2.6c0,0.9,0.4,1.4,1.1,1.4
			c0.4,0,0.6-0.1,0.9-0.4c0.2-0.3,0.3-0.6,0.3-1v-2.6h0.7V783.6z"/>
		<path d="M35.6,781.5h-3.2c0,0.5,0.1,0.9,0.4,1.2c0.3,0.3,0.6,0.4,1.1,0.4c0.5,0,1-0.2,1.4-0.5v0.7c-0.4,0.3-0.9,0.4-1.6,0.4
			c-0.6,0-1.1-0.2-1.5-0.6c-0.4-0.4-0.5-1-0.5-1.7c0-0.7,0.2-1.3,0.6-1.7c0.4-0.4,0.9-0.7,1.5-0.7s1,0.2,1.4,0.6s0.5,0.9,0.5,1.6
			V781.5z M34.8,780.9c0-0.4-0.1-0.7-0.3-1c-0.2-0.2-0.5-0.3-0.8-0.3c-0.3,0-0.6,0.1-0.9,0.4c-0.2,0.2-0.4,0.6-0.4,1H34.8z"/>
		<path d="M41,783.7c-0.7,0-1.2-0.2-1.6-0.6c-0.4-0.4-0.6-1-0.6-1.7c0-0.8,0.2-1.3,0.6-1.8c0.4-0.4,1-0.6,1.7-0.6
			c0.7,0,1.2,0.2,1.6,0.6c0.4,0.4,0.6,1,0.6,1.7c0,0.7-0.2,1.3-0.6,1.7C42.2,783.5,41.7,783.7,41,783.7z M41.1,779.6
			c-0.5,0-0.8,0.2-1.1,0.5c-0.3,0.3-0.4,0.7-0.4,1.3c0,0.5,0.1,1,0.4,1.3c0.3,0.3,0.6,0.5,1.1,0.5c0.5,0,0.8-0.2,1.1-0.5
			c0.3-0.3,0.4-0.7,0.4-1.3c0-0.6-0.1-1-0.4-1.3C41.9,779.8,41.5,779.6,41.1,779.6z"/>
		<path d="M45.1,782.9L45.1,782.9l0,0.7h-0.7v-6.7h0.7v3h0c0.4-0.6,0.9-0.9,1.6-0.9c0.6,0,1,0.2,1.4,0.6c0.3,0.4,0.5,0.9,0.5,1.6
			c0,0.8-0.2,1.4-0.5,1.8c-0.4,0.5-0.9,0.7-1.5,0.7C45.9,783.7,45.4,783.5,45.1,782.9z M45.1,781.1v0.6c0,0.4,0.1,0.7,0.4,0.9
			c0.2,0.3,0.5,0.4,0.9,0.4c0.4,0,0.8-0.2,1-0.5c0.2-0.3,0.4-0.8,0.4-1.4c0-0.5-0.1-0.9-0.3-1.2s-0.5-0.4-0.9-0.4
			c-0.4,0-0.8,0.1-1,0.4C45.3,780.3,45.1,780.7,45.1,781.1z"/>
		<path d="M50.4,783.4c0,0.7-0.1,1.3-0.4,1.7c-0.3,0.4-0.7,0.6-1.3,0.6c-0.2,0-0.4,0-0.6-0.1v-0.7c0.2,0.1,0.4,0.2,0.6,0.2
			c0.7,0,1-0.5,1-1.6v-4.4h0.7V783.4z M50.1,778c-0.1,0-0.2,0-0.3-0.1s-0.1-0.2-0.1-0.3s0-0.2,0.1-0.3c0.1-0.1,0.2-0.1,0.3-0.1
			c0.1,0,0.2,0,0.3,0.1c0.1,0.1,0.1,0.2,0.1,0.3c0,0.1,0,0.2-0.1,0.3C50.3,777.9,50.2,778,50.1,778z"/>
		<path d="M55.5,781.5h-3.2c0,0.5,0.1,0.9,0.4,1.2c0.3,0.3,0.6,0.4,1.1,0.4c0.5,0,1-0.2,1.4-0.5v0.7c-0.4,0.3-0.9,0.4-1.6,0.4
			c-0.6,0-1.1-0.2-1.5-0.6c-0.4-0.4-0.5-1-0.5-1.7c0-0.7,0.2-1.3,0.6-1.7c0.4-0.4,0.9-0.7,1.5-0.7s1,0.2,1.4,0.6s0.5,0.9,0.5,1.6
			V781.5z M54.8,780.9c0-0.4-0.1-0.7-0.3-1c-0.2-0.2-0.5-0.3-0.8-0.3c-0.3,0-0.6,0.1-0.9,0.4c-0.2,0.2-0.4,0.6-0.4,1H54.8z"/>
		<path d="M59.6,783.4c-0.3,0.2-0.8,0.3-1.2,0.3c-0.6,0-1.2-0.2-1.6-0.6c-0.4-0.4-0.6-1-0.6-1.6c0-0.7,0.2-1.3,0.6-1.8
			c0.4-0.5,1-0.7,1.7-0.7c0.4,0,0.7,0.1,1,0.2v0.7c-0.3-0.2-0.7-0.4-1.1-0.4c-0.5,0-0.8,0.2-1.1,0.5c-0.3,0.3-0.4,0.8-0.4,1.3
			c0,0.5,0.1,0.9,0.4,1.2c0.3,0.3,0.6,0.5,1.1,0.5c0.4,0,0.8-0.1,1.1-0.4V783.4z"/>
		<path d="M62.8,783.6c-0.2,0.1-0.4,0.1-0.7,0.1c-0.8,0-1.2-0.4-1.2-1.3v-2.7h-0.8v-0.6H61V778l0.7-0.2v1.3h1.1v0.6h-1.1v2.5
			c0,0.3,0.1,0.5,0.2,0.6s0.3,0.2,0.5,0.2c0.2,0,0.3,0,0.5-0.1V783.6z"/>
		<path d="M63.8,785h-0.6c0.9-1.1,1.4-2.4,1.4-3.8c0-1.5-0.5-2.8-1.4-3.9h0.7c0.9,1.1,1.4,2.4,1.4,3.9C65.2,782.7,64.7,784,63.8,785
			z"/>
	</g>
	<v:paragraph  v:horizAlign="1"></v:paragraph>
	<v:tabList></v:tabList>
	<v:lf></v:lf>
</g>
<g id="shape1005-18" transform="translate(191.364,-490.84)">
	<title>Sheet.1005</title>
	<desc>Data store</desc>
	<v:textBlock  v:margins="rect(4,4,4,4)"></v:textBlock>
	<v:textRect  cx="52.1528" cy="771.17" height="41.6606" width="104.31"></v:textRect>
	<rect x="0" y="750.3" class="st0" width="104.3" height="41.7"/>
	<g class="st1">
		<path d="M32.5,773.9v-6.3h1.7c2.2,0,3.3,1,3.3,3.1c0,1-0.3,1.8-0.9,2.3c-0.6,0.6-1.4,0.9-2.5,0.9H32.5z M33.2,768.2v5h0.9
			c0.8,0,1.5-0.2,1.9-0.7c0.5-0.4,0.7-1.1,0.7-1.9c0-1.6-0.9-2.4-2.6-2.4H33.2z"/>
		<path d="M41.9,773.9h-0.7v-0.7h0c-0.3,0.5-0.8,0.8-1.4,0.8c-0.4,0-0.8-0.1-1.1-0.4c-0.3-0.2-0.4-0.6-0.4-0.9
			c0-0.8,0.5-1.3,1.5-1.5l1.3-0.2c0-0.8-0.3-1.1-0.9-1.1c-0.5,0-1,0.2-1.5,0.6v-0.7c0.4-0.3,1-0.4,1.5-0.4c1.1,0,1.6,0.6,1.6,1.7
			V773.9z M41.2,771.6l-1.1,0.1c-0.3,0-0.6,0.1-0.8,0.2c-0.2,0.1-0.3,0.3-0.3,0.6c0,0.2,0.1,0.4,0.2,0.5c0.2,0.1,0.4,0.2,0.6,0.2
			c0.4,0,0.7-0.1,0.9-0.4c0.2-0.3,0.3-0.6,0.3-1V771.6z"/>
		<path d="M45.4,773.8c-0.2,0.1-0.4,0.1-0.7,0.1c-0.8,0-1.2-0.4-1.2-1.3V770h-0.8v-0.6h0.8v-1.1l0.7-0.2v1.3h1.1v0.6h-1.1v2.5
			c0,0.3,0.1,0.5,0.2,0.6s0.3,0.2,0.5,0.2c0.2,0,0.3,0,0.5-0.1V773.8z"/>
		<path d="M49.6,773.9h-0.7v-0.7h0c-0.3,0.5-0.8,0.8-1.4,0.8c-0.4,0-0.8-0.1-1.1-0.4c-0.3-0.2-0.4-0.6-0.4-0.9
			c0-0.8,0.5-1.3,1.5-1.5l1.3-0.2c0-0.8-0.3-1.1-0.9-1.1c-0.5,0-1,0.2-1.5,0.6v-0.7c0.4-0.3,1-0.4,1.5-0.4c1.1,0,1.6,0.6,1.6,1.7
			V773.9z M48.8,771.6l-1.1,0.1c-0.3,0-0.6,0.1-0.8,0.2c-0.2,0.1-0.3,0.3-0.3,0.6c0,0.2,0.1,0.4,0.2,0.5c0.2,0.1,0.4,0.2,0.6,0.2
			c0.4,0,0.7-0.1,0.9-0.4c0.2-0.3,0.3-0.6,0.3-1V771.6z"/>
		<path d="M53.1,773.7v-0.8c0.4,0.3,0.8,0.4,1.3,0.4c0.6,0,0.9-0.2,0.9-0.6c0-0.1,0-0.2-0.1-0.3c-0.1-0.1-0.1-0.2-0.2-0.2
			c-0.1-0.1-0.2-0.1-0.3-0.2c-0.1-0.1-0.3-0.1-0.4-0.2c-0.2-0.1-0.4-0.2-0.5-0.2c-0.2-0.1-0.3-0.2-0.4-0.3c-0.1-0.1-0.2-0.2-0.2-0.3
			c-0.1-0.1-0.1-0.3-0.1-0.5c0-0.2,0-0.4,0.1-0.6c0.1-0.2,0.2-0.3,0.4-0.4c0.2-0.1,0.3-0.2,0.6-0.2c0.2-0.1,0.4-0.1,0.6-0.1
			c0.4,0,0.7,0.1,1,0.2v0.7c-0.3-0.2-0.7-0.3-1.1-0.3c-0.1,0-0.3,0-0.4,0c-0.1,0-0.2,0.1-0.3,0.1c-0.1,0.1-0.1,0.1-0.2,0.2
			c0,0.1-0.1,0.2-0.1,0.3c0,0.1,0,0.2,0.1,0.3c0,0.1,0.1,0.2,0.2,0.2c0.1,0.1,0.2,0.1,0.3,0.2s0.3,0.1,0.4,0.2
			c0.2,0.1,0.4,0.2,0.5,0.2c0.2,0.1,0.3,0.2,0.4,0.3c0.1,0.1,0.2,0.2,0.3,0.3c0.1,0.1,0.1,0.3,0.1,0.5c0,0.2,0,0.4-0.1,0.6
			c-0.1,0.2-0.2,0.3-0.4,0.4s-0.4,0.2-0.6,0.2s-0.4,0.1-0.7,0.1C53.9,774,53.5,773.9,53.1,773.7z"/>
		<path d="M59.3,773.8c-0.2,0.1-0.4,0.1-0.7,0.1c-0.8,0-1.2-0.4-1.2-1.3V770h-0.8v-0.6h0.8v-1.1l0.7-0.2v1.3h1.1v0.6h-1.1v2.5
			c0,0.3,0.1,0.5,0.2,0.6s0.3,0.2,0.5,0.2c0.2,0,0.3,0,0.5-0.1V773.8z"/>
		<path d="M62.1,774c-0.7,0-1.2-0.2-1.6-0.6c-0.4-0.4-0.6-1-0.6-1.7c0-0.8,0.2-1.3,0.6-1.8c0.4-0.4,1-0.6,1.7-0.6
			c0.7,0,1.2,0.2,1.6,0.6c0.4,0.4,0.6,1,0.6,1.7c0,0.7-0.2,1.3-0.6,1.7C63.4,773.8,62.8,774,62.1,774z M62.2,769.9
			c-0.5,0-0.8,0.2-1.1,0.5c-0.3,0.3-0.4,0.7-0.4,1.3c0,0.5,0.1,1,0.4,1.3c0.3,0.3,0.6,0.5,1.1,0.5c0.5,0,0.8-0.2,1.1-0.5
			c0.3-0.3,0.4-0.7,0.4-1.3c0-0.6-0.1-1-0.4-1.3C63,770,62.7,769.9,62.2,769.9z"/>
		<path d="M67.9,770.1c-0.1-0.1-0.3-0.1-0.5-0.1c-0.3,0-0.6,0.1-0.8,0.4c-0.2,0.3-0.3,0.7-0.3,1.2v2.3h-0.7v-4.5h0.7v0.9h0
			c0.1-0.3,0.3-0.6,0.5-0.7c0.2-0.2,0.4-0.3,0.7-0.3c0.2,0,0.3,0,0.4,0.1V770.1z"/>
		<path d="M72.3,771.8h-3.2c0,0.5,0.1,0.9,0.4,1.2c0.3,0.3,0.6,0.4,1.1,0.4c0.5,0,1-0.2,1.4-0.5v0.7c-0.4,0.3-0.9,0.4-1.6,0.4
			c-0.6,0-1.1-0.2-1.5-0.6c-0.4-0.4-0.5-1-0.5-1.7c0-0.7,0.2-1.3,0.6-1.7c0.4-0.4,0.9-0.7,1.5-0.7s1,0.2,1.4,0.6s0.5,0.9,0.5,1.6
			V771.8z M71.5,771.2c0-0.4-0.1-0.7-0.3-1c-0.2-0.2-0.5-0.3-0.8-0.3c-0.3,0-0.6,0.1-0.9,0.4c-0.2,0.2-0.4,0.6-0.4,1H71.5z"/>
		<v:paragraph  v:horizAlign="1"></v:paragraph>
		<v:tabList></v:tabList>
	</g>
</g>
<g id="shape1007-27" transform="translate(194.099,-534.078)">
	<title>Sheet.1007</title>
	<desc>SELECT</desc>
	<v:textBlock  v:margins="rect(4,4,4,4)"></v:textBlock>
	<v:textRect  cx="19.0558" cy="783.085" height="17.83" width="38.12"></v:textRect>
	<rect x="0" y="774.2" class="st3" width="38.1" height="17.8"/>
	<g class="st1">
		<path d="M8.6,784.2c0,0.3-0.1,0.5-0.2,0.7c-0.1,0.2-0.3,0.4-0.5,0.5c-0.2,0.1-0.4,0.2-0.7,0.3c-0.3,0.1-0.6,0.1-0.9,0.1
			c-0.2,0-0.3,0-0.5,0c-0.2,0-0.3,0-0.4,0s-0.3,0-0.4-0.1s-0.2,0-0.3-0.1v-0.8c0.2,0.1,0.5,0.1,0.7,0.2c0.3,0,0.6,0.1,0.9,0.1
			c0.3,0,0.5,0,0.6-0.1c0.2,0,0.3-0.1,0.4-0.2c0.1-0.1,0.2-0.2,0.2-0.3c0.1-0.1,0.1-0.2,0.1-0.4c0-0.2,0-0.3-0.1-0.4
			c-0.1-0.1-0.2-0.2-0.3-0.3c-0.1-0.1-0.3-0.2-0.5-0.2c-0.2-0.1-0.4-0.1-0.6-0.2s-0.4-0.2-0.6-0.2c-0.2-0.1-0.3-0.2-0.5-0.3
			c-0.1-0.1-0.3-0.3-0.3-0.4s-0.1-0.4-0.1-0.6c0-0.2,0-0.4,0.1-0.6s0.2-0.4,0.4-0.5c0.2-0.1,0.4-0.3,0.7-0.4c0.3-0.1,0.6-0.1,1-0.1
			c0.1,0,0.2,0,0.3,0c0.1,0,0.2,0,0.3,0c0.1,0,0.2,0,0.3,0.1c0.1,0,0.2,0,0.3,0.1v0.7c-0.2-0.1-0.5-0.1-0.7-0.1
			c-0.2,0-0.4-0.1-0.7-0.1c-0.4,0-0.8,0.1-1,0.2s-0.3,0.4-0.3,0.6c0,0.2,0,0.3,0.1,0.4s0.2,0.2,0.3,0.3s0.3,0.2,0.5,0.2
			c0.2,0.1,0.4,0.1,0.6,0.2c0.2,0.1,0.4,0.2,0.6,0.3c0.2,0.1,0.3,0.2,0.5,0.3c0.1,0.1,0.3,0.3,0.3,0.4C8.5,783.8,8.6,784,8.6,784.2z
			"/>
		<path d="M13.3,785.8H10V780h3.3v0.7h-2.5v1.8h2.4v0.7h-2.4v2h2.5V785.8z"/>
		<path d="M18.4,785.8h-3.3V780h0.8v5.1h2.5V785.8z"/>
		<path d="M23.2,785.8h-3.3V780h3.3v0.7h-2.5v1.8h2.4v0.7h-2.4v2h2.5V785.8z"/>
		<path d="M28.4,785.6c-0.5,0.2-0.9,0.3-1.4,0.3c-0.8,0-1.4-0.2-1.9-0.7c-0.4-0.5-0.7-1.2-0.7-2.2c0-0.5,0.1-0.9,0.2-1.2
			c0.1-0.4,0.3-0.7,0.5-0.9c0.2-0.3,0.5-0.5,0.8-0.6s0.7-0.2,1.1-0.2c0.3,0,0.5,0,0.7,0.1c0.2,0,0.4,0.1,0.7,0.2v0.8
			c-0.2-0.1-0.4-0.2-0.6-0.3c-0.2-0.1-0.5-0.1-0.7-0.1c-0.3,0-0.5,0-0.7,0.2c-0.2,0.1-0.4,0.2-0.6,0.4c-0.2,0.2-0.3,0.4-0.4,0.7
			c-0.1,0.3-0.1,0.6-0.1,0.9c0,0.7,0.2,1.3,0.5,1.7s0.7,0.6,1.3,0.6c0.2,0,0.5,0,0.7-0.1c0.2-0.1,0.4-0.1,0.7-0.2V785.6z"/>
		<path d="M33.5,780.7h-1.7v5.1H31v-5.1h-1.7V780h4.2V780.7z"/>
		<v:paragraph  v:horizAlign="1"></v:paragraph>
		<v:tabList></v:tabList>
	</g>
</g>
<g id="shape1009-35" transform="translate(246.265,-610.301)">
	<title>Sheet.1009</title>
	<desc>Update</desc>
	<v:textBlock  v:margins="rect(4,4,4,4)"></v:textBlock>
	<v:textRect  cx="27.8088" cy="783.085" height="17.83" width="55.62"></v:textRect>
	<rect x="0" y="774.2" class="st3" width="55.6" height="17.8"/>
	<g class="st1">
		<path d="M18.7,783.2c0,1.8-0.8,2.7-2.4,2.7c-1.5,0-2.3-0.9-2.3-2.6v-3.9h0.7v3.8c0,1.3,0.5,1.9,1.6,1.9c1.1,0,1.6-0.6,1.6-1.9
			v-3.9h0.7V783.2z"/>
		<path d="M20.9,785.1L20.9,785.1l0,2.7h-0.7v-6.6h0.7v0.8h0c0.4-0.6,0.9-0.9,1.6-0.9c0.6,0,1,0.2,1.4,0.6c0.3,0.4,0.5,0.9,0.5,1.6
			c0,0.8-0.2,1.4-0.5,1.8c-0.4,0.5-0.9,0.7-1.5,0.7C21.7,785.9,21.2,785.6,20.9,785.1z M20.9,783.3v0.6c0,0.4,0.1,0.7,0.4,0.9
			c0.2,0.3,0.5,0.4,0.9,0.4c0.4,0,0.8-0.2,1-0.5c0.2-0.3,0.4-0.8,0.4-1.4c0-0.5-0.1-0.9-0.3-1.2s-0.5-0.4-0.9-0.4
			c-0.4,0-0.8,0.1-1,0.4C21,782.5,20.9,782.9,20.9,783.3z"/>
		<path d="M29.3,785.8h-0.7V785h0c-0.3,0.6-0.8,0.9-1.5,0.9c-0.6,0-1-0.2-1.4-0.6c-0.3-0.4-0.5-1-0.5-1.6c0-0.7,0.2-1.3,0.6-1.8
			c0.4-0.4,0.9-0.7,1.5-0.7c0.6,0,1.1,0.2,1.3,0.7h0v-2.8h0.7V785.8z M28.6,783.7v-0.7c0-0.4-0.1-0.7-0.4-0.9s-0.5-0.4-0.9-0.4
			c-0.4,0-0.8,0.2-1,0.5s-0.4,0.8-0.4,1.3c0,0.5,0.1,0.9,0.4,1.2c0.2,0.3,0.6,0.5,1,0.5c0.4,0,0.7-0.1,1-0.4
			C28.4,784.6,28.6,784.2,28.6,783.7z"/>
		<path d="M34,785.8h-0.7v-0.7h0c-0.3,0.5-0.8,0.8-1.4,0.8c-0.4,0-0.8-0.1-1.1-0.4c-0.3-0.2-0.4-0.6-0.4-0.9c0-0.8,0.5-1.3,1.5-1.5
			l1.3-0.2c0-0.8-0.3-1.1-0.9-1.1c-0.5,0-1,0.2-1.5,0.6v-0.7c0.4-0.3,1-0.4,1.5-0.4c1.1,0,1.6,0.6,1.6,1.7V785.8z M33.3,783.5
			l-1.1,0.1c-0.3,0-0.6,0.1-0.8,0.2c-0.2,0.1-0.3,0.3-0.3,0.6c0,0.2,0.1,0.4,0.2,0.5c0.2,0.1,0.4,0.2,0.6,0.2c0.4,0,0.7-0.1,0.9-0.4
			c0.2-0.3,0.3-0.6,0.3-1V783.5z"/>
		<path d="M37.4,785.7c-0.2,0.1-0.4,0.1-0.7,0.1c-0.8,0-1.2-0.4-1.2-1.3v-2.7h-0.8v-0.6h0.8v-1.1l0.7-0.2v1.3h1.1v0.6h-1.1v2.5
			c0,0.3,0.1,0.5,0.2,0.6s0.3,0.2,0.5,0.2c0.2,0,0.3,0,0.5-0.1V785.7z"/>
		<path d="M42,783.7h-3.2c0,0.5,0.1,0.9,0.4,1.2c0.3,0.3,0.6,0.4,1.1,0.4c0.5,0,1-0.2,1.4-0.5v0.7c-0.4,0.3-0.9,0.4-1.6,0.4
			c-0.6,0-1.1-0.2-1.5-0.6c-0.4-0.4-0.5-1-0.5-1.7c0-0.7,0.2-1.3,0.6-1.7c0.4-0.4,0.9-0.7,1.5-0.7s1,0.2,1.4,0.6s0.5,0.9,0.5,1.6
			V783.7z M41.3,783.1c0-0.4-0.1-0.7-0.3-1c-0.2-0.2-0.5-0.3-0.8-0.3c-0.3,0-0.6,0.1-0.9,0.4c-0.2,0.2-0.4,0.6-0.4,1H41.3z"/>
		<v:paragraph  v:horizAlign="1"></v:paragraph>
		<v:tabList></v:tabList>
	</g>
</g>
<g id="shape1011-43" transform="translate(257.558,-533.7)">
	<title>Sheet.1011</title>
	<desc>UPDATE</desc>
	<v:textBlock  v:margins="rect(4,4,4,4)"></v:textBlock>
	<v:textRect  cx="19.0558" cy="783.085" height="17.83" width="38.12"></v:textRect>
	<rect x="0" y="774.2" class="st3" width="38.1" height="17.8"/>
	<g class="st1">
		<path d="M8.7,783.8c0,0.3,0,0.6-0.1,0.9c-0.1,0.3-0.2,0.5-0.4,0.7c-0.2,0.2-0.4,0.3-0.6,0.4c-0.3,0.1-0.5,0.1-0.9,0.1
			c-0.4,0-0.7,0-0.9-0.1s-0.5-0.2-0.6-0.4c-0.2-0.2-0.3-0.4-0.3-0.6c-0.1-0.2-0.1-0.5-0.1-0.8V780h0.8v3.8c0,0.2,0,0.4,0.1,0.6
			c0,0.2,0.1,0.3,0.2,0.4s0.2,0.2,0.4,0.3c0.2,0.1,0.3,0.1,0.6,0.1c0.4,0,0.7-0.1,0.9-0.4c0.2-0.2,0.3-0.6,0.3-1V780h0.8V783.8z"/>
		<path d="M13.6,781.8c0,0.2,0,0.5-0.1,0.7c-0.1,0.2-0.2,0.4-0.4,0.6s-0.4,0.3-0.7,0.4c-0.3,0.1-0.6,0.2-1,0.2h-0.7v2.1H9.9V780h1.6
			c0.3,0,0.6,0,0.8,0.1c0.3,0.1,0.5,0.2,0.7,0.3c0.2,0.1,0.4,0.3,0.5,0.5S13.6,781.5,13.6,781.8z M12.8,781.8c0-0.4-0.1-0.7-0.4-0.8
			c-0.2-0.2-0.6-0.3-1-0.3h-0.8v2.4h0.7c0.5,0,0.8-0.1,1.1-0.3C12.7,782.5,12.8,782.2,12.8,781.8z"/>
		<path d="M18.7,782.8c0,0.3,0,0.5-0.1,0.8s-0.1,0.5-0.2,0.7s-0.2,0.4-0.4,0.6c-0.1,0.2-0.3,0.3-0.5,0.5s-0.5,0.2-0.8,0.3
			c-0.3,0.1-0.6,0.1-1,0.1h-1.2V780h1.5c0.9,0,1.6,0.2,2,0.7C18.5,781.2,18.7,781.9,18.7,782.8z M17.9,782.9c0-0.4,0-0.8-0.1-1
			s-0.2-0.5-0.3-0.7s-0.4-0.3-0.6-0.4c-0.2-0.1-0.5-0.1-0.8-0.1h-0.7v4.4H16C17.3,785.1,17.9,784.4,17.9,782.9z"/>
		<path d="M24,785.8h-0.9l-0.4-1.3h-2.4l-0.4,1.3h-0.8L21,780h1.1L24,785.8z M22.5,783.8l-1-3.1l-1,3.1H22.5z"/>
		<path d="M28.6,780.7h-1.7v5.1h-0.8v-5.1h-1.7V780h4.2V780.7z"/>
		<path d="M33.1,785.8h-3.3V780h3.3v0.7h-2.5v1.8H33v0.7h-2.4v2h2.5V785.8z"/>
		<v:paragraph  v:horizAlign="1"></v:paragraph>
		<v:tabList></v:tabList>
	</g>
</g>
<g id="shape1013-51" transform="translate(197.499,-610.301)">
	<title>Sheet.1013</title>
	<desc>Find</desc>
	<v:textBlock  v:margins="rect(4,4,4,4)"></v:textBlock>
	<v:textRect  cx="23.8361" cy="783.085" height="17.83" width="47.68"></v:textRect>
	<rect x="0" y="774.2" class="st3" width="47.7" height="17.8"/>
	<g class="st1">
		<path d="M19.4,780.1h-2.5v2.2h2.3v0.7h-2.3v2.8h-0.7v-6.3h3.2V780.1z"/>
		<path d="M20.8,780.1c-0.1,0-0.2,0-0.3-0.1s-0.1-0.2-0.1-0.3s0-0.2,0.1-0.3c0.1-0.1,0.2-0.1,0.3-0.1c0.1,0,0.2,0,0.3,0.1
			c0.1,0.1,0.1,0.2,0.1,0.3c0,0.1,0,0.2-0.1,0.3C21.1,780.1,21,780.1,20.8,780.1z M21.2,785.8h-0.7v-4.5h0.7V785.8z"/>
		<path d="M26.4,785.8h-0.7v-2.6c0-1-0.3-1.4-1-1.4c-0.4,0-0.7,0.1-0.9,0.4c-0.2,0.3-0.4,0.6-0.4,1v2.6h-0.7v-4.5h0.7v0.7h0
			c0.3-0.6,0.8-0.9,1.5-0.9c0.5,0,0.9,0.2,1.1,0.5c0.3,0.3,0.4,0.8,0.4,1.4V785.8z"/>
		<path d="M31.6,785.8h-0.7V785h0c-0.3,0.6-0.8,0.9-1.5,0.9c-0.6,0-1-0.2-1.4-0.6c-0.3-0.4-0.5-1-0.5-1.6c0-0.7,0.2-1.3,0.6-1.8
			c0.4-0.4,0.9-0.7,1.5-0.7c0.6,0,1.1,0.2,1.3,0.7h0v-2.8h0.7V785.8z M30.9,783.7v-0.7c0-0.4-0.1-0.7-0.4-0.9s-0.5-0.4-0.9-0.4
			c-0.4,0-0.8,0.2-1,0.5s-0.4,0.8-0.4,1.3c0,0.5,0.1,0.9,0.4,1.2c0.2,0.3,0.6,0.5,1,0.5c0.4,0,0.7-0.1,1-0.4
			C30.7,784.6,30.9,784.2,30.9,783.7z"/>
		<v:paragraph  v:horizAlign="1"></v:paragraph>
		<v:tabList></v:tabList>
	</g>
</g>
<g>
	<g>
		<line class="st4" x1="267.4" y1="130" x2="281.4" y2="130"/>
		<g>
			<polygon points="280.4,133.4 286.4,130 280.4,126.6 			"/>
		</g>
	</g>
</g>
<g>
	<g>
		<line class="st4" x1="236" y1="146.5" x2="236" y2="191.9"/>
		<g>
			<polygon points="232.6,190.9 236,196.9 239.4,190.9 			"/>
		</g>
	</g>
</g>
<g>
	<g>
		<line class="st4" x1="253.5" y1="151.4" x2="253.5" y2="196.9"/>
		<g>
			<polygon points="250.1,152.5 253.5,146.5 256.9,152.5 			"/>
		</g>
	</g>
</g>
<g>
	<g>
		<line class="st4" x1="236" y1="240.1" x2="236" y2="254.5"/>
		<g>
			<polygon points="232.6,253.5 236,259.5 239.4,253.5 			"/>
		</g>
	</g>
</g>
<g>
	<g>
		<line class="st4" x1="253.5" y1="245.4" x2="253.5" y2="259.5"/>
		<g>
			<polygon points="250.1,246.4 253.5,240.5 256.9,246.4 			"/>
		</g>
	</g>
</g>
</svg>
