<?xml version="1.0" encoding="utf-8"?>
<!-- Generator: Adobe Illustrator 22.0.1, SVG Export Plug-In . SVG Version: 6.00 Build 0)  -->
<svg version="1.1" id="Layer_1" xmlns="http://www.w3.org/2000/svg" xmlns:xlink="http://www.w3.org/1999/xlink" x="0px" y="0px"
	 viewBox="0 0 285.5 309.4" style="enable-background:new 0 0 285.5 309.4;" xml:space="preserve">
<style type="text/css">
	.st0{fill:#FFFFFF;stroke:#000000;stroke-width:0.75;stroke-linecap:round;stroke-linejoin:round;}
	.st1{fill:#FFFFFF;stroke:#7F7F7F;stroke-linecap:round;stroke-linejoin:round;}
	.st2{fill:none;}
	.st3{fill:none;stroke:#000000;stroke-miterlimit:10;}
</style>
<title>repository</title>
<g id="shape1001-1">
	<rect x="0.4" y="137.5" class="st0" width="171.5" height="68.6"/>
	<g>
		<path d="M30.5,176.3v-10.4h2.8c3.6,0,5.4,1.6,5.4,5.1c0.1,1.4-0.4,2.8-1.5,3.8c-1.1,1-2.6,1.6-4.1,1.5H30.5z M31.6,166.9v8.2h1.5
			c2.2,0.2,4.1-1.5,4.3-3.7c0-0.2,0-0.4,0-0.6c0-2.6-1.5-3.9-4.3-3.9H31.6z"/>
		<path d="M44.4,170c-0.2-0.1-0.5-0.2-0.8-0.2c-0.5,0-1,0.2-1.3,0.6c-0.4,0.6-0.5,1.3-0.5,2v3.8h-1.1v-7.4h1.1v1.5l0,0
			c0.1-0.5,0.4-0.9,0.8-1.1c0.3-0.3,0.7-0.5,1.2-0.5c0.3,0,0.5,0,0.7,0.2V170z"/>
		<path d="M48.9,176.4c-1,0-1.9-0.3-2.6-1c-0.7-0.8-1.1-1.8-1-2.8c-0.1-1.1,0.3-2.2,1-3c0.8-0.7,1.8-1,2.8-1c1-0.1,1.9,0.3,2.6,1
			c1.3,1.6,1.3,4,0,5.6C51,176,49.9,176.5,48.9,176.4z M48.9,169.7c-0.7,0-1.4,0.3-1.8,0.8c-0.5,0.6-0.7,1.4-0.7,2.1
			c-0.1,0.8,0.2,1.5,0.7,2.1c0.9,1,2.4,1.1,3.4,0.2c0.1-0.1,0.2-0.1,0.2-0.2c0.5-0.6,0.7-1.4,0.7-2.1c0.1-0.8-0.2-1.5-0.7-2.1
			C50.3,169.9,49.6,169.6,48.9,169.7L48.9,169.7z"/>
		<path d="M60.5,176.3h-1.2V172c0-1.6-0.5-2.3-1.6-2.3c-0.6-0.1-1.1,0.2-1.5,0.7c-0.4,0.5-0.6,1-0.7,1.6v4.3h-1.2v-7.4h1.2v1.1l0,0
			c0.4-1,1.4-1.5,2.5-1.5c0.7,0,1.4,0.3,1.8,0.8c0.5,0.7,0.7,1.5,0.7,2.3V176.3z"/>
		<path d="M68.8,172.8h-5.3c-0.1,0.7,0.2,1.5,0.7,2c0.5,0.5,1.1,0.7,1.8,0.7c0.8,0,1.6-0.3,2.3-0.8v1.2c-0.8,0.5-1.7,0.7-2.6,0.6
			c-0.9,0-1.8-0.3-2.5-1c-1.2-1.7-1.1-4,0.2-5.6c0.6-0.7,1.5-1.1,2.5-1.1c0.9,0,1.7,0.3,2.3,1c0.6,0.7,0.9,1.7,0.8,2.6v0.5
			L68.8,172.8z M67.5,171.8c0-0.6-0.2-1.2-0.5-1.6c-0.4-0.3-0.8-0.5-1.3-0.5c-0.6,0-1.1,0.2-1.5,0.7c-0.4,0.5-0.7,1-0.7,1.7h4
			L67.5,171.8z"/>
		<path d="M82.2,176.3h-1.5l-1.8-3c-0.1-0.2-0.3-0.5-0.5-0.7l-0.5-0.5c-0.2-0.2-0.3-0.2-0.5-0.3c-0.2,0-0.3-0.2-0.7-0.2H76v4.4h-1.2
			v-10.3H78c0.4,0,0.9,0,1.3,0.2l1,0.5c0.3,0.2,0.5,0.5,0.7,0.8c0.1,0.4,0.2,0.8,0.2,1.1c0,0.3,0,0.7-0.2,1
			c-0.2,0.3-0.3,0.5-0.5,0.8l-0.7,0.6c-0.3,0.2-0.6,0.3-1,0.3l0,0c0.2,0,0.3,0.2,0.5,0.3s0.3,0.2,0.3,0.3s0.2,0.3,0.3,0.5
			s0.2,0.3,0.3,0.7L82.2,176.3z M76,166.9v3.8h1.7c0.3,0,0.7,0,0.8-0.2s0.5-0.2,0.7-0.3c0.2-0.2,0.4-0.4,0.5-0.7
			c0.1-0.3,0.2-0.5,0.2-0.8c0-0.5-0.2-1-0.5-1.3c-0.4-0.4-0.9-0.5-1.5-0.5L76,166.9z"/>
		<path d="M89,172.8h-5.3c-0.1,0.7,0.2,1.5,0.7,2c0.5,0.5,1.1,0.7,1.8,0.7c0.8,0,1.6-0.3,2.3-0.8v1.2c-0.8,0.5-1.7,0.7-2.6,0.6
			c-0.9,0-1.8-0.3-2.5-1c-1.2-1.7-1.1-4,0.2-5.6c0.6-0.7,1.5-1.1,2.4-1.2c0.9,0,1.7,0.3,2.3,1c0.6,0.7,0.9,1.7,0.8,2.6v0.5L89,172.8
			z M87.7,171.8c0-0.6-0.2-1.2-0.5-1.6c-0.4-0.3-0.8-0.5-1.3-0.5c-0.6,0-1.1,0.2-1.5,0.7c-0.4,0.4-0.6,1-0.7,1.6h4L87.7,171.8z"/>
		<path d="M91.9,175.1L91.9,175.1v4.4h-1.2v-10.8h1.2v1.3l0,0c0.9-1.5,2.8-1.9,4.3-1c0.2,0.1,0.4,0.3,0.6,0.5
			c0.6,0.8,0.9,1.7,0.8,2.6c0.1,1.1-0.2,2.1-0.8,3c-0.6,0.8-1.5,1.2-2.5,1.1C93.4,176.5,92.4,176,91.9,175.1z M91.9,172.1v1
			c0.1,1.2,1,2.1,2.1,2.1c0.6,0,1.3-0.3,1.6-0.8c0.4-0.7,0.7-1.5,0.7-2.3c0-0.7-0.1-1.4-0.5-2c-0.3-0.5-0.9-0.7-1.5-0.7
			c-0.6-0.1-1.2,0.2-1.7,0.7C92.2,170.7,91.9,171.4,91.9,172.1L91.9,172.1z"/>
		<path d="M102.5,176.4c-1,0-1.9-0.3-2.6-1c-0.7-0.8-1.1-1.8-1-2.8c-0.1-1.1,0.3-2.2,1-3c0.8-0.7,1.8-1,2.8-1c1,0,1.9,0.3,2.6,1
			c1.3,1.6,1.3,4,0,5.6C104.6,176,103.5,176.5,102.5,176.4z M102.6,169.7c-0.7,0-1.4,0.3-1.8,0.8c-0.5,0.6-0.7,1.4-0.7,2.1
			c-0.1,0.8,0.2,1.5,0.7,2.1c0.9,1,2.4,1.1,3.4,0.2c0.1-0.1,0.2-0.1,0.2-0.2c0.9-1.3,0.9-3,0-4.3C104,169.9,103.3,169.6,102.6,169.7
			L102.6,169.7z"/>
		<path d="M107.7,175.9v-1.3c0.6,0.5,1.4,0.7,2.1,0.7c1,0,1.5-0.3,1.5-1c0-0.2,0-0.4-0.2-0.5c-0.2-0.2-0.2-0.3-0.3-0.3
			c-0.2-0.2-0.3-0.2-0.5-0.3s-0.5-0.2-0.7-0.3c-0.3-0.2-0.5-0.3-0.8-0.3c-0.2-0.1-0.5-0.3-0.7-0.5c-0.2-0.2-0.3-0.3-0.3-0.5
			c-0.2-0.2-0.2-0.5-0.2-0.8c0-0.3,0-0.7,0.2-1c0.1-0.3,0.4-0.5,0.7-0.6c0.3-0.2,0.6-0.3,1-0.3c0.3-0.1,0.7-0.2,1-0.2
			c0.6,0,1.1,0.1,1.6,0.3v1.2c-0.5-0.3-1.2-0.5-1.8-0.5h-0.7c-0.2,0-0.3,0.2-0.5,0.2l-0.3,0.3c0,0.2-0.2,0.3-0.2,0.5
			c0,0.2,0,0.4,0.2,0.5c0,0.2,0.2,0.3,0.3,0.3c0.2,0.2,0.3,0.2,0.5,0.3s0.5,0.2,0.7,0.3c0.3,0.2,0.5,0.3,0.8,0.3
			c0.2,0.1,0.5,0.3,0.7,0.5l0.5,0.5c0.1,0.2,0.2,0.5,0.2,0.8c0,0.3,0,0.7-0.2,1c-0.1,0.3-0.4,0.5-0.7,0.7c-0.3,0.2-0.6,0.3-1,0.3
			c-0.3,0-0.7,0.2-1.2,0.2C108.9,176.4,108.3,176.3,107.7,175.9z"/>
		<path d="M115,166.9c-0.2,0-0.4,0-0.5-0.2c-0.1-0.1-0.2-0.3-0.2-0.5c0-0.3,0.2-0.6,0.5-0.7c0.1,0,0.1,0,0.2,0c0.2,0,0.4,0,0.5,0.2
			c0.1,0.1,0.2,0.3,0.2,0.5c0,0.2,0,0.4-0.2,0.5C115.4,166.9,115.1,166.9,115,166.9z M115.7,176.3h-1.2v-7.4h1.2V176.3z"/>
		<path d="M121.4,176.1c-0.4,0.2-0.8,0.2-1.2,0.2c-1.3,0-2-0.7-2-2.1v-4.3h-1.2v-1h1.3v-1.8l1.2-0.3v2.1h1.8v1h-1.8v4.1
			c0,0.4,0.1,0.7,0.3,1c0.2,0.2,0.5,0.3,0.8,0.3c0.3,0,0.6,0,0.8-0.2v1L121.4,176.1z"/>
		<path d="M126.1,176.4c-1,0-1.9-0.3-2.6-1c-0.7-0.8-1-1.8-1-2.8c-0.1-1.1,0.3-2.2,1-3c0.8-0.7,1.8-1,2.8-1c1,0,1.9,0.3,2.6,1
			c1.5,1.5,1.5,4,0,5.6C128.2,176,127.2,176.4,126.1,176.4L126.1,176.4z M126.1,169.7c-0.7,0-1.4,0.3-1.8,0.8
			c-0.5,0.6-0.7,1.4-0.7,2.1c-0.1,0.8,0.2,1.5,0.7,2.1c0.9,1,2.4,1.1,3.4,0.2c0.1-0.1,0.2-0.1,0.2-0.2c0.9-1.3,0.9-3,0-4.3
			C127.5,169.9,126.8,169.6,126.1,169.7L126.1,169.7z"/>
		<path d="M135.5,170c-0.2-0.1-0.5-0.2-0.8-0.2c-0.5,0-1,0.2-1.3,0.6c-0.4,0.6-0.5,1.3-0.5,2v3.8h-1.1v-7.4h1.1v1.5l0,0
			c0.1-0.5,0.4-0.9,0.8-1.1c0.3-0.3,0.7-0.5,1.1-0.5c0.3,0,0.5,0,0.6,0.2L135.5,170z"/>
		<path d="M142.7,168.9l-3.4,8.6c-0.7,1.5-1.5,2.3-2.6,2.3c-0.3,0-0.6,0-0.8-0.2v-1c0.2,0.1,0.4,0.2,0.7,0.2c0.7,0,1-0.3,1.3-1.1
			l0.6-1.5l-3-7.4h1.3l2,5.8c0,0.2,0.1,0.4,0.2,0.5l0,0c0-0.2,0-0.4,0.2-0.5l2.1-5.8h1.5L142.7,168.9z"/>
	</g>
</g>
<g id="shape1002-4">
	<path class="st1" d="M61.7,0.5h48.8c8.1,0,14.8,6.5,14.8,14.7c0,0,0,0.1,0,0.1V40c0,8.1-6.5,14.8-14.7,14.8c0,0-0.1,0-0.1,0H61.7
		c-8.1,0-14.8-6.5-14.8-14.7c0,0,0-0.1,0-0.1V15.3c0-8.1,6.5-14.8,14.7-14.8C61.6,0.5,61.7,0.5,61.7,0.5z"/>
	<g>
		<path d="M67.3,23.2V12.8h2.8c3.6,0,5.4,1.6,5.4,5.1c0.1,1.4-0.4,2.8-1.5,3.8c-1.1,1-2.6,1.6-4.1,1.5H67.3z M68.5,14v8.2h1.5
			c2.2,0.2,4.1-1.5,4.3-3.7c0-0.2,0-0.4,0-0.6c0-2.6-1.5-3.9-4.3-3.9L68.5,14z"/>
		<path d="M81.4,16.9c-0.2-0.2-0.5-0.2-0.8-0.2c-0.5,0-1,0.2-1.3,0.7c-0.4,0.6-0.5,1.3-0.5,2v3.8h-1.2v-7.4h1.2v1.5l0,0
			c0.1-0.5,0.4-0.9,0.8-1.1c0.3-0.3,0.7-0.5,1.2-0.5c0.3,0,0.5,0,0.7,0.2L81.4,16.9z"/>
		<path d="M85.7,23.4c-1,0.1-1.9-0.3-2.6-1c-0.7-0.8-1.1-1.8-1-2.8c-0.1-1.1,0.3-2.2,1-3c0.8-0.7,1.8-1.1,2.8-1c1-0.1,1.9,0.3,2.6,1
			c0.7,0.8,1.1,1.8,1,2.8c0.1,1-0.3,2-1,2.8C87.8,23,86.8,23.4,85.7,23.4z M85.9,16.6c-0.7,0-1.4,0.3-1.8,0.8
			c-0.5,0.6-0.7,1.4-0.7,2.1c-0.1,0.8,0.2,1.5,0.7,2.1c0.9,1,2.4,1.1,3.4,0.2c0.1-0.1,0.2-0.1,0.2-0.2c0.5-0.6,0.7-1.4,0.7-2.1
			c0.1-0.8-0.1-1.6-0.7-2.1C87.2,16.9,86.6,16.6,85.9,16.6z"/>
		<path d="M97.6,23.2h-1.3v-4.3c0-1.6-0.5-2.3-1.6-2.3c-0.6-0.1-1.1,0.2-1.5,0.7c-0.4,0.5-0.6,1-0.7,1.6v4.3h-1.1v-7.4h1.2v1.1l0,0
			c0.4-1,1.4-1.5,2.5-1.5c0.7,0,1.4,0.3,1.8,0.8c0.5,0.7,0.7,1.5,0.7,2.3v4.6H97.6z"/>
		<path d="M105.6,19.7h-5.3c-0.1,0.7,0.2,1.5,0.7,2c0.5,0.5,1.1,0.7,1.8,0.6c0.8,0,1.6-0.3,2.3-0.8v1.1c-0.8,0.5-1.7,0.7-2.6,0.7
			c-0.9,0-1.8-0.3-2.5-1c-0.6-0.8-0.9-1.8-0.8-2.8c-0.1-1,0.3-2,1-2.8c0.6-0.7,1.5-1.1,2.5-1.1c0.9,0,1.7,0.3,2.3,1
			c0.6,0.7,0.9,1.7,0.8,2.6v0.5L105.6,19.7z M104.5,18.7c0-0.6-0.1-1.1-0.5-1.6c-0.4-0.3-0.8-0.5-1.3-0.5c-0.6,0-1.1,0.2-1.5,0.7
			c-0.4,0.4-0.6,1-0.7,1.6h3.9L104.5,18.7z"/>
	</g>
	<g>
		<path d="M67.5,43.2h-1c-1.5-1.7-2.3-3.9-2.3-6.2c0-2.3,0.8-4.6,2.3-6.4h1.2c-1.5,1.8-2.3,4.1-2.3,6.4C65.2,39.3,66,41.5,67.5,43.2
			z"/>
		<path d="M74.9,37.5h-5.3c-0.1,0.7,0.2,1.5,0.7,2c0.5,0.5,1.1,0.7,1.8,0.7c0.8,0,1.6-0.3,2.3-0.8v1.2c-0.8,0.5-1.7,0.7-2.6,0.7
			c-0.9,0-1.8-0.3-2.5-1c-0.6-0.8-0.9-1.8-0.8-2.8c-0.1-1,0.3-2,1-2.8c0.6-0.7,1.5-1.1,2.5-1.2c0.9,0,1.7,0.3,2.3,1
			c0.6,0.7,0.9,1.7,0.8,2.6v0.5L74.9,37.5z M73.6,36.5c0-0.6-0.2-1.2-0.5-1.6c-0.4-0.3-0.8-0.5-1.3-0.5c-0.6,0-1.1,0.2-1.5,0.7
			c-0.4,0.5-0.6,1-0.7,1.7h4L73.6,36.5z"/>
		<path d="M82.8,40.9h-1.2v-4.3c0-1.7-0.5-2.3-1.6-2.3c-0.6-0.1-1.1,0.2-1.5,0.7c-0.4,0.5-0.6,1-0.7,1.7v4.3h-1.1v-7.4h1.2v1.2l0,0
			c0.4-1,1.4-1.5,2.5-1.5c0.7,0,1.4,0.3,1.8,0.8c0.5,0.7,0.7,1.5,0.7,2.3L82.8,40.9z"/>
		<path d="M88.3,40.9c-0.4,0.1-0.8,0.2-1.2,0.2c-1.3,0-2-0.7-2-2.1v-4.4h-1.3v-1h1.3v-1.8l1.2-0.3v2.1h1.8v1h-1.8v4.1
			c0,0.4,0.1,0.7,0.3,1c0.2,0.2,0.5,0.3,0.8,0.3c0.3,0,0.6,0,0.8-0.2V40.9z"/>
		<path d="M90.7,31.7c-0.2,0-0.4,0-0.5-0.2C90,31.4,90,31.3,90,31.1c0-0.3,0.2-0.6,0.5-0.7c0.1,0,0.1,0,0.2,0
			c0.3-0.1,0.6,0.2,0.7,0.5c0,0.1,0,0.1,0,0.2c0,0.2,0,0.4-0.2,0.5C91,31.6,90.8,31.7,90.7,31.7z M91.2,40.9H90v-7.4h1.2L91.2,40.9z
			"/>
		<path d="M97.1,40.9c-0.4,0.1-0.8,0.2-1.2,0.2c-1.3,0-2-0.7-2-2.1v-4.4h-1.3v-1h1.3v-1.8l1.2-0.3v2.1h1.8v1h-1.8v4.1
			c0,0.4,0.1,0.7,0.3,1c0.2,0.2,0.5,0.3,0.8,0.3c0.3,0,0.6,0,0.8-0.2V40.9z"/>
		<path d="M104.5,33.5l-3.5,8.5c-0.7,1.5-1.5,2.3-2.6,2.3c-0.3,0-0.6,0-0.8-0.2v-1c0.2,0.1,0.4,0.2,0.7,0.2c0.7,0,1-0.3,1.3-1.2
			l0.7-1.5l-3-7.4h1.3l2,5.8c0,0.2,0.1,0.3,0.2,0.5l0,0c0-0.2,0-0.4,0.2-0.5l2.2-5.7h1.5L104.5,33.5z"/>
		<path d="M105.8,43.2h-1c1.5-1.7,2.3-4,2.3-6.3c0-2.3-0.8-4.6-2.3-6.4h1.2c1.5,1.8,2.3,4.1,2.3,6.4
			C108.2,39.3,107.3,41.5,105.8,43.2z"/>
	</g>
</g>
<g id="shape1003-8">
	<path class="st1" d="M171.4,0.5h98.8c8.1,0,14.8,6.5,14.8,14.6c0,0.1,0,0.1,0,0.2V40c0,8.1-6.5,14.8-14.7,14.8c0,0-0.1,0-0.1,0
		h-98.8c-8.1,0-14.8-6.5-14.8-14.6c0-0.1,0-0.1,0-0.2V15.3c0-8.1,6.5-14.8,14.7-14.8C171.3,0.5,171.3,0.5,171.4,0.5z"/>
	<g>
		<path d="M199.6,23.2h-5.3V12.8h1.1V22h4.1V23.2z"/>
		<path d="M204.3,23.4c-1,0.1-1.9-0.3-2.6-1c-0.7-0.8-1.1-1.8-1-2.8c-0.1-1.1,0.3-2.2,1-3c0.8-0.7,1.8-1.1,2.8-1
			c1-0.1,1.9,0.3,2.6,1c0.7,0.8,1.1,1.8,1,2.8c0.1,1-0.3,2-1,2.8C206.3,22.9,205.3,23.4,204.3,23.4z M204.3,16.6
			c-0.7,0-1.4,0.3-1.8,0.8c-0.5,0.6-0.7,1.4-0.7,2.1c-0.1,0.8,0.2,1.5,0.7,2.1c0.9,1,2.4,1.1,3.4,0.2c0.1-0.1,0.2-0.1,0.2-0.2
			c0.5-0.6,0.7-1.4,0.7-2.1c0.1-0.8-0.2-1.5-0.7-2.1C205.6,16.9,204.9,16.6,204.3,16.6z"/>
		<path d="M214.8,22.9c-0.6,0.3-1.3,0.5-2,0.5c-1,0-1.9-0.3-2.6-1c-0.7-0.7-1-1.7-1-2.6c0-1.1,0.3-2.1,1-3c0.7-0.8,1.8-1.2,2.9-1.1
			c0.6,0,1.1,0.1,1.6,0.3v1.2c-0.5-0.4-1.2-0.6-1.8-0.6c-0.7,0-1.4,0.3-1.8,0.8c-0.5,0.6-0.7,1.4-0.7,2.1c-0.1,0.7,0.2,1.5,0.7,2
			c0.5,0.5,1.1,0.8,1.8,0.8c0.7,0,1.3-0.2,1.8-0.7v1.3L214.8,22.9z"/>
		<path d="M222,23.2h-1.3V22l0,0c-0.5,0.8-1.4,1.3-2.3,1.3c-0.7,0-1.3-0.2-1.8-0.7c-0.4-0.4-0.7-0.9-0.7-1.5c0-1.3,0.8-2.1,2.5-2.5
			l2.1-0.3c0-1.3-0.5-1.8-1.5-1.8c-0.9,0-1.8,0.4-2.5,1v-1.1c0.7-0.5,1.6-0.7,2.5-0.7c1.8,0,2.6,1,2.6,2.8v4.6L222,23.2z
			 M220.7,19.4l-1.8,0.2c-0.5,0-0.9,0.1-1.3,0.3c-0.4,0.2-0.6,0.6-0.5,1c0,0.3,0.1,0.6,0.3,0.8c0.3,0.2,0.6,0.3,1,0.3
			c0.6,0.1,1.1-0.2,1.5-0.7c0.3-0.5,0.5-1.1,0.5-1.6v-0.4L220.7,19.4z"/>
		<path d="M227.6,23.2c-0.4,0.1-0.8,0.2-1.1,0.2c-1.3,0-2-0.7-2-2.1v-4.4h-1.3v-1h1.3V14l1.1-0.3v2.1h1.8v1h-1.8v4.1
			c0,0.4,0.1,0.7,0.3,1c0.2,0.2,0.5,0.3,0.8,0.3c0.3,0,0.6,0,0.8-0.2L227.6,23.2z"/>
		<path d="M229.7,14c-0.3,0-0.6-0.2-0.7-0.5c0-0.1,0-0.1,0-0.2c0-0.2,0-0.4,0.2-0.5c0.3-0.2,0.7-0.2,1,0c0.1,0.1,0.2,0.3,0.2,0.5
			c0,0.2,0,0.4-0.2,0.5C230.1,14,229.9,14,229.7,14z M230.4,23.2h-1.1v-7.4h1.1V23.2z"/>
		<path d="M235.8,23.4c-1,0.1-1.9-0.3-2.6-1c-0.7-0.8-1.1-1.8-1-2.8c-0.1-1.1,0.3-2.2,1-3c0.8-0.7,1.8-1.1,2.8-1
			c1-0.1,1.9,0.3,2.6,1c0.7,0.8,1,1.8,1,2.8c0,1-0.3,2-1,2.8C237.9,23,236.9,23.4,235.8,23.4z M236,16.6c-0.7,0-1.4,0.3-1.8,0.8
			c-0.5,0.6-0.7,1.4-0.7,2.1c-0.1,0.8,0.2,1.5,0.7,2.1c0.5,0.5,1.1,0.8,1.8,0.8c0.7,0,1.4-0.3,1.8-0.8c0.5-0.6,0.7-1.4,0.6-2.1
			c0.1-0.8-0.1-1.5-0.6-2.1C237.3,16.9,236.7,16.6,236,16.6L236,16.6z"/>
		<path d="M247.6,23.2h-1.1v-4.3c0-1.6-0.5-2.3-1.6-2.3c-0.6-0.1-1.1,0.2-1.5,0.7c-0.4,0.5-0.6,1-0.6,1.6v4.3h-1.1v-7.4h1.1v1.1l0,0
			c0.4-1,1.4-1.5,2.5-1.5c0.7,0,1.4,0.3,1.8,0.8c0.5,0.7,0.7,1.5,0.7,2.3L247.6,23.2z"/>
	</g>
	<g>
		<path d="M181.2,43.2h-1c-1.5-1.7-2.3-4-2.2-6.2c0-2.3,0.8-4.6,2.3-6.4h1c-1.5,1.8-2.3,4.1-2.3,6.4C179,39.3,179.8,41.5,181.2,43.2
			z"/>
		<path d="M188.3,33.5l-3,7.4h-1.1l-2.8-7.4h1.3l1.8,5.5c0.2,0.3,0.2,0.8,0.3,1l0,0c0-0.3,0.2-0.7,0.2-1l2-5.4L188.3,33.5z"/>
		<path d="M194.9,40.9h-1.1v-1.1l0,0c-0.5,0.8-1.4,1.3-2.3,1.3c-0.7,0-1.3-0.2-1.8-0.7c-0.4-0.4-0.6-0.9-0.6-1.5
			c0-1.3,0.8-2.1,2.5-2.5l2.1-0.3c0-1.3-0.5-1.8-1.5-1.8c-0.9,0-1.8,0.4-2.5,1v-1.2c0.7-0.5,1.6-0.7,2.5-0.7c1.8,0,2.6,1,2.6,2.8
			v4.6H194.9z M193.7,37.2l-1.8,0.2c-0.5,0-0.9,0.1-1.3,0.3c-0.4,0.2-0.5,0.6-0.5,1c0,0.3,0.1,0.6,0.3,0.8c0.3,0.2,0.6,0.3,1,0.3
			c0.6,0.1,1.1-0.2,1.5-0.7c0.3-0.5,0.5-1.1,0.5-1.6v-0.3L193.7,37.2z"/>
		<path d="M198.3,40.9h-1.1v-11h1.1V40.9z"/>
		<path d="M206.7,40.9h-1.2v-1.1l0,0c-0.5,0.8-1.4,1.3-2.3,1.3c-1.8,0-2.6-1-2.6-3.1v-4.4h1.1v4.3c0,1.5,0.7,2.3,1.8,2.3
			c0.6,0,1.1-0.2,1.5-0.7c0.3-0.5,0.5-1.1,0.5-1.6v-4.3h1.2L206.7,40.9z"/>
		<path d="M215.1,37.5h-5.3c-0.1,0.7,0.2,1.5,0.7,2c0.5,0.5,1.1,0.7,1.8,0.7c0.8,0,1.6-0.3,2.3-0.8v1.2c-0.8,0.5-1.7,0.7-2.6,0.7
			c-0.9,0-1.8-0.3-2.5-1c-0.6-0.8-0.9-1.8-0.8-2.8c0-1,0.3-2,1-2.8c0.6-0.7,1.5-1.1,2.5-1.2c0.9,0,1.7,0.3,2.3,1
			c0.6,0.7,0.9,1.7,0.8,2.6v0.5L215.1,37.5z M213.8,36.5c0-0.6-0.2-1.2-0.5-1.6c-0.4-0.3-0.8-0.5-1.3-0.5c-0.6,0-1.1,0.2-1.5,0.7
			c-0.4,0.5-0.6,1-0.7,1.7h3.9V36.5z"/>
		<path d="M224,41.1c-1,0.1-1.9-0.3-2.6-1c-0.7-0.8-1.1-1.8-1-2.8c-0.1-1.1,0.3-2.2,1-3c0.8-0.7,1.8-1.1,2.8-1c1,0,1.9,0.3,2.6,1
			c0.7,0.8,1.1,1.8,1,2.8c0.1,1-0.3,2-1,2.8C226.1,40.7,225.1,41.1,224,41.1z M224.2,34.4c-0.7,0-1.4,0.3-1.8,0.8
			c-0.5,0.6-0.7,1.4-0.7,2.1c-0.1,0.8,0.2,1.5,0.7,2.1c0.9,1,2.4,1.1,3.4,0.2c0.1-0.1,0.2-0.1,0.2-0.2c0.5-0.6,0.7-1.4,0.7-2.1
			c0.1-0.8-0.2-1.5-0.7-2.1C225.5,34.7,224.8,34.4,224.2,34.4L224.2,34.4z"/>
		<path d="M230.7,39.8L230.7,39.8v1.2h-1.1v-11h1.1v4.9l0,0c0.5-0.9,1.6-1.5,2.6-1.5c0.9,0,1.7,0.3,2.3,1c0.6,0.8,0.8,1.7,0.8,2.6
			c0.1,1.1-0.2,2.1-0.8,3c-0.6,0.8-1.5,1.2-2.5,1.2C232.1,41.3,231.2,40.7,230.7,39.8z M230.7,36.8v1c0,1.2,0.9,2.2,2.1,2.2
			c0.7,0,1.3-0.3,1.6-0.8c0.4-0.7,0.7-1.5,0.6-2.3c0-0.7-0.1-1.4-0.5-2c-0.3-0.5-0.9-0.7-1.5-0.7c-0.6-0.1-1.2,0.2-1.6,0.7
			C231.1,35.4,230.8,36.1,230.7,36.8L230.7,36.8z"/>
		<path d="M239.4,40.6c0.1,1-0.2,2-0.7,2.8c-0.5,0.7-1.3,1.1-2.1,1c-0.3,0-0.7,0-1-0.2v-1.2c0.3,0.2,0.6,0.3,1,0.3
			c1.2,0,1.6-0.8,1.6-2.6v-7.2h1.1L239.4,40.6z M238.9,31.7c-0.2,0-0.4,0-0.5-0.2c-0.1-0.1-0.2-0.3-0.2-0.5
			c-0.1-0.3,0.2-0.6,0.5-0.7c0.1,0,0.1,0,0.2,0c0.2,0,0.4,0,0.5,0.2c0.1,0.1,0.2,0.3,0.2,0.5c0,0.2,0,0.4-0.2,0.5
			C239.3,31.6,239.1,31.7,238.9,31.7L238.9,31.7z"/>
		<path d="M247.8,37.5h-5.3c-0.1,0.7,0.2,1.5,0.7,2c0.5,0.5,1.1,0.7,1.8,0.7c0.8,0,1.6-0.3,2.3-0.8v1.2c-0.8,0.5-1.7,0.7-2.6,0.7
			c-0.9,0-1.8-0.3-2.5-1c-0.6-0.8-0.9-1.8-0.8-2.8c-0.1-1,0.3-2,1-2.8c0.6-0.7,1.5-1.1,2.5-1.2c0.9,0,1.7,0.3,2.3,1
			c0.6,0.7,0.9,1.7,0.8,2.6v0.5L247.8,37.5z M246.7,36.5c0-0.6-0.2-1.2-0.5-1.6c-0.4-0.3-0.8-0.5-1.3-0.5c-0.6,0-1.1,0.2-1.5,0.7
			c-0.4,0.5-0.6,1-0.6,1.7h3.9V36.5z"/>
		<path d="M254.6,40.6c-0.6,0.3-1.3,0.5-2,0.5c-1.9,0.1-3.5-1.3-3.6-3.2c0-0.1,0-0.3,0-0.4c0-1.1,0.3-2.2,1-3
			c0.7-0.8,1.7-1.2,2.8-1.2c0.6,0,1.1,0.1,1.6,0.3v1.2c-0.5-0.4-1.2-0.6-1.8-0.7c-0.7,0-1.4,0.3-1.8,0.8c-0.5,0.6-0.7,1.4-0.7,2.1
			c-0.1,0.7,0.2,1.5,0.7,2c0.5,0.5,1.1,0.8,1.8,0.8c0.7,0,1.3-0.2,1.8-0.7v1.3L254.6,40.6z"/>
		<path d="M259.8,40.9c-0.4,0.1-0.8,0.2-1.1,0.2c-1.3,0-2-0.7-2-2.1v-4.4h-1.3v-1h1.5v-1.8l1.2-0.3v2.1h1.8v1H258v4.1
			c0,0.4,0.1,0.7,0.3,1c0.2,0.2,0.5,0.3,0.8,0.3c0.3,0,0.6,0,0.8-0.2V41L259.8,40.9z"/>
		<path d="M261.5,43.2h-1c1.5-1.7,2.3-4,2.3-6.3c0-2.3-0.8-4.6-2.3-6.4h1.1c1.5,1.8,2.3,4.1,2.3,6.4C263.8,39.3,263,41.5,261.5,43.2
			z"/>
	</g>
</g>
<g id="shape1005-18">
	<rect x="0.4" y="240.4" class="st0" width="171.5" height="68.6"/>
	<g>
		<path d="M53.8,279.3v-10.4h2.8c3.6,0,5.4,1.6,5.4,5.1c0.1,1.4-0.4,2.8-1.5,3.8c-1.1,1-2.6,1.6-4.1,1.5L53.8,279.3z M55,269.9v8.2
			h1.5c2.2,0.2,4.1-1.5,4.3-3.7c0-0.2,0-0.4,0-0.6c0-2.6-1.5-4-4.3-4H55z"/>
		<path d="M69.3,279.3h-1.2v-1.1l0,0c-0.5,0.8-1.4,1.3-2.3,1.3c-0.7,0-1.3-0.2-1.8-0.7c-0.4-0.4-0.7-0.9-0.7-1.5
			c0-1.3,0.8-2.1,2.5-2.5l2.1-0.3c0-1.3-0.5-1.8-1.5-1.8c-0.9,0-1.8,0.4-2.5,1v-1.1c0.7-0.5,1.6-0.7,2.5-0.7c1.8,0,2.6,1,2.6,2.8
			v4.6L69.3,279.3z M68.1,275.5l-1.8,0.2c-0.5,0-0.9,0.2-1.3,0.4c-0.4,0.2-0.5,0.6-0.5,1c0,0.3,0.1,0.6,0.3,0.8
			c0.3,0.2,0.6,0.3,1,0.3c0.6,0.1,1.1-0.2,1.5-0.7c0.3-0.5,0.5-1.1,0.5-1.6v-0.3L68.1,275.5z"/>
		<path d="M75,279.1c-0.4,0.1-0.8,0.2-1.2,0.2c-1.3,0-2-0.7-2-2.1v-4.3h-1.3v-1h1.3V270l1.2-0.3v2.1h1.8v1H73v4.2
			c0,0.4,0.1,0.7,0.3,1c0.2,0.2,0.5,0.3,0.8,0.3c0.3,0,0.6,0,0.8-0.2L75,279.1z"/>
		<path d="M81.9,279.3h-1.2v-1.1l0,0c-0.5,0.8-1.4,1.3-2.3,1.3c-0.7,0-1.3-0.2-1.8-0.7c-0.4-0.4-0.7-0.9-0.7-1.5
			c0-1.3,0.8-2.1,2.5-2.5l2.1-0.3c0-1.3-0.5-1.8-1.5-1.8c-0.9,0-1.8,0.4-2.5,1v-1.1c0.7-0.5,1.6-0.7,2.5-0.7c1.8,0,2.6,1,2.6,2.8
			v4.6L81.9,279.3z M80.6,275.5l-1.8,0.2c-0.5,0-0.9,0.1-1.3,0.3c-0.4,0.2-0.5,0.6-0.5,1c0,0.3,0.1,0.6,0.3,0.8
			c0.3,0.2,0.6,0.3,1,0.3c0.6,0.1,1.1-0.2,1.5-0.7c0.3-0.5,0.5-1.1,0.5-1.6v-0.3L80.6,275.5z"/>
		<path d="M87.7,278.9v-1.3c0.6,0.5,1.4,0.7,2.1,0.6c1,0,1.5-0.3,1.5-1c0-0.2,0-0.4-0.2-0.5c-0.2-0.2-0.2-0.3-0.3-0.3
			c-0.2-0.2-0.3-0.2-0.5-0.3s-0.5-0.2-0.7-0.3c-0.3-0.2-0.5-0.3-0.8-0.3c-0.2-0.1-0.5-0.3-0.7-0.5c-0.2-0.2-0.3-0.3-0.3-0.5
			c-0.1-0.2-0.2-0.5-0.2-0.8c0-0.3,0-0.7,0.2-1c0.1-0.3,0.4-0.5,0.7-0.7c0.3-0.2,0.6-0.3,1-0.3c0.3-0.1,0.7-0.2,1-0.2
			c0.6,0,1.1,0.1,1.7,0.3v1.2c-0.5-0.3-1.2-0.5-1.8-0.5h-0.7c-0.2,0-0.3,0.2-0.5,0.2l-0.3,0.3c0,0.2-0.2,0.3-0.2,0.5
			c0,0.2,0,0.4,0.2,0.5c0,0.2,0.2,0.3,0.3,0.3c0.2,0.2,0.3,0.2,0.5,0.3s0.5,0.2,0.7,0.3c0.3,0.2,0.5,0.3,0.8,0.3
			c0.2,0.1,0.5,0.3,0.7,0.5l0.5,0.5c0.1,0.2,0.2,0.5,0.2,0.8c0,0.3,0,0.7-0.2,1c-0.1,0.3-0.4,0.5-0.7,0.7c-0.3,0.2-0.6,0.3-1,0.3
			c-0.3,0-0.7,0.2-1.2,0.2C88.9,279.4,88.2,279.3,87.7,278.9z"/>
		<path d="M97.9,279.1c-0.4,0.1-0.8,0.2-1.2,0.2c-1.3,0-2-0.7-2-2.1v-4.3h-1.3v-1h1.3V270l1.2-0.3v2.1h1.8v1h-1.8v4.2
			c0,0.4,0.1,0.7,0.3,1c0.2,0.2,0.5,0.3,0.8,0.3c0.3,0,0.6,0,0.8-0.2V279.1z"/>
		<path d="M102.5,279.4c-1,0.1-1.9-0.3-2.6-1c-0.7-0.8-1.1-1.8-1-2.8c-0.1-1.1,0.3-2.1,1-3c0.8-0.7,1.8-1.1,2.8-1
			c1-0.1,1.9,0.3,2.6,1c1.3,1.6,1.3,3.9,0,5.6C104.6,279.1,103.5,279.5,102.5,279.4z M102.6,272.7c-0.7,0-1.4,0.3-1.8,0.8
			c-0.5,0.6-0.8,1.4-0.7,2.1c-0.1,0.8,0.2,1.5,0.7,2.1c0.9,1,2.4,1.1,3.4,0.2c0.1-0.1,0.2-0.1,0.2-0.2c0.9-1.3,0.9-3,0-4.3
			C104,272.9,103.3,272.6,102.6,272.7L102.6,272.7z"/>
		<path d="M112,273c-0.3-0.1-0.5-0.2-0.8-0.2c-0.5,0-1,0.2-1.3,0.7c-0.4,0.6-0.5,1.3-0.5,2v3.8h-1.2v-7.4h1.2v1.5l0,0
			c0.1-0.5,0.4-0.9,0.8-1.1c0.3-0.3,0.7-0.5,1.2-0.5c0.3,0,0.5,0,0.7,0.2L112,273z"/>
		<path d="M119.2,275.8H114c-0.1,0.7,0.2,1.5,0.7,2c0.5,0.5,1.1,0.7,1.8,0.7c0.8,0,1.6-0.3,2.3-0.8v1.1c-0.8,0.5-1.7,0.7-2.6,0.7
			c-0.9,0-1.8-0.3-2.5-1c-0.6-0.8-0.9-1.8-0.8-2.8c0-1,0.3-2,1-2.8c0.6-0.7,1.5-1.1,2.5-1.1c0.9,0,1.7,0.3,2.3,1
			c0.6,0.7,0.9,1.7,0.8,2.6v0.5L119.2,275.8z M117.9,274.8c0-0.6-0.2-1.2-0.5-1.6c-0.4-0.3-0.8-0.5-1.3-0.5c-0.6,0-1.1,0.2-1.5,0.6
			c-0.4,0.5-0.6,1.1-0.6,1.7h3.9L117.9,274.8z"/>
	</g>
</g>
<g id="shape1007-27">
	<rect x="4.9" y="208.7" class="st2" width="62.6" height="29.3"/>
	<g>
		<path d="M19,225.1c0,0.4-0.1,0.8-0.3,1.1c-0.2,0.4-0.5,0.6-0.8,0.8c-0.4,0.2-0.8,0.4-1.1,0.5c-0.5,0.1-1,0.2-1.5,0.2h-1.5
			c-0.2,0-0.5,0-0.7-0.2c-0.2-0.2-0.3,0-0.5-0.2v-1.3c0.3,0.2,0.8,0.2,1.1,0.3c0.5,0,1,0.2,1.5,0.2s0.8,0,1-0.2
			c0.3,0,0.5-0.1,0.7-0.3c0.2-0.2,0.3-0.3,0.3-0.5c0.2-0.2,0.2-0.3,0.2-0.7s0-0.5-0.2-0.7l-0.5-0.5c-0.2-0.2-0.5-0.3-0.8-0.3
			c-0.3-0.2-0.7-0.2-1-0.3c-0.3-0.2-0.6-0.3-1-0.3c-0.3-0.2-0.5-0.3-0.8-0.5c-0.2-0.2-0.5-0.5-0.5-0.7s-0.2-0.7-0.2-1
			c0-0.3,0-0.7,0.2-1c0.1-0.3,0.4-0.6,0.7-0.8c0.4-0.3,0.7-0.5,1.1-0.7c0.5-0.1,1.1-0.2,1.6-0.2h1c0.2,0,0.4,0,0.5,0.2
			c0.2,0,0.4,0,0.5,0.2v1.1c-0.4-0.1-0.8-0.2-1.1-0.2c-0.3,0-0.7-0.2-1.1-0.2c-0.6,0-1.1,0.1-1.6,0.3c-0.3,0.2-0.5,0.6-0.5,1
			c0,0.3,0,0.5,0.2,0.7l0.5,0.5c0.2,0.2,0.5,0.3,0.8,0.3c0.3,0.2,0.7,0.2,1,0.3l1,0.5c0.3,0.2,0.5,0.3,0.8,0.5
			c0.2,0.2,0.5,0.5,0.5,0.6C18.8,224.4,19,224.8,19,225.1z"/>
		<path d="M26.7,227.7h-5.4v-9.5h5.4v1.1h-4.1v3h3.9v1.1h-3.9v3.3h4.1V227.7z"/>
		<path d="M35.1,227.7h-5.4v-9.5H31v8.4h4.1L35.1,227.7z"/>
		<path d="M43,227.7h-5.4v-9.5H43v1.1h-4.1v3h4v1.1h-4v3.3H43V227.7z"/>
		<path d="M51.6,227.4c-0.7,0.3-1.5,0.5-2.3,0.5c-1.2,0.1-2.3-0.3-3.1-1.1c-0.8-1-1.2-2.3-1.1-3.6c0-0.7,0.1-1.4,0.3-2
			c0.1-0.6,0.4-1.1,0.8-1.5c0.3-0.5,0.8-0.8,1.3-1c0.6-0.2,1.2-0.3,1.8-0.3c0.4,0,0.8,0,1.2,0.2c0.4,0.1,0.8,0.2,1.2,0.3v1.3l-1-0.5
			c-0.4-0.1-0.8-0.2-1.2-0.2c-0.4-0.1-0.8,0.1-1.2,0.3c-0.4,0.2-0.7,0.4-1,0.7c-0.3,0.3-0.5,0.7-0.7,1.1c-0.1,0.5-0.2,1-0.2,1.5
			c0,1,0.3,2,0.8,2.8c0.5,0.7,1.3,1.1,2.1,1c0.4,0,0.8,0,1.2-0.2c0.4-0.1,0.8-0.2,1.2-0.3v1L51.6,227.4z"/>
		<path d="M59.9,219.4h-2.8v8.4h-1.3v-8.4H53v-1.2h6.9L59.9,219.4z"/>
	</g>
</g>
<g id="shape1009-35">
	<rect x="90.6" y="83.4" class="st2" width="91.4" height="29.3"/>
	<g>
		<path d="M121.4,98.2c0,3-1.3,4.4-4,4.4c-2.5,0-3.8-1.5-3.8-4.3v-6.4h1.2v6.3c0,2.1,0.8,3.1,2.6,3.1s2.6-1,2.6-3.1v-6.4h1.2v6.4
			H121.4z"/>
		<path d="M125,101.3L125,101.3v4.4h-1.2V94.9h1.2v1.3l0,0c0.5-0.9,1.6-1.5,2.6-1.5c0.9,0,1.7,0.3,2.3,1c0.6,0.8,0.8,1.7,0.8,2.6
			c0.1,1.1-0.2,2.1-0.8,3c-0.6,0.8-1.5,1.2-2.5,1.2C126.5,102.7,125.5,102.2,125,101.3z M125,98.3v1c0.1,1.2,1,2.1,2.1,2.1
			c0.7,0,1.3-0.3,1.7-0.8c0.4-0.7,0.7-1.5,0.6-2.3c0-0.7-0.1-1.4-0.5-2c-0.3-0.5-0.9-0.7-1.5-0.7c-0.6-0.1-1.2,0.2-1.6,0.7
			C125.3,96.8,125,97.6,125,98.3L125,98.3z"/>
		<path d="M138.8,102.4h-1.1v-1.3l0,0c-0.4,0.9-1.4,1.5-2.5,1.5c-0.9,0-1.7-0.3-2.3-1c-0.5-0.8-0.8-1.7-0.8-2.6c0-1.1,0.3-2.2,1-3
			c0.6-0.7,1.5-1.1,2.5-1.2c0.9-0.1,1.7,0.4,2.1,1.2l0,0v-4.6h1.1V102.4z M137.6,99v-1.2c0.1-0.6-0.2-1.1-0.6-1.5
			c-0.4-0.4-0.9-0.6-1.5-0.7c-0.7,0-1.3,0.3-1.6,0.8c-0.4,0.6-0.6,1.4-0.7,2.1c-0.1,0.7,0.2,1.5,0.7,2c0.4,0.5,1,0.8,1.6,0.8
			c0.6,0,1.2-0.2,1.6-0.7C137.5,100.3,137.6,99.6,137.6,99z"/>
		<path d="M146.5,102.4h-1.1v-1.2l0,0c-0.5,0.8-1.4,1.3-2.3,1.3c-0.7,0-1.3-0.2-1.8-0.7c-0.4-0.4-0.7-0.9-0.7-1.5
			c0-1.3,0.8-2.1,2.5-2.5l2.1-0.3c0-1.3-0.5-1.8-1.5-1.8c-0.9,0-1.8,0.4-2.5,1v-1.2c0.7-0.5,1.6-0.7,2.5-0.7c1.8,0,2.6,1,2.6,2.8
			v4.6H146.5z M145.4,98.7l-1.8,0.2c-0.5,0-0.9,0.1-1.3,0.3c-0.4,0.2-0.6,0.6-0.5,1c0,0.3,0.1,0.6,0.3,0.8c0.3,0.2,0.6,0.3,1,0.3
			c0.6,0.1,1.1-0.2,1.5-0.7c0.3-0.5,0.5-1.1,0.4-1.6v-0.3L145.4,98.7z"/>
		<path d="M152.1,102.3c-0.4,0.1-0.8,0.2-1.1,0.2c-1.3,0-2-0.7-2-2.1v-4.4h-1.3v-1h1.4v-1.8l1.1-0.3v2.1h1.9v1h-1.8v4.1
			c0,0.4,0.1,0.7,0.3,1c0.2,0.2,0.5,0.3,0.8,0.3c0.3,0,0.6,0,0.8-0.2L152.1,102.3z"/>
		<path d="M159.7,99h-5.3c-0.1,0.7,0.2,1.5,0.7,2c0.5,0.5,1.1,0.7,1.8,0.7c0.8,0,1.6-0.3,2.3-0.8v1.2c-0.8,0.5-1.7,0.7-2.6,0.7
			c-0.9,0-1.8-0.3-2.5-1c-0.6-0.8-0.9-1.8-0.8-2.8c-0.1-1,0.3-2,1-2.8c0.6-0.7,1.5-1.1,2.5-1.2c0.9,0,1.7,0.3,2.3,1
			c0.6,0.7,0.9,1.7,0.8,2.6V99H159.7z M158.5,98c0-0.6-0.2-1.2-0.5-1.6c-0.4-0.3-0.8-0.5-1.3-0.5c-0.6,0-1.1,0.2-1.5,0.7
			c-0.4,0.5-0.6,1-0.6,1.7h3.9V98z"/>
	</g>
</g>
<g id="shape1011-43">
	<rect x="112.2" y="209.3" class="st2" width="62.6" height="29.3"/>
	<g>
		<path d="M126.5,225.1c0,0.5,0,1-0.2,1.5c-0.1,0.4-0.3,0.8-0.7,1.1c-0.3,0.3-0.6,0.5-1,0.7c-0.5,0.1-1,0.2-1.5,0.2
			c-0.5,0-1,0-1.5-0.2c-0.3-0.2-0.8-0.3-1-0.7c-0.3-0.3-0.5-0.6-0.5-1c-0.2-0.4-0.2-0.9-0.2-1.3v-6.6h1.3v6.3c0,0.3,0,0.7,0.2,1
			c0,0.3,0.1,0.5,0.3,0.7c0.2,0.2,0.4,0.4,0.7,0.5c0.3,0.2,0.7,0.2,1,0.2c0.6,0.1,1.1-0.2,1.5-0.7c0.4-0.5,0.5-1.1,0.5-1.6v-6.3h1.3
			v6.3L126.5,225.1z"/>
		<path d="M134.6,221.8c0,0.4,0,0.8-0.2,1.1c-0.2,0.4-0.4,0.7-0.6,1c-0.3,0.3-0.7,0.5-1.1,0.6c-0.5,0.2-1.1,0.3-1.6,0.3h-1.2v3.5
			h-1.3v-9.5h2.6c0.4,0,0.9,0,1.3,0.2c0.4,0.1,0.8,0.3,1.1,0.5c0.4,0.2,0.6,0.5,0.8,0.8C134.5,220.8,134.6,221.3,134.6,221.8z
			 M133.2,221.8c0-0.7-0.2-1.1-0.6-1.3c-0.5-0.4-1.1-0.5-1.7-0.5h-1.3v3.9h1.2c0.6,0,1.3-0.1,1.8-0.5
			C133,223,133.3,222.4,133.2,221.8z"/>
		<path d="M142.9,223.4c0,0.4,0,0.9-0.2,1.3c-0.2,0.5-0.2,0.8-0.3,1.1c-0.2,0.4-0.4,0.7-0.7,1c-0.2,0.3-0.5,0.5-0.8,0.8
			s-0.8,0.3-1.3,0.5c-0.5,0.1-1.1,0.2-1.6,0.2h-2v-9.5h2.5c1.2-0.1,2.4,0.3,3.3,1.1C142.6,220.9,143,222.2,142.9,223.4z
			 M141.6,223.6c0-0.6,0-1.1-0.2-1.6c-0.2-0.3-0.3-0.8-0.5-1.1s-0.7-0.5-1-0.6c-0.4-0.2-0.9-0.2-1.3-0.2h-1.1v7.2h1
			C140.6,227.2,141.6,226.1,141.6,223.6z"/>
		<path d="M151.6,228.4h-1.5l-0.7-2.1h-3.9l-0.6,2.1h-1.3l3.1-9.5h1.8L151.6,228.4z M149.2,225.1l-1.6-5.1l-1.6,5.1H149.2z"/>
		<path d="M159.2,220h-2.8v8.4h-1.3V220h-2.8v-1.1h6.9V220z"/>
		<path d="M166.6,228.4h-5.4v-9.5h5.4v1.2h-4.1v3h3.9v1.1h-3.9v3.3h4.1V228.4z"/>
	</g>
</g>
<g id="shape1013-51">
	<rect x="10.5" y="83.4" class="st2" width="78.4" height="29.3"/>
	<g>
		<path d="M42.3,93.1h-4.1v3.6H42v1.2h-3.8v4.6h-1.2V92.1h5.3V93.1z"/>
		<path d="M44.7,93.1c-0.2,0-0.4,0-0.5-0.2C44,92.8,44,92.6,44,92.4c0-0.3,0.2-0.6,0.5-0.7c0.1,0,0.1,0,0.2,0c0.2,0,0.4,0,0.5,0.2
			c0.1,0.1,0.2,0.3,0.2,0.5c0,0.2,0,0.4-0.2,0.5C45.2,93.1,45,93.1,44.7,93.1z M45.3,102.4h-1.2V95h1.2V102.4z"/>
		<path d="M53.9,102.4h-1.2v-4.3c0-1.7-0.5-2.3-1.7-2.3c-0.6-0.1-1.1,0.2-1.5,0.7c-0.4,0.5-0.6,1-0.7,1.7v4.3h-1.1V95h1.2v1.2l0,0
			c0.4-1,1.4-1.5,2.5-1.5c0.7,0,1.4,0.3,1.8,0.8c0.5,0.7,0.7,1.5,0.7,2.3V102.4z"/>
		<path d="M62.4,102.4h-1.2v-1.3l0,0c-0.4,0.9-1.4,1.5-2.5,1.5c-0.9,0-1.7-0.3-2.3-1c-1.1-1.7-1.1-4,0.2-5.6
			c0.6-0.7,1.5-1.1,2.5-1.2c0.9-0.1,1.7,0.3,2.1,1.2l0,0v-4.6h1.2V102.4z M61.3,99v-1.2c0.1-0.6-0.2-1.1-0.7-1.5
			c-0.4-0.4-0.9-0.6-1.5-0.7c-0.6,0-1.3,0.3-1.6,0.8c-0.4,0.6-0.6,1.4-0.7,2.1c-0.1,0.7,0.2,1.5,0.7,2c0.4,0.5,1,0.8,1.6,0.8
			c0.6,0,1.2-0.2,1.6-0.7C61.1,100.3,61.2,99.6,61.3,99z"/>
	</g>
</g>
<line class="st3" x1="125.4" y1="27.6" x2="148.4" y2="27.6"/>
<polygon points="146.7,33.2 156.6,27.6 146.7,22 "/>
<line class="st3" x1="73.8" y1="54.8" x2="73.8" y2="129.4"/>
<polygon points="68.2,127.8 73.8,137.6 79.3,127.8 "/>
<line class="st3" x1="73.8" y1="206.7" x2="73.8" y2="232.3"/>
<polygon points="68.2,230.7 73.8,240.5 79.3,230.7 "/>
<line class="st3" x1="107.7" y1="54.7" x2="107.7" y2="129.4"/>
<polygon points="102.1,127.7 107.7,137.6 113.3,127.7 "/>
<line class="st3" x1="110.1" y1="206" x2="110.1" y2="231.6"/>
<polygon points="104.5,230 110.1,239.9 115.7,230 "/>
</svg>
