<?xml version="1.0" encoding="utf-8"?>
<!-- Generator: Adobe Illustrator 22.0.1, SVG Export Plug-In . SVG Version: 6.00 Build 0)  -->
<svg version="1.1"
	 id="Layer_1" xmlns:ev="http://www.w3.org/2001/xml-events" xmlns:v="http://schemas.microsoft.com/visio/2003/SVGExtensions/"
	 xmlns="http://www.w3.org/2000/svg" xmlns:xlink="http://www.w3.org/1999/xlink" x="0px" y="0px" viewBox="0 0 174 188.5"
	 style="enable-background:new 0 0 174 188.5;" xml:space="preserve">
<style type="text/css">
	.st0{fill:#FFFFFF;stroke:#000000;stroke-width:0.75;stroke-linecap:round;stroke-linejoin:round;stroke-miterlimit:3;}
	.st1{enable-background:new    ;}
	.st2{fill:#FFFFFF;stroke:#7F7F7F;stroke-linecap:round;stroke-linejoin:round;stroke-miterlimit:3;}
	.st3{fill:none;}
	.st4{fill:none;stroke:#000000;stroke-miterlimit:10;}
</style>
<v:documentProperties  v:langID="1033" v:viewMarkup="false">
	<v:userDefs>
		<v:ud  v:nameU="msvNoAutoConnect" v:val="VT0(1):26"></v:ud>
	</v:userDefs>
</v:documentProperties>
<title>Page-5</title>
<v:pageProperties  v:drawingScale="1" v:drawingUnits="19" v:pageScale="1" v:shadowOffsetX="9" v:shadowOffsetY="-9">
	</v:pageProperties>
<g id="shape1001-1" transform="translate(191.364,-553.485)">
	<title>Sheet.1001</title>
	<desc>Drone Repository</desc>
	<v:textBlock  v:margins="rect(4,4,4,4)"></v:textBlock>
	<v:textRect  cx="52.1528" cy="771.17" height="41.6606" width="104.31"></v:textRect>
	<rect x="-191" y="637.3" class="st0" width="104.3" height="41.7"/>
	<g class="st1">
		<path d="M-172.7,660.9v-6.3h1.7c2.2,0,3.3,1,3.3,3.1c0,1-0.3,1.8-0.9,2.3c-0.6,0.6-1.4,0.9-2.5,0.9H-172.7z M-172,655.2v5h0.9
			c0.8,0,1.5-0.2,1.9-0.7c0.5-0.4,0.7-1.1,0.7-1.9c0-1.6-0.9-2.4-2.6-2.4L-172,655.2L-172,655.2z"/>
		<path d="M-164.2,657.1c-0.1-0.1-0.3-0.1-0.5-0.1c-0.3,0-0.6,0.1-0.8,0.4c-0.2,0.3-0.3,0.7-0.3,1.2v2.3h-0.7v-4.5h0.7v0.9l0,0
			c0.1-0.3,0.3-0.6,0.5-0.7c0.2-0.2,0.4-0.3,0.7-0.3c0.2,0,0.3,0,0.4,0.1C-164.2,656.4-164.2,657.1-164.2,657.1z"/>
		<path d="M-161.5,661c-0.7,0-1.2-0.2-1.6-0.6c-0.4-0.4-0.6-1-0.6-1.7c0-0.8,0.2-1.3,0.6-1.8c0.4-0.4,1-0.6,1.7-0.6
			c0.7,0,1.2,0.2,1.6,0.6c0.4,0.4,0.6,1,0.6,1.7s-0.2,1.3-0.6,1.7C-160.3,660.8-160.8,661-161.5,661z M-161.5,656.9
			c-0.5,0-0.8,0.2-1.1,0.5c-0.3,0.3-0.4,0.7-0.4,1.3c0,0.5,0.1,1,0.4,1.3c0.3,0.3,0.6,0.5,1.1,0.5s0.8-0.2,1.1-0.5
			c0.3-0.3,0.4-0.7,0.4-1.3s-0.1-1-0.4-1.3C-160.6,657-161,656.9-161.5,656.9z"/>
		<path d="M-154.4,660.9h-0.7v-2.6c0-1-0.3-1.4-1-1.4c-0.4,0-0.7,0.1-0.9,0.4c-0.2,0.3-0.4,0.6-0.4,1v2.6h-0.7v-4.5h0.7v0.7l0,0
			c0.3-0.6,0.8-0.9,1.5-0.9c0.5,0,0.9,0.2,1.1,0.5c0.3,0.3,0.4,0.8,0.4,1.4C-154.4,658.1-154.4,660.9-154.4,660.9z"/>
		<path d="M-149.4,658.8h-3.2c0,0.5,0.1,0.9,0.4,1.2s0.6,0.4,1.1,0.4s1-0.2,1.4-0.5v0.7c-0.4,0.3-0.9,0.4-1.6,0.4
			c-0.6,0-1.1-0.2-1.5-0.6c-0.4-0.4-0.5-1-0.5-1.7s0.2-1.3,0.6-1.7s0.9-0.7,1.5-0.7c0.6,0,1,0.2,1.4,0.6c0.4,0.4,0.5,0.9,0.5,1.6
			L-149.4,658.8L-149.4,658.8z M-150.2,658.2c0-0.4-0.1-0.7-0.3-1c-0.2-0.2-0.5-0.3-0.8-0.3c-0.3,0-0.6,0.1-0.9,0.4
			c-0.2,0.2-0.4,0.6-0.4,1h2.4V658.2z"/>
		<path d="M-141.2,660.9h-0.9l-1.1-1.8c-0.1-0.2-0.2-0.3-0.3-0.4c-0.1-0.1-0.2-0.2-0.3-0.3c-0.1-0.1-0.2-0.1-0.3-0.2
			c-0.1,0-0.2-0.1-0.4-0.1h-0.5v2.7h-0.7v-6.3h1.9c0.3,0,0.5,0,0.8,0.1c0.2,0.1,0.4,0.2,0.6,0.3s0.3,0.3,0.4,0.5s0.1,0.5,0.1,0.7
			s0,0.4-0.1,0.6c-0.1,0.2-0.2,0.3-0.3,0.5c-0.1,0.1-0.3,0.3-0.4,0.4c-0.2,0.1-0.4,0.2-0.6,0.2l0,0c0.1,0,0.2,0.1,0.3,0.2
			c0.1,0.1,0.2,0.1,0.2,0.2s0.1,0.2,0.2,0.3c0.1,0.1,0.1,0.2,0.2,0.4L-141.2,660.9z M-145,655.2v2.3h1c0.2,0,0.4,0,0.5-0.1
			c0.1-0.1,0.3-0.1,0.4-0.2c0.1-0.1,0.2-0.2,0.3-0.4c0.1-0.2,0.1-0.3,0.1-0.5c0-0.3-0.1-0.6-0.3-0.8s-0.5-0.3-0.9-0.3H-145z"/>
		<path d="M-137.1,658.8h-3.2c0,0.5,0.1,0.9,0.4,1.2s0.6,0.4,1.1,0.4s1-0.2,1.4-0.5v0.7c-0.4,0.3-0.9,0.4-1.6,0.4
			c-0.6,0-1.1-0.2-1.5-0.6c-0.4-0.4-0.5-1-0.5-1.7s0.2-1.3,0.6-1.7s0.9-0.7,1.5-0.7c0.6,0,1,0.2,1.4,0.6c0.4,0.4,0.5,0.9,0.5,1.6
			L-137.1,658.8L-137.1,658.8z M-137.9,658.2c0-0.4-0.1-0.7-0.3-1c-0.2-0.2-0.5-0.3-0.8-0.3s-0.6,0.1-0.9,0.4
			c-0.2,0.2-0.4,0.6-0.4,1h2.4V658.2z"/>
		<path d="M-135.3,660.2L-135.3,660.2v2.7h-0.7v-6.6h0.7v0.8l0,0c0.4-0.6,0.9-0.9,1.6-0.9c0.6,0,1,0.2,1.4,0.6
			c0.3,0.4,0.5,0.9,0.5,1.6c0,0.8-0.2,1.4-0.5,1.8c-0.4,0.5-0.9,0.7-1.5,0.7C-134.5,661-135,660.7-135.3,660.2z M-135.3,658.4v0.6
			c0,0.4,0.1,0.7,0.4,0.9c0.2,0.3,0.5,0.4,0.9,0.4c0.4,0,0.8-0.2,1-0.5c0.2-0.3,0.4-0.8,0.4-1.4c0-0.5-0.1-0.9-0.3-1.2
			s-0.5-0.4-0.9-0.4c-0.4,0-0.8,0.1-1,0.4C-135.2,657.6-135.3,658-135.3,658.4z"/>
		<path d="M-128.9,661c-0.7,0-1.2-0.2-1.6-0.6c-0.4-0.4-0.6-1-0.6-1.7c0-0.8,0.2-1.3,0.6-1.8c0.4-0.4,1-0.6,1.7-0.6
			c0.7,0,1.2,0.2,1.6,0.6c0.4,0.4,0.6,1,0.6,1.7s-0.2,1.3-0.6,1.7C-127.6,660.8-128.2,661-128.9,661z M-128.8,656.9
			c-0.5,0-0.8,0.2-1.1,0.5s-0.4,0.7-0.4,1.3c0,0.5,0.1,1,0.4,1.3s0.6,0.5,1.1,0.5s0.8-0.2,1.1-0.5c0.3-0.3,0.4-0.7,0.4-1.3
			s-0.1-1-0.4-1.3C-128,657-128.3,656.9-128.8,656.9z"/>
		<path d="M-125.7,660.7v-0.8c0.4,0.3,0.8,0.4,1.3,0.4c0.6,0,0.9-0.2,0.9-0.6c0-0.1,0-0.2-0.1-0.3s-0.1-0.2-0.2-0.2
			c-0.1-0.1-0.2-0.1-0.3-0.2c-0.1-0.1-0.3-0.1-0.4-0.2c-0.2-0.1-0.4-0.2-0.5-0.2c-0.2-0.1-0.3-0.2-0.4-0.3s-0.2-0.2-0.2-0.3
			c-0.1-0.1-0.1-0.3-0.1-0.5s0-0.4,0.1-0.6c0.1-0.2,0.2-0.3,0.4-0.4c0.2-0.1,0.3-0.2,0.6-0.2c0.2-0.1,0.4-0.1,0.6-0.1
			c0.4,0,0.7,0.1,1,0.2v0.7c-0.3-0.2-0.7-0.3-1.1-0.3c-0.1,0-0.3,0-0.4,0s-0.2,0.1-0.3,0.1c-0.1,0.1-0.1,0.1-0.2,0.2
			c0,0.1-0.1,0.2-0.1,0.3s0,0.2,0.1,0.3c0,0.1,0.1,0.2,0.2,0.2c0.1,0.1,0.2,0.1,0.3,0.2s0.3,0.1,0.4,0.2c0.2,0.1,0.4,0.2,0.5,0.2
			c0.2,0.1,0.3,0.2,0.4,0.3s0.2,0.2,0.3,0.3c0.1,0.1,0.1,0.3,0.1,0.5s0,0.4-0.1,0.6c-0.1,0.2-0.2,0.3-0.4,0.4s-0.4,0.2-0.6,0.2
			s-0.4,0.1-0.7,0.1C-125,661-125.4,660.9-125.7,660.7z"/>
		<path d="M-121.3,655.2c-0.1,0-0.2,0-0.3-0.1s-0.1-0.2-0.1-0.3s0-0.2,0.1-0.3s0.2-0.1,0.3-0.1c0.1,0,0.2,0,0.3,0.1
			c0.1,0.1,0.1,0.2,0.1,0.3s0,0.2-0.1,0.3C-121,655.2-121.2,655.2-121.3,655.2z M-120.9,660.9h-0.7v-4.5h0.7V660.9z"/>
		<path d="M-117.4,660.8c-0.2,0.1-0.4,0.1-0.7,0.1c-0.8,0-1.2-0.4-1.2-1.3V657h-0.7v-0.6h0.8v-1.1l0.7-0.2v1.3h1.1v0.6h-1.1v2.5
			c0,0.3,0.1,0.5,0.2,0.6s0.3,0.2,0.5,0.2s0.3,0,0.5-0.1L-117.4,660.8L-117.4,660.8z"/>
		<path d="M-114.5,661c-0.7,0-1.2-0.2-1.6-0.6c-0.4-0.4-0.6-1-0.6-1.7c0-0.8,0.2-1.3,0.6-1.8c0.4-0.4,1-0.6,1.7-0.6s1.2,0.2,1.6,0.6
			c0.4,0.4,0.6,1,0.6,1.7s-0.2,1.3-0.6,1.7C-113.3,660.8-113.9,661-114.5,661z M-114.5,656.9c-0.5,0-0.8,0.2-1.1,0.5
			c-0.3,0.3-0.4,0.7-0.4,1.3c0,0.5,0.1,1,0.4,1.3s0.6,0.5,1.1,0.5s0.8-0.2,1.1-0.5c0.3-0.3,0.4-0.7,0.4-1.3s-0.1-1-0.4-1.3
			C-113.7,657-114,656.9-114.5,656.9z"/>
		<path d="M-108.8,657.1c-0.1-0.1-0.3-0.1-0.5-0.1c-0.3,0-0.6,0.1-0.8,0.4c-0.2,0.3-0.3,0.7-0.3,1.2v2.3h-0.7v-4.5h0.7v0.9l0,0
			c0.1-0.3,0.3-0.6,0.5-0.7c0.2-0.2,0.4-0.3,0.7-0.3c0.2,0,0.3,0,0.4,0.1C-108.8,656.4-108.8,657.1-108.8,657.1z"/>
		<path d="M-104.4,656.4l-2.1,5.2c-0.4,0.9-0.9,1.4-1.6,1.4c-0.2,0-0.3,0-0.5-0.1v-0.6c0.2,0.1,0.3,0.1,0.4,0.1
			c0.4,0,0.6-0.2,0.8-0.7l0.4-0.9l-1.8-4.5h0.8l1.2,3.5c0,0,0,0.2,0.1,0.3l0,0c0-0.1,0-0.2,0.1-0.3l1.3-3.5L-104.4,656.4
			L-104.4,656.4z"/>
		<v:paragraph  v:horizAlign="1"></v:paragraph>
		<v:tabList></v:tabList>
	</g>
</g>
<g id="shape1002-4" transform="translate(219.68,-645.506)">
	<title>Sheet.1002</title>
	<desc>Drone (entity)</desc>
	<v:textBlock  v:margins="rect(4,4,4,4)"></v:textBlock>
	<v:textRect  cx="23.8361" cy="775.498" height="33.0038" width="47.68"></v:textRect>
	<path class="st2" d="M-182,646h29.7c5,0,9,4,9,9v15c0,5-4,9-9,9H-182c-5,0-9-4-9-9v-15C-191,650-187,646-182,646z"/>
	<g class="st1">
		<path d="M-178.6,659.8v-6.3h1.7c2.2,0,3.3,1,3.3,3.1c0,1-0.3,1.8-0.9,2.3c-0.6,0.6-1.4,0.9-2.5,0.9H-178.6z M-177.9,654.2v5h0.9
			c0.8,0,1.5-0.2,1.9-0.7c0.5-0.4,0.7-1.1,0.7-1.9c0-1.6-0.9-2.4-2.6-2.4L-177.9,654.2L-177.9,654.2z"/>
		<path d="M-170,656c-0.1-0.1-0.3-0.1-0.5-0.1c-0.3,0-0.6,0.1-0.8,0.4c-0.2,0.3-0.3,0.7-0.3,1.2v2.3h-0.7v-4.5h0.7v0.9l0,0
			c0.1-0.3,0.3-0.6,0.5-0.7c0.2-0.2,0.4-0.3,0.7-0.3c0.2,0,0.3,0,0.4,0.1C-170,655.3-170,656-170,656z"/>
		<path d="M-167.4,659.9c-0.7,0-1.2-0.2-1.6-0.6c-0.4-0.4-0.6-1-0.6-1.7c0-0.8,0.2-1.3,0.6-1.8c0.4-0.4,1-0.6,1.7-0.6
			s1.2,0.2,1.6,0.6c0.4,0.4,0.6,1,0.6,1.7s-0.2,1.3-0.6,1.7C-166.1,659.7-166.7,659.9-167.4,659.9z M-167.3,655.8
			c-0.5,0-0.8,0.2-1.1,0.5c-0.3,0.3-0.4,0.7-0.4,1.3c0,0.5,0.1,1,0.4,1.3c0.3,0.3,0.6,0.5,1.1,0.5s0.8-0.2,1.1-0.5s0.4-0.7,0.4-1.3
			s-0.1-1-0.4-1.3S-166.9,655.8-167.3,655.8z"/>
		<path d="M-160.2,659.8h-0.8v-2.6c0-1-0.3-1.4-1-1.4c-0.4,0-0.7,0.1-0.9,0.4c-0.2,0.3-0.4,0.6-0.4,1v2.6h-0.7v-4.5h0.7v0.7l0,0
			c0.3-0.6,0.8-0.9,1.5-0.9c0.5,0,0.9,0.2,1.1,0.5c0.3,0.3,0.4,0.8,0.4,1.4v2.8H-160.2z"/>
		<path d="M-155.3,657.7h-3.2c0,0.5,0.1,0.9,0.4,1.2s0.6,0.4,1.1,0.4s1-0.2,1.4-0.5v0.7c-0.4,0.3-0.9,0.4-1.6,0.4
			c-0.6,0-1.1-0.2-1.5-0.6c-0.4-0.4-0.5-1-0.5-1.7s0.2-1.3,0.6-1.7c0.4-0.4,0.9-0.7,1.5-0.7c0.6,0,1,0.2,1.4,0.6
			c0.4,0.4,0.5,0.9,0.5,1.6v0.3H-155.3z M-156,657.1c0-0.4-0.1-0.7-0.3-1c-0.2-0.2-0.5-0.3-0.8-0.3c-0.3,0-0.6,0.1-0.9,0.4
			c-0.2,0.2-0.4,0.6-0.4,1h2.4V657.1z"/>
	</g>
	<g class="st1">
		<path d="M-178.5,672h-0.6c-0.9-1-1.4-2.3-1.4-3.8s0.5-2.8,1.4-3.9h0.7c-0.9,1.1-1.4,2.4-1.4,3.9
			C-179.9,669.7-179.4,670.9-178.5,672z"/>
		<path d="M-174,668.5h-3.2c0,0.5,0.1,0.9,0.4,1.2s0.6,0.4,1.1,0.4s1-0.2,1.4-0.5v0.7c-0.4,0.3-0.9,0.4-1.6,0.4
			c-0.6,0-1.1-0.2-1.5-0.6c-0.4-0.4-0.5-1-0.5-1.7s0.2-1.3,0.6-1.7c0.4-0.4,0.9-0.7,1.5-0.7c0.6,0,1,0.2,1.4,0.6
			c0.4,0.4,0.5,0.9,0.5,1.6v0.3H-174z M-174.8,667.9c0-0.4-0.1-0.7-0.3-1c-0.2-0.2-0.5-0.3-0.8-0.3c-0.3,0-0.6,0.1-0.9,0.4
			c-0.2,0.2-0.4,0.6-0.4,1h2.4V667.9z"/>
		<path d="M-169.2,670.6h-0.7V668c0-1-0.3-1.4-1-1.4c-0.4,0-0.7,0.1-0.9,0.4c-0.2,0.3-0.4,0.6-0.4,1v2.6h-0.7v-4.5h0.7v0.7l0,0
			c0.3-0.6,0.8-0.9,1.5-0.9c0.5,0,0.9,0.2,1.1,0.5c0.3,0.3,0.4,0.8,0.4,1.4V670.6z"/>
		<path d="M-165.8,670.6c-0.2,0.1-0.4,0.1-0.7,0.1c-0.8,0-1.2-0.4-1.2-1.3v-2.7h-0.8v-0.6h0.8V665l0.7-0.2v1.3h1.1v0.6h-1.1v2.5
			c0,0.3,0.1,0.5,0.2,0.6c0.1,0.1,0.3,0.2,0.5,0.2s0.3,0,0.5-0.1V670.6z"/>
		<path d="M-164.4,665c-0.1,0-0.2,0-0.3-0.1c-0.1-0.1-0.1-0.2-0.1-0.3s0-0.2,0.1-0.3c0.1-0.1,0.2-0.1,0.3-0.1c0.1,0,0.2,0,0.3,0.1
			c0.1,0.1,0.1,0.2,0.1,0.3s0,0.2-0.1,0.3C-164.2,664.9-164.3,665-164.4,665z M-164.1,670.6h-0.7v-4.5h0.7V670.6z"/>
		<path d="M-160.5,670.6c-0.2,0.1-0.4,0.1-0.7,0.1c-0.8,0-1.2-0.4-1.2-1.3v-2.7h-0.8v-0.6h0.8V665l0.7-0.2v1.3h1.1v0.6h-1.1v2.5
			c0,0.3,0.1,0.5,0.2,0.6s0.3,0.2,0.5,0.2s0.3,0,0.5-0.1V670.6z"/>
		<path d="M-156,666.1l-2.1,5.2c-0.4,0.9-0.9,1.4-1.6,1.4c-0.2,0-0.3,0-0.5-0.1V672c0.2,0.1,0.3,0.1,0.4,0.1c0.4,0,0.6-0.2,0.8-0.7
			l0.4-0.9l-1.8-4.5h0.8l1.2,3.5c0,0,0,0.2,0.1,0.3l0,0c0-0.1,0-0.2,0.1-0.3l1.3-3.5h0.9V666.1z"/>
		<path d="M-155.2,672h-0.6c0.9-1.1,1.4-2.4,1.4-3.8c0-1.5-0.5-2.8-1.4-3.9h0.7c0.9,1.1,1.4,2.4,1.4,3.9
			C-153.8,669.7-154.3,671-155.2,672z"/>
	</g>
	<v:paragraph  v:horizAlign="1"></v:paragraph>
	<v:tabList></v:tabList>
	<v:newlineChar></v:newlineChar>
</g>
<g id="shape1003-8" transform="translate(286.382,-645.506)">
	<title>Sheet.1003</title>
	<desc>Location (value object)</desc>
	<v:textBlock  v:margins="rect(4,4,4,4)"></v:textBlock>
	<v:textRect  cx="39.0588" cy="775.498" height="33.0038" width="78.12"></v:textRect>
	<path class="st2" d="M-182,646h60.1c5,0,9,4,9,9v15c0,5-4,9-9,9H-182c-5,0-9-4-9-9v-15C-191,650-187,646-182,646z"/>
	<g class="st1">
		<path d="M-164.8,659.8h-3.2v-6.3h0.7v5.6h2.5V659.8z"/>
		<path d="M-162,659.9c-0.7,0-1.2-0.2-1.6-0.6c-0.4-0.4-0.6-1-0.6-1.7c0-0.8,0.2-1.3,0.6-1.8c0.4-0.4,1-0.6,1.7-0.6
			c0.7,0,1.2,0.2,1.6,0.6c0.4,0.4,0.6,1,0.6,1.7s-0.2,1.3-0.6,1.7C-160.8,659.7-161.3,659.9-162,659.9z M-162,655.8
			c-0.5,0-0.8,0.2-1.1,0.5c-0.3,0.3-0.4,0.7-0.4,1.3c0,0.5,0.1,1,0.4,1.3c0.3,0.3,0.6,0.5,1.1,0.5s0.8-0.2,1.1-0.5
			c0.3-0.3,0.4-0.7,0.4-1.3s-0.1-1-0.4-1.3C-161.2,656-161.5,655.8-162,655.8z"/>
		<path d="M-155.6,659.6c-0.3,0.2-0.8,0.3-1.2,0.3c-0.6,0-1.2-0.2-1.6-0.6c-0.4-0.4-0.6-1-0.6-1.6c0-0.7,0.2-1.3,0.6-1.8
			c0.4-0.5,1-0.7,1.7-0.7c0.4,0,0.7,0.1,1,0.2v0.7c-0.3-0.2-0.7-0.4-1.1-0.4c-0.5,0-0.8,0.2-1.1,0.5s-0.4,0.8-0.4,1.3
			s0.1,0.9,0.4,1.2s0.6,0.5,1.1,0.5c0.4,0,0.8-0.1,1.1-0.4L-155.6,659.6L-155.6,659.6z"/>
		<path d="M-151.2,659.8h-0.8v-0.7l0,0c-0.3,0.5-0.8,0.8-1.4,0.8c-0.4,0-0.8-0.1-1.1-0.4c-0.3-0.2-0.4-0.6-0.4-0.9
			c0-0.8,0.5-1.3,1.5-1.5l1.3-0.2c0-0.8-0.3-1.1-0.9-1.1c-0.5,0-1,0.2-1.5,0.6v-0.7c0.4-0.3,1-0.4,1.5-0.4c1.1,0,1.6,0.6,1.6,1.7
			v2.8H-151.2z M-152,657.5l-1.1,0.1c-0.3,0-0.6,0.1-0.8,0.2c-0.2,0.1-0.3,0.3-0.3,0.6c0,0.2,0.1,0.4,0.2,0.5
			c0.2,0.1,0.4,0.2,0.6,0.2c0.4,0,0.7-0.1,0.9-0.4c0.2-0.3,0.3-0.6,0.3-1v-0.2H-152z"/>
		<path d="M-147.8,659.8c-0.2,0.1-0.4,0.1-0.7,0.1c-0.8,0-1.2-0.4-1.2-1.3v-2.7h-0.8v-0.6h0.8v-1.1l0.7-0.2v1.3h1.1v0.6h-1.1v2.5
			c0,0.3,0.1,0.5,0.2,0.6s0.3,0.2,0.5,0.2s0.3,0,0.5-0.1V659.8z"/>
		<path d="M-146.5,654.2c-0.1,0-0.2,0-0.3-0.1c-0.1-0.1-0.1-0.2-0.1-0.3s0-0.2,0.1-0.3c0.1-0.1,0.2-0.1,0.3-0.1c0.1,0,0.2,0,0.3,0.1
			c0.1,0.1,0.1,0.2,0.1,0.3s0,0.2-0.1,0.3C-146.2,654.1-146.3,654.2-146.5,654.2z M-146.1,659.8h-0.7v-4.5h0.7V659.8z"/>
		<path d="M-142.8,659.9c-0.7,0-1.2-0.2-1.6-0.6c-0.4-0.4-0.6-1-0.6-1.7c0-0.8,0.2-1.3,0.6-1.8c0.4-0.4,1-0.6,1.7-0.6
			s1.2,0.2,1.6,0.6c0.4,0.4,0.6,1,0.6,1.7s-0.2,1.3-0.6,1.7C-141.5,659.7-142.1,659.9-142.8,659.9z M-142.7,655.8
			c-0.5,0-0.8,0.2-1.1,0.5s-0.4,0.7-0.4,1.3c0,0.5,0.1,1,0.4,1.3s0.6,0.5,1.1,0.5s0.8-0.2,1.1-0.5s0.4-0.7,0.4-1.3s-0.1-1-0.4-1.3
			S-142.3,655.8-142.7,655.8z"/>
		<path d="M-135.6,659.8h-0.7v-2.6c0-1-0.3-1.4-1-1.4c-0.4,0-0.7,0.1-0.9,0.4c-0.2,0.3-0.4,0.6-0.4,1v2.6h-0.7v-4.5h0.7v0.7l0,0
			c0.3-0.6,0.8-0.9,1.5-0.9c0.5,0,0.9,0.2,1.1,0.5c0.3,0.3,0.4,0.8,0.4,1.4C-135.6,657-135.6,659.8-135.6,659.8z"/>
	</g>
	<g class="st1">
		<path d="M-176,672h-0.6c-0.9-1-1.4-2.3-1.4-3.8s0.5-2.8,1.4-3.9h0.6c-0.9,1.1-1.4,2.4-1.4,3.9S-176.9,670.9-176,672z"/>
		<path d="M-171.7,666.1l-1.8,4.5h-0.7l-1.7-4.5h0.8l1.1,3.3c0.1,0.2,0.1,0.5,0.2,0.6l0,0c0-0.2,0.1-0.4,0.1-0.6l1.2-3.3H-171.7z"/>
		<path d="M-167.7,670.6h-0.7v-0.7l0,0c-0.3,0.5-0.8,0.8-1.4,0.8c-0.4,0-0.8-0.1-1.1-0.4c-0.3-0.2-0.4-0.6-0.4-0.9
			c0-0.8,0.5-1.3,1.5-1.5l1.3-0.2c0-0.8-0.3-1.1-0.9-1.1c-0.5,0-1,0.2-1.5,0.6v-0.7c0.4-0.3,1-0.4,1.5-0.4c1.1,0,1.6,0.6,1.6,1.7
			v2.8H-167.7z M-168.4,668.3l-1.1,0.1c-0.3,0-0.6,0.1-0.8,0.2c-0.2,0.1-0.3,0.3-0.3,0.6c0,0.2,0.1,0.4,0.2,0.5
			c0.2,0.1,0.4,0.2,0.6,0.2c0.4,0,0.7-0.1,0.9-0.4c0.2-0.3,0.3-0.6,0.3-1v-0.2H-168.4z"/>
		<path d="M-165.6,670.6h-0.7v-6.7h0.7V670.6z"/>
		<path d="M-160.5,670.6h-0.7v-0.7l0,0c-0.3,0.5-0.8,0.8-1.4,0.8c-1.1,0-1.6-0.6-1.6-1.9v-2.7h0.7v2.6c0,0.9,0.4,1.4,1.1,1.4
			c0.4,0,0.6-0.1,0.9-0.4c0.2-0.3,0.3-0.6,0.3-1v-2.6h0.7V670.6z"/>
		<path d="M-155.4,668.5h-3.2c0,0.5,0.1,0.9,0.4,1.2c0.3,0.3,0.6,0.4,1.1,0.4s1-0.2,1.4-0.5v0.7c-0.4,0.3-0.9,0.4-1.6,0.4
			c-0.6,0-1.1-0.2-1.5-0.6c-0.4-0.4-0.5-1-0.5-1.7s0.2-1.3,0.6-1.7c0.4-0.4,0.9-0.7,1.5-0.7c0.6,0,1,0.2,1.4,0.6
			c0.4,0.4,0.5,0.9,0.5,1.6v0.3H-155.4z M-156.2,667.9c0-0.4-0.1-0.7-0.3-1c-0.2-0.2-0.5-0.3-0.8-0.3s-0.6,0.1-0.9,0.4
			c-0.2,0.2-0.4,0.6-0.4,1h2.4V667.9z"/>
		<path d="M-150,670.7c-0.7,0-1.2-0.2-1.6-0.6c-0.4-0.4-0.6-1-0.6-1.7c0-0.8,0.2-1.3,0.6-1.8c0.4-0.4,1-0.6,1.7-0.6
			c0.7,0,1.2,0.2,1.6,0.6c0.4,0.4,0.6,1,0.6,1.7s-0.2,1.3-0.6,1.7C-148.8,670.5-149.3,670.7-150,670.7z M-149.9,666.6
			c-0.5,0-0.8,0.2-1.1,0.5s-0.4,0.7-0.4,1.3c0,0.5,0.1,1,0.4,1.3s0.6,0.5,1.1,0.5s0.8-0.2,1.1-0.5s0.4-0.7,0.4-1.3s-0.1-1-0.4-1.3
			S-149.5,666.6-149.9,666.6z"/>
		<path d="M-145.9,669.9L-145.9,669.9v0.7h-0.7v-6.7h0.7v3l0,0c0.4-0.6,0.9-0.9,1.6-0.9c0.6,0,1,0.2,1.4,0.6
			c0.3,0.4,0.5,0.9,0.5,1.6c0,0.8-0.2,1.4-0.5,1.8c-0.4,0.5-0.9,0.7-1.5,0.7C-145.1,670.7-145.6,670.5-145.9,669.9z M-145.9,668.1
			v0.6c0,0.4,0.1,0.7,0.4,0.9c0.2,0.3,0.5,0.4,0.9,0.4c0.4,0,0.8-0.2,1-0.5c0.2-0.3,0.4-0.8,0.4-1.4c0-0.5-0.1-0.9-0.3-1.2
			s-0.5-0.4-0.9-0.4c-0.4,0-0.8,0.1-1,0.4C-145.7,667.3-145.9,667.7-145.9,668.1z"/>
		<path d="M-140.6,670.4c0,0.7-0.1,1.3-0.4,1.7s-0.7,0.6-1.3,0.6c-0.2,0-0.4,0-0.6-0.1v-0.7c0.2,0.1,0.4,0.2,0.6,0.2
			c0.7,0,1-0.5,1-1.6v-4.4h0.7V670.4z M-140.9,665c-0.1,0-0.2,0-0.3-0.1c-0.1-0.1-0.1-0.2-0.1-0.3s0-0.2,0.1-0.3
			c0.1-0.1,0.2-0.1,0.3-0.1c0.1,0,0.2,0,0.3,0.1c0.1,0.1,0.1,0.2,0.1,0.3s0,0.2-0.1,0.3C-140.7,664.9-140.8,665-140.9,665z"/>
		<path d="M-135.5,668.5h-3.2c0,0.5,0.1,0.9,0.4,1.2s0.6,0.4,1.1,0.4s1-0.2,1.4-0.5v0.7c-0.4,0.3-0.9,0.4-1.6,0.4
			c-0.6,0-1.1-0.2-1.5-0.6c-0.4-0.4-0.5-1-0.5-1.7s0.2-1.3,0.6-1.7c0.4-0.4,0.9-0.7,1.5-0.7c0.6,0,1,0.2,1.4,0.6
			c0.4,0.4,0.5,0.9,0.5,1.6v0.3H-135.5z M-136.2,667.9c0-0.4-0.1-0.7-0.3-1c-0.2-0.2-0.5-0.3-0.8-0.3s-0.6,0.1-0.9,0.4
			c-0.2,0.2-0.4,0.6-0.4,1h2.4V667.9z"/>
		<path d="M-131.4,670.4c-0.3,0.2-0.8,0.3-1.2,0.3c-0.6,0-1.2-0.2-1.6-0.6c-0.4-0.4-0.6-1-0.6-1.6c0-0.7,0.2-1.3,0.6-1.8
			c0.4-0.5,1-0.7,1.7-0.7c0.4,0,0.7,0.1,1,0.2v0.7c-0.3-0.2-0.7-0.4-1.1-0.4c-0.5,0-0.8,0.2-1.1,0.5s-0.4,0.8-0.4,1.3
			s0.1,0.9,0.4,1.2s0.6,0.5,1.1,0.5c0.4,0,0.8-0.1,1.1-0.4L-131.4,670.4L-131.4,670.4z"/>
		<path d="M-128.2,670.6c-0.2,0.1-0.4,0.1-0.7,0.1c-0.8,0-1.2-0.4-1.2-1.3v-2.7h-0.8v-0.6h0.9V665l0.7-0.2v1.3h1.1v0.6h-1.1v2.5
			c0,0.3,0.1,0.5,0.2,0.6c0.1,0.1,0.3,0.2,0.5,0.2c0.2,0,0.3,0,0.5-0.1L-128.2,670.6L-128.2,670.6z"/>
		<path d="M-127.2,672h-0.6c0.9-1.1,1.4-2.4,1.4-3.8c0-1.5-0.5-2.8-1.4-3.9h0.7c0.9,1.1,1.4,2.4,1.4,3.9
			C-125.8,669.7-126.3,671-127.2,672z"/>
	</g>
	<v:paragraph  v:horizAlign="1"></v:paragraph>
	<v:tabList></v:tabList>
	<v:lf></v:lf>
</g>
<g id="shape1005-18" transform="translate(191.364,-490.84)">
	<title>Sheet.1005</title>
	<desc>Data store</desc>
	<v:textBlock  v:margins="rect(4,4,4,4)"></v:textBlock>
	<v:textRect  cx="52.1528" cy="771.17" height="41.6606" width="104.31"></v:textRect>
	<rect x="-191" y="637.3" class="st0" width="104.3" height="41.7"/>
	<g class="st1">
		<path d="M-158.5,660.9v-6.3h1.7c2.2,0,3.3,1,3.3,3.1c0,1-0.3,1.8-0.9,2.3c-0.6,0.6-1.4,0.9-2.5,0.9H-158.5z M-157.8,655.2v5h0.9
			c0.8,0,1.5-0.2,1.9-0.7c0.5-0.4,0.7-1.1,0.7-1.9c0-1.6-0.9-2.4-2.6-2.4L-157.8,655.2L-157.8,655.2z"/>
		<path d="M-149.1,660.9h-0.7v-0.7l0,0c-0.3,0.5-0.8,0.8-1.4,0.8c-0.4,0-0.8-0.1-1.1-0.4c-0.3-0.2-0.4-0.6-0.4-0.9
			c0-0.8,0.5-1.3,1.5-1.5l1.3-0.2c0-0.8-0.3-1.1-0.9-1.1c-0.5,0-1,0.2-1.5,0.6v-0.7c0.4-0.3,1-0.4,1.5-0.4c1.1,0,1.6,0.6,1.6,1.7
			v2.8H-149.1z M-149.8,658.6l-1.1,0.1c-0.3,0-0.6,0.1-0.8,0.2c-0.2,0.1-0.3,0.3-0.3,0.6c0,0.2,0.1,0.4,0.2,0.5
			c0.2,0.1,0.4,0.2,0.6,0.2c0.4,0,0.7-0.1,0.9-0.4c0.2-0.3,0.3-0.6,0.3-1v-0.2H-149.8z"/>
		<path d="M-145.6,660.8c-0.2,0.1-0.4,0.1-0.7,0.1c-0.8,0-1.2-0.4-1.2-1.3V657h-0.8v-0.6h0.8v-1.1l0.7-0.2v1.3h1.1v0.6h-1.1v2.5
			c0,0.3,0.1,0.5,0.2,0.6c0.1,0.1,0.3,0.2,0.5,0.2c0.2,0,0.3,0,0.5-0.1V660.8z"/>
		<path d="M-141.4,660.9h-0.7v-0.7l0,0c-0.3,0.5-0.8,0.8-1.4,0.8c-0.4,0-0.8-0.1-1.1-0.4c-0.3-0.2-0.4-0.6-0.4-0.9
			c0-0.8,0.5-1.3,1.5-1.5l1.3-0.2c0-0.8-0.3-1.1-0.9-1.1c-0.5,0-1,0.2-1.5,0.6v-0.7c0.4-0.3,1-0.4,1.5-0.4c1.1,0,1.6,0.6,1.6,1.7
			v2.8H-141.4z M-142.2,658.6l-1.1,0.1c-0.3,0-0.6,0.1-0.8,0.2c-0.2,0.1-0.3,0.3-0.3,0.6c0,0.2,0.1,0.4,0.2,0.5
			c0.2,0.1,0.4,0.2,0.6,0.2c0.4,0,0.7-0.1,0.9-0.4c0.2-0.3,0.3-0.6,0.3-1v-0.2H-142.2z"/>
		<path d="M-137.9,660.7v-0.8c0.4,0.3,0.8,0.4,1.3,0.4c0.6,0,0.9-0.2,0.9-0.6c0-0.1,0-0.2-0.1-0.3c-0.1-0.1-0.1-0.2-0.2-0.2
			c-0.1-0.1-0.2-0.1-0.3-0.2c-0.1-0.1-0.3-0.1-0.4-0.2c-0.2-0.1-0.4-0.2-0.5-0.2c-0.2-0.1-0.3-0.2-0.4-0.3c-0.1-0.1-0.2-0.2-0.2-0.3
			c-0.1-0.1-0.1-0.3-0.1-0.5s0-0.4,0.1-0.6c0.1-0.2,0.2-0.3,0.4-0.4c0.2-0.1,0.3-0.2,0.6-0.2c0.2-0.1,0.4-0.1,0.6-0.1
			c0.4,0,0.7,0.1,1,0.2v0.7c-0.3-0.2-0.7-0.3-1.1-0.3c-0.1,0-0.3,0-0.4,0c-0.1,0-0.2,0.1-0.3,0.1c-0.1,0.1-0.1,0.1-0.2,0.2
			c0,0.1-0.1,0.2-0.1,0.3s0,0.2,0.1,0.3c0,0.1,0.1,0.2,0.2,0.2c0.1,0.1,0.2,0.1,0.3,0.2c0.1,0.1,0.3,0.1,0.4,0.2
			c0.2,0.1,0.4,0.2,0.5,0.2c0.2,0.1,0.3,0.2,0.4,0.3c0.1,0.1,0.2,0.2,0.3,0.3c0.1,0.1,0.1,0.3,0.1,0.5s0,0.4-0.1,0.6
			c-0.1,0.2-0.2,0.3-0.4,0.4s-0.4,0.2-0.6,0.2s-0.4,0.1-0.7,0.1C-137.1,661-137.5,660.9-137.9,660.7z"/>
		<path d="M-131.7,660.8c-0.2,0.1-0.4,0.1-0.7,0.1c-0.8,0-1.2-0.4-1.2-1.3V657h-0.8v-0.6h0.8v-1.1l0.7-0.2v1.3h1.1v0.6h-1.1v2.5
			c0,0.3,0.1,0.5,0.2,0.6s0.3,0.2,0.5,0.2s0.3,0,0.5-0.1V660.8z"/>
		<path d="M-128.9,661c-0.7,0-1.2-0.2-1.6-0.6c-0.4-0.4-0.6-1-0.6-1.7c0-0.8,0.2-1.3,0.6-1.8c0.4-0.4,1-0.6,1.7-0.6
			c0.7,0,1.2,0.2,1.6,0.6c0.4,0.4,0.6,1,0.6,1.7s-0.2,1.3-0.6,1.7C-127.6,660.8-128.2,661-128.9,661z M-128.8,656.9
			c-0.5,0-0.8,0.2-1.1,0.5s-0.4,0.7-0.4,1.3c0,0.5,0.1,1,0.4,1.3s0.6,0.5,1.1,0.5s0.8-0.2,1.1-0.5c0.3-0.3,0.4-0.7,0.4-1.3
			s-0.1-1-0.4-1.3C-128,657-128.3,656.9-128.8,656.9z"/>
		<path d="M-123.1,657.1c-0.1-0.1-0.3-0.1-0.5-0.1c-0.3,0-0.6,0.1-0.8,0.4c-0.2,0.3-0.3,0.7-0.3,1.2v2.3h-0.7v-4.5h0.7v0.9l0,0
			c0.1-0.3,0.3-0.6,0.5-0.7c0.2-0.2,0.4-0.3,0.7-0.3c0.2,0,0.3,0,0.4,0.1C-123.1,656.4-123.1,657.1-123.1,657.1z"/>
		<path d="M-118.7,658.8h-3.2c0,0.5,0.1,0.9,0.4,1.2s0.6,0.4,1.1,0.4s1-0.2,1.4-0.5v0.7c-0.4,0.3-0.9,0.4-1.6,0.4
			c-0.6,0-1.1-0.2-1.5-0.6c-0.4-0.4-0.5-1-0.5-1.7s0.2-1.3,0.6-1.7s0.9-0.7,1.5-0.7s1,0.2,1.4,0.6s0.5,0.9,0.5,1.6v0.3H-118.7z
			 M-119.5,658.2c0-0.4-0.1-0.7-0.3-1c-0.2-0.2-0.5-0.3-0.8-0.3s-0.6,0.1-0.9,0.4c-0.2,0.2-0.4,0.6-0.4,1h2.4V658.2z"/>
		<v:paragraph  v:horizAlign="1"></v:paragraph>
		<v:tabList></v:tabList>
	</g>
</g>
<g id="shape1007-27" transform="translate(194.099,-534.078)">
	<title>Sheet.1007</title>
	<desc>SELECT</desc>
	<v:textBlock  v:margins="rect(4,4,4,4)"></v:textBlock>
	<v:textRect  cx="19.0558" cy="783.085" height="17.83" width="38.12"></v:textRect>
	<rect x="-191" y="661.2" class="st3" width="38.1" height="17.8"/>
	<g class="st1">
		<path d="M-182.4,671.2c0,0.3-0.1,0.5-0.2,0.7c-0.1,0.2-0.3,0.4-0.5,0.5c-0.2,0.1-0.4,0.2-0.7,0.3s-0.6,0.1-0.9,0.1
			c-0.2,0-0.3,0-0.5,0s-0.3,0-0.4,0c-0.1,0-0.3,0-0.4-0.1s-0.2,0-0.3-0.1v-0.8c0.2,0.1,0.5,0.1,0.7,0.2c0.3,0,0.6,0.1,0.9,0.1
			s0.5,0,0.6-0.1c0.2,0,0.3-0.1,0.4-0.2c0.1-0.1,0.2-0.2,0.2-0.3c0.1-0.1,0.1-0.2,0.1-0.4s0-0.3-0.1-0.4c-0.1-0.1-0.2-0.2-0.3-0.3
			c-0.1-0.1-0.3-0.2-0.5-0.2c-0.2-0.1-0.4-0.1-0.6-0.2c-0.2-0.1-0.4-0.2-0.6-0.2c-0.2-0.1-0.3-0.2-0.5-0.3c-0.1-0.1-0.3-0.3-0.3-0.4
			s-0.1-0.4-0.1-0.6c0-0.2,0-0.4,0.1-0.6c0.1-0.2,0.2-0.4,0.4-0.5c0.2-0.1,0.4-0.3,0.7-0.4c0.3-0.1,0.6-0.1,1-0.1c0.1,0,0.2,0,0.3,0
			c0.1,0,0.2,0,0.3,0c0.1,0,0.2,0,0.3,0.1c0.1,0,0.2,0,0.3,0.1v0.7c-0.2-0.1-0.5-0.1-0.7-0.1s-0.4-0.1-0.7-0.1c-0.4,0-0.8,0.1-1,0.2
			c-0.2,0.1-0.3,0.4-0.3,0.6c0,0.2,0,0.3,0.1,0.4c0.1,0.1,0.2,0.2,0.3,0.3c0.1,0.1,0.3,0.2,0.5,0.2c0.2,0.1,0.4,0.1,0.6,0.2
			c0.2,0.1,0.4,0.2,0.6,0.3c0.2,0.1,0.3,0.2,0.5,0.3c0.1,0.1,0.3,0.3,0.3,0.4C-182.5,670.8-182.4,671-182.4,671.2z"/>
		<path d="M-177.7,672.8h-3.3V667h3.3v0.7h-2.5v1.8h2.4v0.7h-2.4v2h2.5C-177.7,672.2-177.7,672.8-177.7,672.8z"/>
		<path d="M-172.6,672.8h-3.3V667h0.8v5.1h2.5V672.8z"/>
		<path d="M-167.8,672.8h-3.3V667h3.3v0.7h-2.5v1.8h2.4v0.7h-2.4v2h2.5V672.8z"/>
		<path d="M-162.6,672.6c-0.5,0.2-0.9,0.3-1.4,0.3c-0.8,0-1.4-0.2-1.9-0.7c-0.4-0.5-0.7-1.2-0.7-2.2c0-0.5,0.1-0.9,0.2-1.2
			c0.1-0.4,0.3-0.7,0.5-0.9c0.2-0.3,0.5-0.5,0.8-0.6c0.3-0.1,0.7-0.2,1.1-0.2c0.3,0,0.5,0,0.7,0.1c0.2,0,0.4,0.1,0.7,0.2v0.8
			c-0.2-0.1-0.4-0.2-0.6-0.3s-0.5-0.1-0.7-0.1c-0.3,0-0.5,0-0.7,0.2c-0.2,0.1-0.4,0.2-0.6,0.4s-0.3,0.4-0.4,0.7
			c-0.1,0.3-0.1,0.6-0.1,0.9c0,0.7,0.2,1.3,0.5,1.7s0.7,0.6,1.3,0.6c0.2,0,0.5,0,0.7-0.1s0.4-0.1,0.7-0.2v0.6H-162.6z"/>
		<path d="M-157.5,667.7h-1.7v5.1h-0.8v-5.1h-1.7V667h4.2V667.7z"/>
		<v:paragraph  v:horizAlign="1"></v:paragraph>
		<v:tabList></v:tabList>
	</g>
</g>
<g id="shape1009-35" transform="translate(246.265,-610.301)">
	<title>Sheet.1009</title>
	<desc>Update</desc>
	<v:textBlock  v:margins="rect(4,4,4,4)"></v:textBlock>
	<v:textRect  cx="27.8088" cy="783.085" height="17.83" width="55.62"></v:textRect>
	<rect x="-191" y="661.2" class="st3" width="55.6" height="17.8"/>
	<g class="st1">
		<path d="M-172.3,670.2c0,1.8-0.8,2.7-2.4,2.7c-1.5,0-2.3-0.9-2.3-2.6v-3.9h0.7v3.8c0,1.3,0.5,1.9,1.6,1.9s1.6-0.6,1.6-1.9v-3.9
			h0.7L-172.3,670.2L-172.3,670.2z"/>
		<path d="M-170.1,672.1L-170.1,672.1v2.7h-0.7v-6.6h0.7v0.8l0,0c0.4-0.6,0.9-0.9,1.6-0.9c0.6,0,1,0.2,1.4,0.6
			c0.3,0.4,0.5,0.9,0.5,1.6c0,0.8-0.2,1.4-0.5,1.8c-0.4,0.5-0.9,0.7-1.5,0.7C-169.3,672.9-169.8,672.6-170.1,672.1z M-170.1,670.3
			v0.6c0,0.4,0.1,0.7,0.4,0.9c0.2,0.3,0.5,0.4,0.9,0.4c0.4,0,0.8-0.2,1-0.5s0.4-0.8,0.4-1.4c0-0.5-0.1-0.9-0.3-1.2s-0.5-0.4-0.9-0.4
			c-0.4,0-0.8,0.1-1,0.4C-170,669.5-170.1,669.9-170.1,670.3z"/>
		<path d="M-161.7,672.8h-0.7V672l0,0c-0.3,0.6-0.8,0.9-1.5,0.9c-0.6,0-1-0.2-1.4-0.6c-0.3-0.4-0.5-1-0.5-1.6c0-0.7,0.2-1.3,0.6-1.8
			c0.4-0.4,0.9-0.7,1.5-0.7c0.6,0,1.1,0.2,1.3,0.7l0,0v-2.8h0.7V672.8z M-162.4,670.7V670c0-0.4-0.1-0.7-0.4-0.9
			c-0.3-0.2-0.5-0.4-0.9-0.4s-0.8,0.2-1,0.5s-0.4,0.8-0.4,1.3s0.1,0.9,0.4,1.2c0.2,0.3,0.6,0.5,1,0.5s0.7-0.1,1-0.4
			C-162.6,671.6-162.4,671.2-162.4,670.7z"/>
		<path d="M-157,672.8h-0.7v-0.7l0,0c-0.3,0.5-0.8,0.8-1.4,0.8c-0.4,0-0.8-0.1-1.1-0.4c-0.3-0.2-0.4-0.6-0.4-0.9
			c0-0.8,0.5-1.3,1.5-1.5l1.3-0.2c0-0.8-0.3-1.1-0.9-1.1c-0.5,0-1,0.2-1.5,0.6v-0.7c0.4-0.3,1-0.4,1.5-0.4c1.1,0,1.6,0.6,1.6,1.7
			v2.8H-157z M-157.7,670.5l-1.1,0.1c-0.3,0-0.6,0.1-0.8,0.2c-0.2,0.1-0.3,0.3-0.3,0.6c0,0.2,0.1,0.4,0.2,0.5
			c0.2,0.1,0.4,0.2,0.6,0.2c0.4,0,0.7-0.1,0.9-0.4c0.2-0.3,0.3-0.6,0.3-1v-0.2H-157.7z"/>
		<path d="M-153.6,672.7c-0.2,0.1-0.4,0.1-0.7,0.1c-0.8,0-1.2-0.4-1.2-1.3v-2.7h-0.8v-0.6h0.8v-1.1l0.7-0.2v1.3h1.1v0.6h-1.1v2.5
			c0,0.3,0.1,0.5,0.2,0.6c0.1,0.1,0.3,0.2,0.5,0.2c0.2,0,0.3,0,0.5-0.1V672.7z"/>
		<path d="M-149,670.7h-3.2c0,0.5,0.1,0.9,0.4,1.2s0.6,0.4,1.1,0.4s1-0.2,1.4-0.5v0.7c-0.4,0.3-0.9,0.4-1.6,0.4
			c-0.6,0-1.1-0.2-1.5-0.6c-0.4-0.4-0.5-1-0.5-1.7s0.2-1.3,0.6-1.7c0.4-0.4,0.9-0.7,1.5-0.7c0.6,0,1,0.2,1.4,0.6
			c0.4,0.4,0.5,0.9,0.5,1.6v0.3H-149z M-149.7,670.1c0-0.4-0.1-0.7-0.3-1c-0.2-0.2-0.5-0.3-0.8-0.3c-0.3,0-0.6,0.1-0.9,0.4
			c-0.2,0.2-0.4,0.6-0.4,1h2.4V670.1z"/>
		<v:paragraph  v:horizAlign="1"></v:paragraph>
		<v:tabList></v:tabList>
	</g>
</g>
<g id="shape1011-43" transform="translate(257.558,-533.7)">
	<title>Sheet.1011</title>
	<desc>UPDATE</desc>
	<v:textBlock  v:margins="rect(4,4,4,4)"></v:textBlock>
	<v:textRect  cx="19.0558" cy="783.085" height="17.83" width="38.12"></v:textRect>
	<rect x="-191" y="661.2" class="st3" width="38.1" height="17.8"/>
	<g class="st1">
		<path d="M-182.3,670.8c0,0.3,0,0.6-0.1,0.9c-0.1,0.3-0.2,0.5-0.4,0.7s-0.4,0.3-0.6,0.4c-0.3,0.1-0.5,0.1-0.9,0.1
			c-0.4,0-0.7,0-0.9-0.1s-0.5-0.2-0.6-0.4c-0.2-0.2-0.3-0.4-0.3-0.6c-0.1-0.2-0.1-0.5-0.1-0.8v-4h0.8v3.8c0,0.2,0,0.4,0.1,0.6
			c0,0.2,0.1,0.3,0.2,0.4c0.1,0.1,0.2,0.2,0.4,0.3s0.3,0.1,0.6,0.1c0.4,0,0.7-0.1,0.9-0.4c0.2-0.2,0.3-0.6,0.3-1V667h0.8v3.8H-182.3
			z"/>
		<path d="M-177.4,668.8c0,0.2,0,0.5-0.1,0.7s-0.2,0.4-0.4,0.6c-0.2,0.2-0.4,0.3-0.7,0.4c-0.3,0.1-0.6,0.2-1,0.2h-0.7v2.1h-0.8V667
			h1.6c0.3,0,0.6,0,0.8,0.1c0.3,0.1,0.5,0.2,0.7,0.3s0.4,0.3,0.5,0.5S-177.4,668.5-177.4,668.8z M-178.2,668.8
			c0-0.4-0.1-0.7-0.4-0.8c-0.2-0.2-0.6-0.3-1-0.3h-0.8v2.4h0.7c0.5,0,0.8-0.1,1.1-0.3C-178.3,669.5-178.2,669.2-178.2,668.8z"/>
		<path d="M-172.3,669.8c0,0.3,0,0.5-0.1,0.8c-0.1,0.3-0.1,0.5-0.2,0.7c-0.1,0.2-0.2,0.4-0.4,0.6c-0.1,0.2-0.3,0.3-0.5,0.5
			s-0.5,0.2-0.8,0.3s-0.6,0.1-1,0.1h-1.2V667h1.5c0.9,0,1.6,0.2,2,0.7C-172.5,668.2-172.3,668.9-172.3,669.8z M-173.1,669.9
			c0-0.4,0-0.8-0.1-1c-0.1-0.2-0.2-0.5-0.3-0.7c-0.1-0.2-0.4-0.3-0.6-0.4c-0.2-0.1-0.5-0.1-0.8-0.1h-0.7v4.4h0.6
			C-173.7,672.1-173.1,671.4-173.1,669.9z"/>
		<path d="M-167,672.8h-0.9l-0.4-1.3h-2.4l-0.4,1.3h-0.8l1.9-5.8h1.1L-167,672.8z M-168.5,670.8l-1-3.1l-1,3.1H-168.5z"/>
		<path d="M-162.4,667.7h-1.7v5.1h-0.8v-5.1h-1.7V667h4.2C-162.4,667-162.4,667.7-162.4,667.7z"/>
		<path d="M-157.9,672.8h-3.3V667h3.3v0.7h-2.5v1.8h2.4v0.7h-2.4v2h2.5V672.8z"/>
		<v:paragraph  v:horizAlign="1"></v:paragraph>
		<v:tabList></v:tabList>
	</g>
</g>
<g id="shape1013-51" transform="translate(197.499,-610.301)">
	<title>Sheet.1013</title>
	<desc>Find</desc>
	<v:textBlock  v:margins="rect(4,4,4,4)"></v:textBlock>
	<v:textRect  cx="23.8361" cy="783.085" height="17.83" width="47.68"></v:textRect>
	<rect x="-191" y="661.2" class="st3" width="47.7" height="17.8"/>
	<g class="st1">
		<path d="M-171.6,667.1h-2.5v2.2h2.3v0.7h-2.3v2.8h-0.7v-6.3h3.2V667.1z"/>
		<path d="M-170.2,667.1c-0.1,0-0.2,0-0.3-0.1c-0.1-0.1-0.1-0.2-0.1-0.3s0-0.2,0.1-0.3s0.2-0.1,0.3-0.1c0.1,0,0.2,0,0.3,0.1
			c0.1,0.1,0.1,0.2,0.1,0.3s0,0.2-0.1,0.3C-169.9,667.1-170,667.1-170.2,667.1z M-169.8,672.8h-0.7v-4.5h0.7V672.8z"/>
		<path d="M-164.6,672.8h-0.7v-2.6c0-1-0.3-1.4-1-1.4c-0.4,0-0.7,0.1-0.9,0.4c-0.2,0.3-0.4,0.6-0.4,1v2.6h-0.7v-4.5h0.7v0.7l0,0
			c0.3-0.6,0.8-0.9,1.5-0.9c0.5,0,0.9,0.2,1.1,0.5c0.3,0.3,0.4,0.8,0.4,1.4V672.8z"/>
		<path d="M-159.4,672.8h-0.7V672l0,0c-0.3,0.6-0.8,0.9-1.5,0.9c-0.6,0-1-0.2-1.4-0.6c-0.3-0.4-0.5-1-0.5-1.6c0-0.7,0.2-1.3,0.6-1.8
			c0.4-0.4,0.9-0.7,1.5-0.7c0.6,0,1.1,0.2,1.3,0.7l0,0v-2.8h0.7V672.8z M-160.1,670.7V670c0-0.4-0.1-0.7-0.4-0.9s-0.5-0.4-0.9-0.4
			c-0.4,0-0.8,0.2-1,0.5c-0.2,0.3-0.4,0.8-0.4,1.3s0.1,0.9,0.4,1.2c0.2,0.3,0.6,0.5,1,0.5c0.4,0,0.7-0.1,1-0.4
			C-160.3,671.6-160.1,671.2-160.1,670.7z"/>
		<v:paragraph  v:horizAlign="1"></v:paragraph>
		<v:tabList></v:tabList>
	</g>
</g>
<g>
	<g>
		<line class="st4" x1="76.4" y1="17" x2="90.4" y2="17"/>
		<g>
			<polygon points="89.4,20.4 95.4,17 89.4,13.6 			"/>
		</g>
	</g>
</g>
<g>
	<g>
		<line class="st4" x1="45" y1="33.5" x2="45" y2="78.9"/>
		<g>
			<polygon points="41.6,77.9 45,83.9 48.4,77.9 			"/>
		</g>
	</g>
</g>
<g>
	<g>
		<line class="st4" x1="62.5" y1="38.4" x2="62.5" y2="83.9"/>
		<g>
			<polygon points="59.1,39.5 62.5,33.5 65.9,39.5 			"/>
		</g>
	</g>
</g>
<g>
	<g>
		<line class="st4" x1="45" y1="127.1" x2="45" y2="141.5"/>
		<g>
			<polygon points="41.6,140.5 45,146.5 48.4,140.5 			"/>
		</g>
	</g>
</g>
<g>
	<g>
		<line class="st4" x1="62.5" y1="132.4" x2="62.5" y2="146.5"/>
		<g>
			<polygon points="59.1,133.4 62.5,127.5 65.9,133.4 			"/>
		</g>
	</g>
</g>
</svg>
